<svg enable-background="new 0 0 95 101" viewBox="0 0 95 101" xmlns="http://www.w3.org/2000/svg"><path d="m34.5 57.186c3.76 0 5.611-1.79 7.736-3.936.333.333.672.665 1.027.994.336.311.659.631.982.948-2.467 2.442-4.945 4.799-9.745 4.799zm12.354-7.645c-.287-.265-.572-.541-.86-.824 2.13-2.1 4.059-3.782 8.214-4.034l.092-1.297c.025-.362.291-.493.593-.291l4.4 2.946c.178.073.262.277.189.455-.042.1-.128.176-.233.203l-4.754 2.33c-.326.16-.573-.006-.548-.368l.078-1.148c-2.975.278-4.306 1.43-6.014 3.143-.371-.364-.745-.734-1.157-1.115z"/></svg>