<svg enable-background="new 0 0 351 42" viewBox="0 0 351 42" xmlns="http://www.w3.org/2000/svg"><g fill="#fff"><path d="m.835 40.453c11.836-.126 23.647-.535 35.491-.44l17.82.141c3.4.035 6.81-.008 10.217-.051 4.936-.063 9.874-.126 14.806.051 1.109.039 1.109 1.423 0 1.385-5.155-.2-10.321-.132-15.488-.064-3.18.042-6.36.084-9.536.064-5.937-.04-11.867-.213-17.788-.26-11.851-.079-23.687.431-35.522.557h-.028c-1.089.001-1.072-1.383.028-1.383zm12.889-6.453c-.486-.621-.857-1.324-1.094-2.076-.328-.991-.591-2.002-.786-3.027-.22-1.18-.393-2.32-.518-3.437s-.213-2.3-.291-3.523c-.118-1.9-.165-3.365-.165-4.4v-2.698c0-.786 0-.834-.04-1.439v-2.147c0-.839.016-1.594.048-2.265 0-.668.071-1.392.134-2.163s.15-1.455.236-2.053c.1-.586.231-1.166.393-1.738.139-.494.331-.971.574-1.423.286-.684.921-1.16 1.658-1.242.565-.008 1.117.167 1.573.5.512.428.9.985 1.125 1.613.3.739.558 1.455.786 2.147.269.953.446 1.931.527 2.918.134 1.243.236 2.249.306 3.012s.134 1.9.157 3.358c0 1.935.063 2.886.063 3.979l.063 2.509-.26 5.5v.195c-.125.867-.188 1.743-.189 2.619.001.92-.11 1.836-.33 2.729-.202.826-.545 1.611-1.014 2.32-.289.567-.847.949-1.48 1.015-.585-.023-1.129-.311-1.476-.783zm-.2-30.874c-.219.396-.378.823-.472 1.266-.125.551-.236 1.14-.338 1.761s-.181 1.345-.236 2.163-.1 1.573-.134 2.226-.063 1.385-.079 2.186c0 1.322 0 1.769-.039 2.509v.189c0 1.95.111 4.05.3 6.291s.409 4.1.637 5.5c.165 1.242.455 2.465.865 3.649.362 1.007.786 1.809 1.227 1.809s.723-.85.991-1.943c.307-1.345.504-2.712.59-4.089.173-2.9.283-4.938.283-6.11v-2.572c0-.535 0-1.321-.048-2.359s-.063-1.415-.118-2.32-.134-1.9-.22-2.988-.213-2.076-.362-2.918-.315-1.66-.519-2.407v.04c-.139-.617-.389-1.203-.739-1.73-.283-.4-.582-.708-.872-.708s-.525.252-.714.551zm50.676 30.784c-.351-.212-.577-.582-.605-.991v-.019c0-.66.22-1 .66-1 .316.029.617.143.873.33.281.188.607.3.944.323.26 0 .551-.243.857-.739.339-.575.581-1.202.716-1.856.338-1.335.52-2.705.543-4.082-.014-1.322-.159-2.639-.433-3.932-.275-1.329-.627-2.64-1.055-3.928-.414-1.227-.833-2.451-1.258-3.672-.938-2.556-1.442-5.252-1.491-7.974-.118-1.894.394-3.774 1.455-5.348.406-.621 1.091-1.003 1.833-1.022.39.009.763.163 1.046.432.353.292.6.693.7 1.14.063.417-.047 1.014-.621.928-.723-.1-.739-.5-1.038-.409-.423.099-.775.39-.952.786-.517.949-.772 2.019-.739 3.1.012 2.289.389 4.561 1.117 6.731.315.92.66 1.927 1.022 3s.723 2.123 1.038 3.146c.763 2.413 1.14 4.932 1.117 7.463.011 1.847-.318 3.681-.968 5.41-.268.766-.7 1.463-1.266 2.045-.473.494-1.125.778-1.809.786-.618-.026-1.21-.253-1.686-.648zm-62.142.629h-.13c-.912 0-1.376-.362-1.376-1.085l.125-10.754-.212-18.878v-.252c-.106-1.02.065-2.05.496-2.98.144-.201.374-.324.621-.33 1.392-.007 2.669.772 3.3 2.013.844 1.79 1.248 3.755 1.18 5.733-.013 1.598-.251 3.187-.708 4.719-.337 1.155-.912 2.226-1.688 3.145 1.239 1.268 2.126 2.837 2.571 4.553.524 1.882.789 3.827.786 5.78-.007 1.118-.19 2.227-.542 3.288-.275.928-.637 1.829-1.081 2.689-.348.656-.832 1.23-1.42 1.683-.537.438-1.208.677-1.9.677zm.26-2.3c1.057-.263 1.93-1.005 2.36-2.005h-.037c.581-1.194.867-2.51.834-3.838.014-1.281-.068-2.561-.244-3.83-.101-.847-.279-1.682-.531-2.497-.175-.503-.404-.986-.684-1.439-.183-.356-.454-.659-.786-.881-.338-.143-.692-.244-1.054-.3.098 4.02.137 9.151.137 14.786zm.176-29.526c-.275 0-.425.519-.425 1.573s0 3.272.063 5.5.055 4.443.055 5.457c.511-.173.952-.786 1.314-1.879.306-.912.551-2.359.739-3.216s.315-1.368.378-1.573v-1.568c-.006-1.06-.223-2.108-.638-3.083-.44-.786-.928-1.219-1.486-1.219zm33.839 30.693v-6.888c-.455-.259-.987-.345-1.5-.244-.786.047-1.447.173-2.013.244-.179.629-.323 1.266-.432 1.911-.134.959-.268 1.935-.4 2.918-.103.922-.29 1.833-.558 2.721-.314.629-1.573.189-1.274-1.408.591-2.836 1.022-5.703 1.29-8.587.6-5.243 1.098-9.345 1.494-12.307.378-2.973.786-6.118 1.235-8.14s.908-3.044 1.316-3.147c.353-.143.755.028.898.381.012.03.022.06.03.091.063.9.212 4.506.6 9.075s.582 7.549.582 8.886.1 3.579.314 6.7.307 5.851.307 7.416c0 .984-.323 1.471-.983 1.471v.04c-.6 0-.906-.37-.906-1.133zm-2.343-18.189c-.582 4.718-.9 8.147-.936 9.437.671-.001 1.34-.045 2.005-.134.42-.057.833-.154 1.235-.29 0-.59-.134-1.778-.307-4.349l.013-.024c-.173-2.59-.33-5.052-.472-7.385-.141-2.359-.236-4.411-.236-4.9v-1.202c-.587 2.924-1.022 5.877-1.302 8.847zm42.489 18.583c-.157-.686-.236-1.388-.236-2.092l.236-6.975c0-1.499-.067-3.766-.2-6.8s-.2-5.299-.2-6.794l.047-3.822c.055-1.534-.04-3.07-.283-4.585-.727.063-1.459.063-2.186 0-.262-.061-.429-.318-.378-.582 0-.346.236-.574.7-.786.55-.242 1.133-.399 1.73-.464.988-.178 1.988-.278 2.991-.3.264.011.509.145.66.362.204.247.308.561.291.881-.252.614-.786.472-1.069.527h-.882c-.1-.008-.2-.008-.3 0 .134 1.683.2 4 .2 5.914l-.008-.04-.047 5.623.255 10.04.244 7.864c0 1.424-.275 2.705-.849 2.705-.323 0-.566-.228-.716-.676zm-51.926-.047c-.164-.486-.244-.997-.236-1.51l.236-7.942c0-1.51-.079-3.775-.2-6.8s-.2-5.3-.2-6.8v-3.82c.048-1.495-.047-2.99-.283-4.467l-1.494.276c-.281.03-.562-.049-.786-.22-.189-.22-.276-.26-.276-.614s.236-.644.708-.889c.549-.269 1.135-.454 1.738-.55.984-.179 1.98-.279 2.98-.3.261.016.503.145.66.355.19.254.289.564.283.881.029.216-.086.426-.283.519-.54.152-1.093.249-1.652.291-.102-.008-.204-.008-.306 0 .118 1.573.2 3.609.2 5.646l.031.008-.048 5.615.252 10.05.252 8.815c0 1.431-.291 2.139-.858 2.139-.333 0-.577-.236-.718-.683zm30.457-.747c-.044-.389.236-.739.624-.783.012-.001.024-.002.036-.003h.055l.786-.055c.283 0 .432-.613.432-1.289 0-2.249-.087-6.291-.276-10.782s-.275-7.864-.275-10.1l.071-4.451c0-.944 0-2.107-.078-2.792-.25.097-.52.131-.786.1-.465 0-.63-.047-.63-.747.021-.353.197-.678.48-.889.388-.272.828-.461 1.292-.555.529-.149 1.077-.22 1.627-.212.585-.031 1.085.418 1.116 1.004.001.019.002.039.001.058 0 .323-.126.511-.653.621l.04.008-.59.1c-.159.039-.298.134-.393.267-.104.384-.149.782-.134 1.18 0 2.846.118 7.106.353 12.779.244 5.67.362 10.5.362 13.369v2.414c.472 0 1.841.078 1.841.842-.039.423-.332.779-.739.9-.668.063-1.337.1-2.005.1-1.715.01-2.556-.212-2.557-1.084zm-5.23.967c-.4-.071-1.077-2.713-2.272-8.706s-2.4-12.433-3.57-19.322v14.281c0 1.392.078 3.468.212 6.228s.212 4.829.212 6.229c-.002.263-.127.511-.338.668-.239.189-.538.284-.842.267-.346 0-.519-.228-.519-.676l.15-3.146c0-1.505-.06-3.948-.181-7.329s-.183-5.452-.188-6.213l-.008-5.544.2-8.021v-.267c0-1.455.22-2.179.653-2.179s.928 1.352 1.573 4.05c1.211 4.9 4.585 24.8 4.585 24.8l-.078-15.516s-.385-11.623-.4-12.363.346-1.1.872-1.1.708.126.708 1.345v1.341l.2 16.137v13.368c0 .412-.08.819-.236 1.2-.071.329-.393.54-.723.472z"/><path d="m329.866 23.312c-.708-.87-1.083-1.951-1.772-2.813-.287-.417-.757-.671-1.263-.682h-.372c-.21.013-.21.063-.21.233v1.717c0 1.492.042 1.589.742 1.688l.136.021c.072.016.138.054.189.108.064.082.074.194.024.286-.055.066-.134.108-.354.108-.516-.031-.889-.031-1.342-.031s-.881.01-1.405.031c-.239 0-.328-.045-.377-.113-.039-.092-.03-.196.024-.28.052-.052.119-.087.191-.1l.2-.026c.7-.089.742-.184.742-1.688v-4.942c0-1.363-.045-1.513-.524-1.573l-.152-.021c-.22-.078-.376-.276-.4-.509v-.012c-.001-.081.064-.148.145-.149h.004c.146.009.292.009.438 0 .705-.052 1.534-.079 2.54-.079.779-.049 1.559.1 2.265.433.744.395 1.19 1.188 1.143 2.029-.004.91-.475 1.755-1.248 2.236-.137.092-.266.195-.386.309-.034.034 0 .079 0 .079s.1.113.228.231c.173.175.315.377.42.6.306.705.656 1.39 1.049 2.05.508.769 1.241 1.36 2.1 1.694l.013-.016c.158.027.275.162.278.323 0 .107-.108.176-.288.176-1.066-.047-2.068-.522-2.778-1.318zm-3.615-7.749v3.106c-.008.139 0 .279.024.417.286.052.578.068.868.047.472.036.943-.087 1.337-.349v.016c.474-.402.716-1.015.642-1.633.067-1.033-.716-1.924-1.749-1.992-.106-.007-.213-.005-.319.007-.803.001-.803.037-.803.381zm-188.143 7.749c-.708-.87-1.085-1.951-1.772-2.81-.287-.419-.758-.674-1.266-.684h-.37c-.21.013-.21.063-.21.236v1.715c0 1.494.039 1.589.742 1.691l.134.018c.072.018.138.055.191.108.064.082.074.194.024.286-.058.066-.136.108-.354.108-.519-.031-.886-.031-1.342-.031s-.865.01-1.4.031c-.23 0-.314-.046-.362-.112-.039-.092-.03-.197.024-.281.052-.052.119-.087.191-.1l.2-.026c.7-.089.742-.184.742-1.688v-4.944c0-1.363-.047-1.513-.524-1.573l-.156-.021c-.221-.077-.377-.275-.4-.508v-.019c.001-.083.068-.15.151-.149h.001c.145.009.29.009.435 0 .705-.05 1.534-.076 2.54-.076.779-.05 1.558.098 2.265.43.744.398 1.191 1.19 1.146 2.032-.008.909-.481 1.751-1.254 2.231-.135.089-.262.19-.38.3-.034.034 0 .079 0 .079s.1.11.228.231c.169.173.307.374.409.593.305.705.655 1.39 1.049 2.05.508.768 1.242 1.36 2.1 1.694.157.026.274.161.278.32 0 .11-.11.178-.288.178-1.062-.046-2.062-.518-2.772-1.309zm-3.617-7.752v3.122c-.008.139 0 .279.024.417.286.055.578.071.868.05.472.034.941-.089 1.335-.351.474-.403.715-1.016.642-1.633.07-1.032-.71-1.925-1.742-1.996-.109-.007-.219-.005-.328.007-.799 0-.799.038-.799.384zm-10.133 8.61c-1.334.039-2.622-.491-3.542-1.458-.844-.922-1.304-2.132-1.285-3.382-.115-2.662 1.95-4.914 4.613-5.029.071-.003.142-.005.213-.004 2.546-.064 4.662 1.948 4.726 4.495.003.133.001.266-.007.399.129 2.621-1.892 4.851-4.513 4.979-.068.003-.137.005-.205.006zm-3.35-5.288c-.018 1.089.258 2.164.8 3.109.558.974 1.602 1.567 2.724 1.547 1.41 0 3.057-1.025 3.057-3.909 0-2.168-.9-4.7-3.458-4.7-.523 0-3.123.191-3.123 3.953zm193.27 4.5c-.737-.645-1.064-1.683-1.064-3.371v-3.316c0-1.515-.055-1.644-.739-1.7h-.047c-.201-.018-.365-.168-.4-.367-.018-.134.115-.149.15-.149l.262.029c.511.034.928.034 1.4.034.386 0 .721-.021 1.1-.021h.252c.247 0 .33.021.391.089.05.092.04.204-.024.286-.051.055-.12.09-.194.1l-.171.016c-.684.063-.739.191-.739 1.7v3.052c0 2.514.752 3.686 2.359 3.686 2.129 0 2.574-1.995 2.574-3.67v-1.62c.067-.968-.016-1.941-.244-2.884-.133-.166-.335-.263-.548-.262-.203-.02-.367-.174-.4-.375-.018-.134.115-.149.149-.149l.262.026c.422.031.842.031 1.269.031.33 0 .59-.016.839-.016h.052l-.026-.021c.43-.024.543-.005.619.081.05.092.04.204-.024.286-.052.056-.124.089-.2.094l-.17.016c-.219-.013-.424.105-.524.3-.164.938-.226 1.891-.184 2.842v1.589c.107 1.214-.231 2.425-.952 3.408-.684.698-1.629 1.079-2.606 1.049-.879.059-1.746-.224-2.422-.789zm-22.931 0c-.734-.645-1.064-1.683-1.064-3.371v-3.316c0-1.515-.055-1.644-.739-1.7h-.044c-.201-.018-.365-.168-.4-.367-.018-.134.115-.149.149-.149l.262.029c.511.034.928.034 1.4.034.385 0 .721-.021 1.1-.021h.252c.246 0 .33.021.391.089.05.092.04.204-.024.286-.051.055-.12.09-.194.1l-.17.016c-.684.063-.739.191-.739 1.7v3.052c0 2.514.752 3.686 2.359 3.686 2.129 0 2.574-1.995 2.574-3.67v-1.62c.067-.968-.016-1.941-.244-2.884-.133-.166-.335-.263-.548-.262-.204-.018-.369-.173-.4-.375-.021-.134.115-.149.147-.149l.262.026c.422.031.839.031 1.269.031.33 0 .577-.016.839-.016h.052l-.029-.021c.43-.024.543-.005.619.081.05.092.04.204-.024.286-.053.055-.124.088-.2.094l-.171.016c-.218-.011-.423.106-.524.3-.162.938-.222 1.891-.181 2.842v1.589c.107 1.214-.231 2.425-.952 3.408-.684.698-1.629 1.079-2.606 1.049-.879.059-1.746-.224-2.422-.789zm-105.819.235c-.012-.005-.021-.014-.026-.026-.192-.533-.307-1.091-.344-1.657-.01-.3.016-.393.092-.448.092-.039.197-.03.281.024.042.037.074.084.094.136.21 1.053 1.126 1.817 2.2 1.835.778.1 1.489-.45 1.589-1.227.01-.078.014-.157.011-.236.037-.788-.375-1.529-1.064-1.914l-1.269-.873c-.873-.528-1.427-1.456-1.476-2.475.005-1.389 1.135-2.511 2.524-2.506.092 0 .185.006.276.016.079 0 .16.013.241.013h.1c.1 0 .22-.013.239-.079.031-.108-.147-.207-.262-.278l.168.1c-.262-.176-.6-.357-.957-.572-.412-.238-.79-.529-1.127-.865-.175-.178-.333-.371-.474-.577-.132-.199-.247-.408-.344-.625-.088-.201-.162-.408-.223-.619-.026-.1-.058-.2-.076-.3s-.039-.2-.055-.262-.037-.129-.058-.191l-.115.045c-.537.136-1.105.082-1.607-.152-.468-.281-.888-.635-1.243-1.049-.328-.359-.8-.776-1.049-1-.099-.084-.174-.142-.174-.173.717-.241 1.475-.341 2.23-.294 1.072.038 2.013.725 2.375 1.735.036.173.036.351 0 .524.045.088.081.18.108.275.016-.071.037-.142.063-.21.195-.407.562-.704 1-.81.772-.047 1.545.091 2.254.4.014.005.025.016.029.031.005.015.001.032-.011.043-.32.285-.618.595-.891.925-.343.336-.785.553-1.261.619-.323.053-.655-.001-.946-.152.045.123.084.257.142.385.173.387.412.741.708 1.045.306.299.65.557 1.022.768.364.212.726.4 1.033.6.144.094.281.198.409.312.104.093.199.197.283.309.055.073.105.151.149.231l.052.084v.021c.017.006.031.02.037.037.136.478.215.97.235 1.466 0 .254-.042.344-.113.4-.092.039-.196.03-.28-.024-.057-.054-.097-.123-.115-.2-.162-.796-.89-1.347-1.7-1.287-.731-.103-1.407.407-1.51 1.138-.013.089-.016.18-.01.27.068.705.48 1.331 1.1 1.673l1.07.7c1.022.546 1.671 1.6 1.7 2.758v.024c.017 1.465-1.157 2.667-2.622 2.684-.098.001-.196-.003-.293-.013h-.128c-.698-.001-1.384-.183-1.991-.528zm-20.5-.018c-.011-.005-.021-.013-.028-.023-.191-.534-.307-1.093-.344-1.659-.01-.3.016-.393.092-.448.092-.039.197-.03.281.024.042.037.074.084.094.136.21 1.053 1.126 1.818 2.2 1.835.778.099 1.49-.451 1.59-1.23.01-.077.013-.155.01-.233.037-.789-.377-1.53-1.067-1.914l-1.269-.873c-.872-.529-1.424-1.457-1.473-2.475.005-1.388 1.134-2.51 2.522-2.506.091 0 .182.006.273.016.428.008.852.071 1.264.186.145.048.296.075.448.081.03 0 .056.019.066.047.135.477.213.968.233 1.463 0 .254-.042.343-.113.4-.092.039-.196.03-.28-.024-.057-.054-.097-.124-.115-.2-.161-.797-.89-1.348-1.7-1.287-.733-.101-1.409.41-1.51 1.143-.012.088-.016.177-.01.265.068.705.48 1.331 1.1 1.673l1.07.7v.005c1.023.545 1.673 1.599 1.7 2.758.018 1.464-1.154 2.666-2.618 2.684-.099.001-.199-.003-.297-.013h-.123c-.701 0-1.389-.182-1.999-.528zm65.052.4c-.22-.307-.713-.915-1.644-2.029l-3.1-3.715c-.131-.16-.336-.422-.556-.684-.252-.312-.525-.642-.734-.9-.024-.042-.07-.065-.118-.058-.029.005-.045.031-.045.068-.013.168-.013.365-.013.551v3.044c-.064.967.013 1.939.231 2.884.063.121.291.2.627.233l.236.026c.068.015.13.05.178.1.063.083.071.195.021.286-.058.066-.139.108-.372.108-.524-.029-.907-.029-1.311-.029-.493 0-.834.01-1.2.029-.184-.005-.252-.039-.309-.11-.041-.092-.032-.199.024-.283.06-.054.135-.089.215-.1l.144-.018c.293-.042.472-.123.524-.241.148-.906.205-1.825.168-2.742v-4.201c.044-.347-.056-.697-.278-.967-.186-.172-.424-.277-.676-.3-.213-.016-.386-.177-.417-.388-.018-.131.115-.147.149-.147l.262.026c.508.026 1.064.026 1.266.026h.333c.096-.008.193.005.283.039.072.06.133.133.178.215.64.995 1.36 1.936 2.154 2.814l1.311 1.549.524.6c.545.645 1 1.177 1.418 1.646.042.045.071.066.121.06s.05-.058.05-.11v-3.205c.072-.969-.016-1.944-.262-2.884-.066-.1-.2-.181-.721-.249h-.068c-.081-.008-.157-.043-.215-.1-.055-.084-.064-.191-.024-.283.094-.1.189-.129.619-.1h.052c.38.021.692.021 1.02.021.464 0 .779-.008 1.109-.026.241 0 .323.039.383.108.05.092.04.204-.024.286-.049.052-.114.087-.184.1h-.034c-.522.092-.621.226-.64.262-.175.883-.242 1.783-.2 2.682v3.55c0 1.19.024 1.825.024 2.16v.024c0 .173.034.336-.176.461-.107.059-.242.024-.307-.079zm-54.741-.684c-.737-.645-1.064-1.686-1.064-3.371v-3.318c0-1.515-.055-1.641-.739-1.7h-.047c-.202-.018-.366-.17-.4-.37-.018-.131.115-.147.149-.147l.262.029c.511.031.928.031 1.4.031.385 0 .721-.021 1.1-.021h.252c.246-.005.33.021.391.089.049.092.04.204-.024.286-.052.053-.12.088-.194.1l-.17.016c-.684.063-.739.191-.739 1.7v3.054c0 2.514.752 3.686 2.36 3.686 2.129 0 2.574-2 2.574-3.67v-1.617c.067-.968-.016-1.941-.244-2.884-.133-.166-.335-.263-.548-.262-.212-.017-.383-.18-.409-.391-.021-.134.113-.149.147-.149l.262.026c.422.029.839.029 1.269.029h.873c.43-.026.543-.005.619.079.05.092.04.204-.024.286-.053.056-.124.091-.2.1l-.17.016c-.218-.012-.424.106-.524.3-.162.938-.222 1.891-.181 2.842v1.573c.108 1.214-.231 2.426-.954 3.408-.681.699-1.625 1.079-2.6 1.049-.882.059-1.753-.226-2.43-.795zm104.476.586c-.039-.092-.03-.197.024-.281.052-.053.118-.088.191-.1l.2-.026c.7-.089.739-.184.739-1.691v-4.969c0-1.431-.018-1.6-.671-1.694-.221-.077-.377-.276-.4-.509-.021-.131.115-.147.147-.147l.262.029c.487.029.878.029 1.311.029h3.539c.315-.018.461-.045.524-.045h.047c.139 0 .244.165.244.312v.616l-.016.005c.005.291.024.6.024.815s-.021.249-.081.3c-.091.043-.198.037-.283-.016-.056-.05-.095-.116-.113-.189-.023-.495-.374-.913-.857-1.022-.422-.078-.851-.106-1.279-.084h-.813c-.333 0-.333 0-.333.5v2.8c0 .312 0 .312.372.312h.889c.373.016.746-.011 1.112-.081.1-.042.21-.081.289-.443l.087-.364c.015-.076.054-.146.11-.2.085-.057.194-.065.286-.021.1.071.123.186.1.616v.052c-.013.265-.029.571-.029.849s.029.556.029.818v.026c.026.427-.018.553-.1.616-.091.042-.197.034-.28-.021-.05-.048-.087-.107-.108-.173l-.1-.378c-.027-.22-.173-.407-.38-.487-.333-.06-.671-.082-1.009-.066h-.907c-.372 0-.372 0-.372.309v1.9c0 1.515.05 1.625.752 1.688l.3.029c.076.01.147.045.2.1.037.048.057.107.055.168-.003.031-.008.062-.016.092-.004.01-.011.018-.018.026-.06.071-.149.108-.411.108h-.2c-.519-.024-.868-.024-1.266-.024-.522 0-.933.01-1.41.031-.245-.004-.334-.04-.384-.111zm25.311.06c-.4 0-.76.005-1.285.024h-.223c-.3.01-.388-.024-.456-.113-.042-.091-.033-.198.024-.28.052-.052.121-.086.194-.094l.362-.034c.7-.063.766-.2.766-1.688v-6.171c.016-.115.005-.233-.032-.343-.037-.039-.134-.039-.3-.039h-1.358c-.34-.04-.683.041-.97.228-.238.237-.422.522-.54.836-.034.063-.085.116-.147.152-.097.035-.204.02-.288-.039-.06-.076-.073-.16-.021-.364.021-.066.042-.131.06-.2.006-.021.013-.042.021-.063.01-.033.018-.066.024-.1.142-.53.265-1.106.333-1.51.003-.019.013-.035.029-.045.057-.029.12-.042.184-.039.058-.007.116.01.16.047.01.01.016.023.018.037.066.359.39.377.959.377h5.521c.718 0 .8-.029.981-.356.007-.014.019-.025.034-.031.036-.014.074-.02.113-.018h.005c.084-.009.167.027.218.094.005.015.005.032 0 .047-.131.612-.202 1.235-.21 1.861-.01.283-.037.341-.139.393-.099.031-.206.001-.275-.076-.045-.052-.073-.116-.081-.184-.009-.295-.11-.58-.288-.815-.47-.22-.993-.298-1.507-.226h-.949c-.16 0-.26 0-.288.037-.035.106-.044.219-.029.33v6.19c0 1.515.047 1.625.737 1.688l.275.026c.074.011.142.047.194.1.063.083.071.195.021.286-.06.071-.147.108-.409.108-.602-.029-.99-.029-1.441-.029zm36 .026c-.058-.005-.168-.016-.375-.029-1.017-.031-2.042-.031-3.052-.031h-1.2c-.417 0-.765.005-1.269.021h-.05c-.448.024-.509-.016-.59-.108-.071-.103-.071-.238 0-.341.056-.05.126-.082.2-.092l.288-.029c.7-.063.765-.207.765-1.688v-4.914c0-1.334-.021-1.578-.595-1.68-.249-.018-.453-.205-.493-.451-.024-.163.142-.184.184-.184l.309.026c.456.026.823.026 1.243.026h3.634c.314-.016.461-.045.524-.045h.181l.089-.026.118-.052.071-.037.073-.045c.053-.035.105-.071.157-.11.056-.042.109-.088.16-.136.055-.047.108-.098.157-.152.05-.055.1-.108.147-.165.048-.054.093-.11.134-.17.022-.029.043-.058.063-.089v-.02c.066-.134.113-.2.3-.574.063-.129.107-.32.181-.511.141-.389.371-.74.671-1.025.168-.176.44-.367.726-.642.383-.369.593-.571.807-.813.247-.257.473-.534.676-.828.029-.039.063-.084.076-.073s0 .118 0 .118c-.223 1.332-.9 2.547-1.916 3.437-.262.207-.787.543-.787.543.135-.01.269-.034.4-.071l.165-.066c1.303-.612 2.831-.498 4.029.3.527.291 1.091.506 1.678.64.274.072.551.128.831.168l.024.013c.113.016.139.031.144.05s-.06.045-.094.058c-.858.398-1.82.513-2.747.328-.547-.109-1.084-.262-1.607-.456-.438-.186-.894-.326-1.361-.417-.216-.041-.435-.069-.655-.081-.271-.031-.544-.031-.815 0-.034.007-.067.017-.1.029-.071.034-.129.089-.168.157-.001-.014-.001-.028 0-.042-.029.052-.05.087-.092.155s-.094.134-.142.2-.1.136-.157.2l-.173.191c-.058.062-.119.121-.184.176-.066.055-.126.108-.189.155l-.094.066h.016c-.152.1-.272.242-.344.409-.053.227-.063.462-.029.692.018.459.008.5-.073.569-.091.043-.198.036-.283-.018-.048-.039-.085-.09-.108-.147-.181-.595-.315-.931-.933-1.093-.422-.071-.85-.099-1.277-.081h-.965c-.33 0-.33 0-.33.493v2.674c0 .325 0 .325.372.325h.773c.373.019.747-.008 1.114-.081.123-.042.21-.1.275-.438l.086-.427c.02-.058.054-.111.1-.152.085-.056.193-.065.286-.024.087.073.123.189.1.619v.058c-.013.262-.031.569-.031.852s.018.569.034.831v.22c0 .27-.039.364-.113.417-.021.013-.044.021-.068.024h-.029c-.065.006-.13-.011-.184-.047-.053-.053-.091-.119-.11-.191l-.105-.359c-.052-.246-.134-.422-.365-.482-.332-.063-.671-.086-1.009-.068h-.786c-.372 0-.372 0-.372.309v1.841c-.068.485.014.979.236 1.416.144.144.393.3 1.573.3.567.062 1.141-.006 1.678-.2.381-.309.679-.71.865-1.164.033-.063.084-.114.147-.147.102-.036.216-.016.3.052.055.063.073.108.018.351-.131.533-.292 1.058-.483 1.573-.034.118-.118.241-.236.241zm-194-.115c-.042-.091-.034-.197.021-.281.044-.048.102-.083.165-.1l.333-.031c.36-.03.66-.29.742-.642.073-.2.163-.427.262-.689.223-.574.527-1.36.915-2.448l1.363-3.8.066-.186c.066-.244.1-.461.134-.632.014-.057.024-.115.031-.173.013-.062.013-.127 0-.189-.036-.078-.097-.143-.173-.184h.015c-.009-.004-.018-.01-.026-.016-.105-.059-.205-.126-.3-.2-.212-.162-.395-.357-.543-.579-.078-.119-.141-.246-.189-.38v-.041c-.281.27-.7.335-1.049.163-.323-.156-.606-.385-.826-.668-.2-.215-.383-.375-.49-.477-.063-.06-.1-.084-.1-.118s.071-.052.168-.087c.191-.066.461-.139.524-.155.311-.076.633-.099.952-.068.308.031.596.167.815.385.024.025.044.053.06.084v-.021c.029-.05.05-.1.081-.147s.055-.089.087-.126l.087-.1.021-.021c-.05-.162-.065-.332-.042-.5.126-.569.658-.939 1.641-.852.379.058.75.154 1.109.288.149.047.239.087.241.113s-.139.134-.21.186c-.231.176-.417.323-.679.524-.258.236-.555.425-.878.559-.277.126-.593.141-.881.042l-.034.042-.055.092c-.019.032-.037.066-.052.1-.018.035-.03.072-.037.11-.02.08-.029.162-.026.244.008.09.028.178.06.262.037.093.086.181.144.262.123.166.272.312.441.43.016.013.034.021.052.034-.045-.042-.063-.042-.045-.042.324.145.664.254 1.012.323.061.024.118.058.168.1l.045.05.016.021c.117.215.201.447.249.687.034.131.071.267.115.406.021.073.045.147.068.218l.157.49 1.9 5.867c.4 1.238.556 1.379 1.08 1.442l.225.026c.076.01.146.045.2.1.039.053.058.118.055.184v.045c-.005.021-.015.041-.029.058-.058.068-.142.1-.377.1-.456-.029-.836-.029-1.335-.029s-.92.031-1.261.031c-.26 0-.349-.042-.4-.113-.042-.091-.034-.197.021-.281.044-.048.102-.083.165-.1l.293-.031c.252-.024.406-.094.406-.184-.029-.247-.086-.489-.17-.723l-.583-1.85c-.084-.273-.1-.3-.482-.3h-2.187c-.315 0-.278.026-.359.288l-.467 1.421c-.141.369-.239.754-.291 1.146 0 .1 0 .184.323.212l.244.029c.071.013.136.048.186.1.033.042.053.093.058.147v.042c-.003.022-.008.045-.016.066-.003.012-.01.022-.018.031-.055.066-.134.123-.344.1s-.44-.018-.734-.018h-.443c-.328 0-.682.016-.991.031h-.026v.01c-.234.003-.32-.037-.37-.105zm4.158-6.939-.842 2.393c-.031.071-.048.146-.052.223.021.021.092.021.183.021h1.817c.073 0 .247 0 .278-.042s-.021-.212-.05-.3l-.728-2.236c-.087-.273-.228-.718-.3-.91-.062.139-.198.538-.308.855zm-41.258 6.935c-.041-.091-.032-.198.024-.281.051-.053.118-.088.191-.1l.2-.026c.7-.087.742-.184.742-1.688v-4.978c0-1.431-.018-1.6-.671-1.694-.221-.077-.377-.276-.4-.509-.021-.131.115-.149.147-.149.086.016.173.027.26.033.485.031.878.031 1.311.031h3.528c.317-.016.461-.042.524-.042h.05c.136 0 .241.165.241.312v.629c.005.294.021.606.024.818s-.018.249-.081.3c-.091.043-.198.037-.283-.016-.056-.05-.095-.116-.113-.189-.022-.496-.373-.916-.857-1.025-.421-.075-.85-.103-1.277-.081h-.815c-.333 0-.333 0-.333.493v2.8c0 .309 0 .309.372.309h.91c.372.018.746-.008 1.112-.079.1-.042.21-.081.288-.443l.087-.364c.016-.076.054-.146.11-.2.085-.057.194-.065.286-.021.087.071.123.189.1.616v.052c-.013.265-.029.571-.029.849s.016.556.029.818v.026c.026.427-.016.553-.1.616-.091.042-.197.034-.281-.021-.048-.048-.083-.107-.1-.173l-.1-.377c-.076-.281-.186-.42-.383-.485-.332-.062-.67-.085-1.007-.068h-.922c-.372 0-.372 0-.372.312v1.9c0 1.515.05 1.625.752 1.688l.307.029c.076.009.147.045.2.1.036.049.055.108.055.168-.003.031-.008.062-.016.092l-.016.026c-.063.071-.149.108-.412.108h-.208c-.519-.024-.868-.024-1.266-.024-.519 0-.933.01-1.408.029l-.026-.013c-.238 0-.324-.04-.374-.108zm99.165 0c-.039-.092-.03-.196.024-.28.044-.048.1-.083.163-.1l.294-.031c.252-.026.406-.1.406-.184-.026-.248-.083-.492-.17-.726l-.587-1.856-.008-.008c-.081-.273-.1-.3-.482-.3h-2.188c-.312 0-.275.026-.357.288l-.467 1.421c-.139.37-.236.754-.288 1.146 0 .1 0 .184.322.212l.244.029c.071.012.137.047.186.1.033.041.052.091.055.144.001.014.001.028 0 .042.003.022.003.044 0 .066-.004.012-.01.024-.018.034-.088.094-.221.132-.346.1-.21-.021-.438-.021-.734-.021h-.44c-.33 0-.682.029-.994.029h-.026c-.236 0-.325-.042-.375-.11-.039-.092-.03-.196.024-.28.044-.048.102-.083.165-.1l.33-.031c.362-.031.662-.291.744-.645.073-.2.16-.425.262-.687.223-.574.524-1.361.912-2.448l1.363-3.8.068-.186c.063-.244.1-.464.131-.632.016-.1.045-.181.045-.239.06-.273.4-.438.786-.592.032-.014.066-.021.1-.021.236 0 .328.341.456.813.037.144.071.268.115.406.021.073.045.147.068.22l.157.488 1.9 5.878c.4 1.24.553 1.379 1.078 1.444l.226.026c.076.01.147.045.2.1.041.052.06.117.055.183v.047c-.005.021-.014.041-.026.058-.058.066-.144.1-.38.1-.456-.029-.834-.029-1.332-.029s-.92.016-1.261.031c-.256.009-.348-.029-.4-.099zm-1.62-6.926-.842 2.391c-.029.07-.047.144-.052.22.021.024.092.024.184.024h1.812c.073 0 .246 0 .278-.042s-.021-.212-.05-.3l-.721-2.236c-.086-.273-.228-.718-.3-.91-.06.134-.197.532-.309.853zm-75.094 7.034h.023zm101.157 0c-.238 0-.325-.042-.375-.11-.04-.091-.032-.196.021-.28.044-.048.102-.083.165-.1l.333-.031c.361-.031.662-.292.744-.645.074-.2.16-.425.262-.687.22-.574.524-1.361.912-2.448l1.376-3.8c.024-.066.047-.129.066-.186.065-.244.1-.464.131-.632.018-.1.034-.181.047-.239.06-.27.4-.438.787-.592.032-.014.066-.021.1-.021.233 0 .328.341.456.813.034.144.071.268.115.406.021.073.045.147.066.22l.16.492 1.9 5.878c.4 1.24.553 1.379 1.078 1.444l.228.026c.076.009.147.045.2.1.04.052.061.117.058.183v.045c-.003.021-.012.041-.026.058l-.008-.008c-.06.066-.144.1-.38.1-.456-.029-.834-.029-1.332-.029s-.92.031-1.261.031c-.259 0-.351-.042-.4-.113-.039-.092-.03-.197.024-.281.043-.049.1-.083.163-.1l.294-.031c.252-.024.406-.094.406-.183-.027-.248-.084-.492-.17-.726l-.587-1.856c-.084-.273-.1-.3-.483-.3h-2.194c-.315 0-.275.026-.356.288l-.469 1.421c-.139.369-.236.752-.289 1.143 0 .1 0 .186.323.215l.244.026c.071.013.136.048.186.1.033.041.052.091.055.144.001.014.001.028 0 .042 0 .023-.005.045-.013.066-.004.012-.01.024-.018.034-.089.094-.221.132-.346.1-.21-.021-.438-.021-.734-.021h-.441c-.33 0-.682.029-.993.029zm3.8-7.039-.841 2.393c-.032.069-.049.144-.052.22.018.024.089.024.183.024h1.812c.073 0 .246 0 .278-.042s-.021-.212-.05-.3l-.723-2.236c-.087-.273-.225-.721-.3-.912-.061.136-.198.534-.308.854zm23.405 7.031c-.068-.008-.215-.026-.524-.045-.674-.024-1.6-.024-2.65-.024h-1.23c-.422 0-.763.008-1.229.024h-.184c-.291 0-.346-.037-.414-.115-.071-.103-.071-.238 0-.341.042-.04.092-.07.147-.089l.3-.031c.705-.076.739-.155.739-1.633v-5.064c0-1.473-.018-1.638-.8-1.7h-.066c-.2-.023-.362-.174-.4-.372-.018-.134.115-.149.15-.149l.262.029c.619.034 1.03.034 1.5.034.362 0 .695-.021 1.067-.021h.06c.43-.024.545.016.619.1.05.092.04.204-.024.286-.048.051-.113.084-.183.092l-.2.005c-.726.066-.75.228-.75 1.7v4.9c0 .857.034 1.153.262 1.416.147.155.42.3 1.405.3 1.114 0 1.392-.055 1.594-.173.378-.316.659-.732.81-1.2.028-.064.078-.114.142-.142l.005-.008c.102-.031.213-.013.3.05.076.084.087.136-.06.682l-.016.068c-.099.406-.221.807-.364 1.2-.021.112-.112.198-.226.212zm9.569-.01c-.124-.019-.249-.028-.375-.029-1.017-.031-2.042-.031-3.052-.031h-1.2c-.414 0-.765.008-1.269.024h-.05c-.448.024-.508-.016-.59-.108-.07-.104-.07-.24 0-.344.056-.05.126-.082.2-.092l.291-.029c.7-.063.766-.207.766-1.688v-4.922c0-1.335-.021-1.578-.593-1.68-.248-.033-.442-.229-.472-.477-.024-.165.144-.184.184-.184.103.021.207.03.312.026.454.026.821.026 1.24.026h3.615c.317-.018.461-.045.524-.045h.05c.136 0 .241.157.241.3.064.392.106.788.126 1.185.018.459.008.5-.073.566-.088.048-.195.048-.283 0-.045-.042-.081-.093-.107-.149-.181-.595-.312-.931-.933-1.093-.422-.073-.85-.1-1.277-.081h-.983c-.333 0-.333 0-.333.493v2.671c0 .317 0 .317.37.328h.773c.373.019.746-.008 1.112-.081.126-.042.212-.1.278-.438l.087-.425c.017-.059.049-.113.094-.155.086-.055.193-.063.286-.021.089.071.126.186.1.616v.058c-.016.265-.031.569-.031.852s.019.569.031.831c.011.073.015.146.013.22 0 .27-.042.367-.112.42-.021.011-.044.018-.068.021h-.031c-.064.006-.128-.011-.181-.047-.054-.052-.093-.117-.113-.189l-.089-.367c-.052-.249-.134-.425-.364-.485-.333-.063-.673-.086-1.012-.068h-.773c-.372 0-.372 0-.372.309v1.872c-.069.485.014.979.236 1.416.144.144.39.3 1.573.3.567.063 1.141-.006 1.678-.2.38-.31.676-.71.862-1.164.034-.062.085-.113.147-.147.102-.036.215-.017.3.049l-.006-.007.011.01c.05.06.066.109.012.344-.131.533-.292 1.058-.482 1.573-.034.118-.121.241-.236.241zm-23-.045c-.3-.01-.637-.026-.944-.026-.375 0-.7.026-1.007.026h-.129c-.357.013-.411-.029-.488-.113-.067-.104-.067-.237 0-.341.057-.05.126-.085.2-.1l.079-.016c.647-.115.679-.194.679-1.688v-5.179c0-1.043-.053-1.271-.593-1.324h-.094l.018-.008c-.253-.03-.455-.225-.493-.477-.024-.165.144-.183.184-.183.144.015.288.021.433.018.687-.05 1.486-.076 2.435-.076.78-.045 1.56.092 2.278.4.677.347 1.087 1.058 1.049 1.817.021.811-.45 1.555-1.193 1.882-.052.034-.118.06-.121.1s.018.05.052.066c.033.011.066.019.1.024 1.117.253 1.891 1.273 1.835 2.417 0 1.78-1.319 2.8-3.623 2.8-.165.001-.405-.018-.654-.018zm-.372-4.436v1.964c-.041.511.05 1.023.262 1.489.256.274.627.41 1 .367.928 0 2.029-.312 2.029-1.835 0-1.985-1.62-2.281-2.59-2.281-.698.001-.698.075-.698.295zm.147-4.312c-.1.042-.147.06-.147.3v2.711c0 .333.018.333.333.333h.291c1.481-.06 2.032-.514 2.032-1.675.044-.928-.672-1.717-1.601-1.761-.107-.005-.215 0-.321.015h-.086c-.169-.001-.337.026-.498.078zm-49.336 8.736c-.4 0-.758.008-1.282.026h-.191v-.005h-.034c-.3.008-.385-.024-.456-.113-.039-.092-.03-.196.024-.28.054-.055.124-.09.2-.1l.362-.031c.7-.063.765-.207.765-1.688v-6.174c.015-.115.003-.233-.034-.343-.037-.037-.134-.037-.3-.037h-1.356c-.34-.039-.684.043-.97.231-.238.236-.422.522-.54.836-.032.065-.083.118-.146.153-.097.035-.205.02-.289-.04-.058-.076-.071-.16-.018-.365.018-.066.039-.131.058-.2.005-.018.01-.026.021-.06.013-.032.022-.066.026-.1.142-.527.265-1.1.333-1.507.003-.018.012-.035.026-.047.058-.026.121-.039.184-.039.059-.005.117.013.163.05.008.01.013.022.016.034.066.362.391.38.962.38h4.981c.572 0 .9-.018.96-.38.003-.012.01-.024.018-.034.046-.037.104-.055.163-.05.062-.001.124.013.181.039.016.011.026.028.029.047.071.4.189.983.333 1.507.005.034 0 .081.024.1.016.016.023.038.021.06.021.068.039.134.06.2.052.2.039.286-.021.365-.084.06-.193.075-.29.04-.062-.034-.114-.086-.147-.149-.118-.314-.301-.599-.538-.836-.288-.186-.632-.266-.973-.226h-1.389c-.16 0-.26 0-.288.037-.035.106-.044.219-.029.33v6.195c0 1.518.047 1.628.737 1.688l.275.029c.074.012.142.047.194.1.063.083.071.195.021.286-.06.071-.147.108-.409.108-.598-.037-.984-.037-1.437-.037zm17.224-.092c-.042-.091-.034-.197.021-.28.059-.055.134-.09.215-.1l.176-.024c.734-.092.755-.231.755-1.717v-5.012c0-1.5-.026-1.665-.752-1.73h-.052c-.21-.02-.38-.182-.409-.391-.021-.131.115-.147.147-.147l.262.029c.524.031.97.031 1.434.031s.876-.01 1.374-.031c.241.005.323.042.383.11.048.091.039.202-.024.283-.046.053-.109.089-.178.1l-.2.018v.005c-.726.066-.752.231-.752 1.73v5c0 1.487.021 1.625.755 1.717l.173.024c.076.01.146.045.2.1.064.082.073.194.024.286-.06.066-.144.1-.383.1-.5-.029-.873-.029-1.374-.029s-.91.01-1.434.031c-.222.01-.301-.024-.361-.103z"/></g></svg>