<svg enable-background="new 0 0 32 30" viewBox="0 0 32 30" xmlns="http://www.w3.org/2000/svg"><path d="m15.134 29.998c-.159.013-.315-.048-.424-.164-.141-.269-.17-.583-.08-.874l.006-.035c.04-.237.224-1.348.224-1.348.097-.472.08-.96-.05-1.424-.174-.431-.85-.66-1.387-.776-3.514-.413-6.809-1.92-9.419-4.309-2.338-2.131-3.694-5.132-3.746-8.295 0-7.042 7.061-12.773 15.742-12.773s15.742 5.731 15.742 12.774c-.064 2.958-1.274 5.776-3.375 7.861-3.269 3.763-10.571 8.384-12.367 9.14-.272.128-.566.204-.866.223zm6.954-20.627c-.079 0-.156.031-.213.086l-.008.009c-.055.056-.085.132-.085.21v6.86c0 .079.03.155.085.211l.005.005c.057.057.134.089.215.089h4.413c.169 0 .306-.137.306-.306v-1.103c0-.169-.137-.306-.306-.307h-3v-1.159h3c.169-.001.306-.138.306-.307v-1.1c0-.169-.137-.306-.306-.307h-3v-1.163h3c.169-.001.306-.138.306-.307v-1.1c0-.169-.137-.306-.306-.307h-4.412zm-6.188 3.091 3.144 4.248c.022.03.048.056.079.076l.022.014h.009l.014.008.015.006h.009l.021.006c.027.008.055.012.083.012h1.105c.169 0 .306-.137.306-.306v-6.849c0-.169-.137-.306-.306-.306h-1.103c-.169 0-.306.137-.306.306v4.076l-3.144-4.245c-.007-.011-.016-.022-.025-.031l-.021-.022-.005-.005h-.005l-.011-.008-.008-.006-.016-.017-.01-.005h-.008-.008l-.01-.005h-.008-.008-.01-.009-.009-.012-.017-1.159c-.17-.001-.307.136-.308.306v6.86c.001.17.138.307.308.306h1.1c.169 0 .306-.137.307-.306v-4.113zm-4.2-3.091c-.169 0-.306.137-.307.306v6.86c.001.169.138.306.307.306h1.1c.169 0 .306-.137.307-.306v-6.86c-.001-.169-.138-.306-.307-.306zm-5.968 0c-.169 0-.306.137-.307.306v6.86c0 .079.03.155.085.211l.005.005c.057.057.134.089.215.089h4.411c.169 0 .306-.137.306-.306v-1.104c0-.169-.137-.306-.306-.307h-3v-5.448c-.001-.169-.138-.306-.308-.306z" fill="#fff"/></svg>