<svg enable-background="new 0 0 23 18" viewBox="0 0 23 18" xmlns="http://www.w3.org/2000/svg"><path d="m18.66 15.673c.012-.134-.043-.226.092-.228.426 0-.018-.801.238-.319-.05-.099-.083-.206-.137-.304l-.061-.083-.176-.2c-.197-.172-.42-.312-.661-.413-1.373-.273-2.711-.699-3.988-1.271-.073 0 0 0 .176.165-.072-.052-.145-.083-.207-.134-.667-.467-1.253-1.04-1.736-1.695-.23-.32-.42-.667-.568-1.033-.127-.332-.207-.679-.238-1.033-.012-.323.021-.647.1-.961.026-.151.075-.297.145-.434.06-.137.129-.271.206-.4l.218-.362.134-.165c1.136.392 2.378.332 3.472-.165 1.273-.526 2.445-1.27 3.462-2.2 1.033-.8 1.766-1.374 2.676-2.067.278-.207.837-.63.826-.734s-.362-.258-.951-.444c-1.412-.529-2.874-.912-4.364-1.144-3.875-.341-5.973 1.116-6.469 3.358-.09.662-.034 1.336.165 1.974l-.082.083-.341.4c-.124.145-.217.32-.341.5s-.207.382-.32.579v.083c-.064-.121-.144-.232-.238-.331-.865-.861-2-1.398-3.214-1.519-1.256-.122-2.524-.032-3.75.269-.248.062-1.312.351-2.067.61-.382.134-.661.207-.661.341s.134.227.382.465c.423.4 1.147 1.033 1.932 1.881.867 1.117 1.981 2.019 3.255 2.635 1.375.676 3.027.42 4.133-.641v.171c.187.528.437 1.032.744 1.5.582.874 1.305 1.646 2.139 2.284.369.297.76.566 1.168.806.031.024.065.045.1.062h-.072c.3.16.539.414.682.723.052.245.048.688.048.489 1.759 1.327 4.029.237 4.149-1.098z"/><path d="m18.99 15.126c.09.179.168.363.246.547-.077-.205-.16-.384-.246-.547z"/></svg>