<svg enable-background="new 0 0 35 30" viewBox="0 0 35 30" xmlns="http://www.w3.org/2000/svg"><path d="m34.27 29.274c.385-.232.345-.973.385-.865-.007-.024-.012-.049-.018-.073-.025-.067-.078-.12-.145-.145v-.083l-.207-.331c-.174-.317-.371-.62-.589-.909-.33-.443-.704-.851-1.116-1.219-.506-.45-1.045-.861-1.612-1.23-1.209-.813-2.638-1.544-4.071-2.384-1.468-.832-2.822-1.85-4.03-3.028-1.166-1.202-2.11-2.601-2.79-4.132-.227-.506-.383-1.033-.558-1.519 1.146.598 2.454.808 3.73.6 1.875-.261 3.617-1.116 4.97-2.439 1.077-1.303 2.25-2.522 3.511-3.648.047-.037.071-.096.062-.155-.014-.058-.057-.105-.114-.124-3.72-1.033-6.685-2.222-8.886-1.571-1.732.416-3.185 1.588-3.958 3.193-.103.269-.186.546-.248.827-.106-.374-.248-.738-.424-1.085.142-.682.142-1.385 0-2.067-.806-3.834-5.27-6.479-9.362-6.84-3.1-.279-8.762.754-8.8 1.157 0 .124.31.351.713.7.971.878 2.842 2.521 4.133 3.937 1.4 1.632 3.055 3.028 4.9 4.133 1.979.923 4.217 1.135 6.334.6l.455-.176c.083.248.165.5.227.754s.145.661.217 1.033.2.775.3 1.168c.238.832.532 1.646.878 2.439.373.858.815 1.684 1.323 2.47.555.811 1.181 1.572 1.87 2.273 1.327 1.325 2.82 2.471 4.443 3.41 1.426.847 2.738 1.56 3.772 2.253l-.661-.382c.455.279 1.157.672 1.033 1.1-.072.258-.548.31-.94.31l.483.88c.137.274.129.788 1.409 1.148.572.189 2.933.289 3.381.02z"/></svg>