<svg enable-background="new 0 0 37 27" viewBox="0 0 37 27" xmlns="http://www.w3.org/2000/svg"><path d="m35.853 20.051-.087-.049c-1.104-.158-2.197-.379-3.276-.661-2.312-.526-4.538-1.375-6.613-2.521-5.663-3.1-10.085-3.678-15.882-1.2l-.651.258c-.513.146-1.039.239-1.571.279 0 0 2.066-1.323 3.1-2.139 4.005-3.509 6.674-8.295 7.553-13.547 0 0 .052-.424 0-.465s-.186.134-.3.289c-.799 1.158-1.691 2.25-2.666 3.265-.847.951-1.674 1.746-3.183 3.2-1.126 1.085-2.2 1.839-2.862 2.532-1.183 1.124-2.088 2.507-2.645 4.04-.289.754-.465 1.509-.713 2.015-.734 1.488-.92 1.736-1.178 2.263v.062c-.077.121-.16.238-.248.351-.16.236-.336.46-.527.672-.186.227-.382.434-.579.651-.194.213-.401.413-.62.6-.2.191-.41.37-.63.537-.207.151-.413.296-.62.434l-.289.176-.279.145-.465.207-.351.1h-.128c-.231.509-.112.901-.112 1.329.183 1.12.06 2.158 1.089 3.132.023-.431.08-.86.178-1.282.284-.658.755-1.219 1.354-1.612h-.062l.372-.258c.248-.186.485-.393.744-.61.253-.217.495-.448.723-.692l.682-.754c.206-.269.434-.527.62-.806s.393-.537.558-.806.248-.4.362-.61c-.005.055-.005.11 0 .165.153-.269.383-.485.661-.62.134-.049.273-.087.413-.114 1.068-.124 2.146-.124 3.214 0 .867.049 1.73.156 2.583.32 1.84.36 3.637.911 5.363 1.643 2.061.765 4.179 1.367 6.334 1.8 3.655.729 7.448.277 10.829-1.292.134-.052.393-.155.372-.227s-.123-.134-.567-.2z"/></svg>