<svg enable-background="new 0 0 25 9" viewBox="0 0 25 9" xmlns="http://www.w3.org/2000/svg"><path d="m.303 4.946c0 .056.078.112.392.4.067.085.095.193.078.3 0 .773-.011 1.893-.034 2.218-.045.482-.112.65-.47.739-.2.045-.269.123-.269.168 0 .078.112.123.28.123.246 0 .47-.034.84-.034.426 0 .84.022.885.022.146 0 .3-.034.3-.112s-.09-.134-.3-.2c-.358-.112-.4-.291-.4-.5 0-.851 0-2.262.022-2.554.001-.106.045-.208.123-.28.247-.222.568-.346.9-.347.317-.023.626.101.84.336.115.167.167.369.146.571v2.2c0 .4-.045.515-.426.6-.179.045-.224.123-.224.157s.034.134.291.134c.235 0 .56-.022.8-.022.258 0 .594.022.84.022.179 0 .269-.056.269-.134 0-.056-.112-.123-.235-.157-.381-.09-.437-.2-.47-.56-.022-.246 0-2.363 0-2.442.011-.113.045-.223.1-.323.224-.234.538-.36.862-.347.334-.035.661.115.851.392.134.226.197.488.179.75 0 .37.022 1.624.022 1.893 0 .392-.045.526-.4.638-.123.034-.246.078-.246.146s.067.146.28.146c.258 0 .426-.022.762-.022.28 0 .582.034.806.034s.314-.045.314-.123-.067-.112-.213-.157c-.4-.112-.47-.325-.482-.526 0-.918.022-1.7-.022-2.285-.001-.39-.132-.768-.371-1.075-.252-.259-.602-.397-.963-.381-.249.008-.494.07-.717.181-.279.139-.547.3-.8.482-.045.022-.067 0-.09-.045-.091-.154-.213-.288-.358-.392-.26-.167-.566-.246-.874-.224-.551.073-1.07.298-1.5.65-.045.045-.067-.034-.067-.067 0-.112.045-.426.045-.582-.028-.053-.077-.093-.134-.112-.022 0-.045.011-.09.045-.274.17-.559.323-.851.459-.12.063-.221.13-.221.197zm10.965-.593c-.294.013-.582.081-.851.2-.838.408-1.362 1.265-1.344 2.196-.112 1.113.7 2.107 1.813 2.219.068.007.135.01.203.01.649.013 1.261-.304 1.624-.843.045-.082.072-.173.078-.266 0-.056-.022-.134-.089-.134-.045 0-.1.067-.146.134-.248.299-.633.45-1.019.4-.491.001-.954-.225-1.256-.612-.266-.374-.414-.819-.424-1.277.001-.133.019-.265.056-.392.011-.034.056-.09.09-.09.515.011 2.43.011 2.554.011.107-.006.195-.085.213-.19.009-.355-.132-.696-.389-.941-.303-.278-.701-.43-1.113-.425zm-.112.291c.381.005.698.293.739.672 0 .224-.112.28-.381.28-.56.011-1.154.011-1.445 0-.022 0-.067-.067-.045-.123.163-.489.617-.821 1.132-.829zm2.867.235c0 .034.067.09.213.19.246.2.269.314.269.437 0 1.143-.024 2.117-.056 2.453-.034.4-.1.515-.47.627-.123.034-.235.09-.235.168 0 .1.123.146.291.146.19 0 .515-.034.93-.034.235 0 .549.011.683.011.157 0 .28-.056.28-.134s-.09-.134-.2-.168c-.358-.1-.4-.19-.414-.347-.014-.135-.014-2.543-.014-2.693.01-.099.049-.192.112-.269.273-.247.632-.376 1-.358.253.01.5.083.717.213.222.218.343.518.336.829 0 .325-.011 1.68-.034 2.05s-.078.459-.347.56c-.134.045-.258.112-.258.19s.157.134.258.134c.146 0 .493-.022.773-.022.314 0 .571.022.829.022.179 0 .336-.045.336-.123s-.067-.134-.28-.19c-.283-.074-.395-.22-.418-.388s-.033-1.826-.033-2.038c.024-.486-.114-.967-.392-1.366-.259-.286-.632-.442-1.018-.426-.546.068-1.064.281-1.5.616-.011 0-.067.022-.067-.034 0-.1.045-.37.045-.56 0-.045-.056-.168-.112-.168-.097.023-.188.065-.269.123-.239.133-.49.242-.75.325-.081.034-.205.146-.205.224zm8.3 3.562c-.274.029-.548-.051-.762-.224-.182-.157-.285-.387-.28-.628 0-.5.045-2.621.034-3 0-.067-.045-.168-.09-.168s-.874.123-1.187.123c-.134 0-.19.067-.19.1 0 .1.1.157.2.2.19.078.4.123.414.437.022.594.022 1.859.022 2.666.008.186.062.366.157.526.214.336.588.535.986.526.256.005.511-.041.75-.134.319-.169.627-.359.92-.57.022-.011.056.022.056.078-.011.19-.045.4-.045.47s.067.157.112.157c.132-.027.263-.06.392-.1.334-.096.675-.167 1.019-.213.057-.015.103-.057.123-.112-.011-.034-.09-.213-.134-.213-.134 0-.482.056-.56.056s-.134-.134-.134-.157c0-.918.09-3.4.112-3.718 0-.045-.022-.168-.078-.168-.091.001-.182.016-.269.045-.394.084-.797.126-1.2.123-.112 0-.258.056-.258.1 0 .09.146.157.224.179.1.022.347.09.515.134.093.054.161.143.19.246l-.02 2.578c-.033.102-.091.194-.168.269-.229.227-.53.366-.851.392z" fill="#fff"/></svg>