<svg enable-background="new 0 0 25 9" viewBox="0 0 25 9" xmlns="http://www.w3.org/2000/svg"><path d="m4.212 4.374c-.521.03-1.026.192-1.467.47-.668.42-1.077 1.15-1.087 1.939.005.459.124.909.347 1.31.368.558.99.896 1.658.9.61-.004 1.193-.257 1.613-.699.09-.084.143-.201.146-.325 0-.056-.09-.09-.213 0-.287.219-.639.337-1 .336-.568.012-1.102-.272-1.409-.75-.2-.339-.301-.727-.291-1.12-.007-.473.16-.931.47-1.288.175-.209.423-.345.694-.381.381 0 .571.168.941.437.13.1.278.172.437.213.045 0 .37-.269.37-.448-.011-.13-.071-.25-.168-.336-.317-.179-.677-.268-1.041-.258zm2.386-2.9c0 .045.034.078.224.213.258.157.258.224.269.314.034.3.034 1.512.034 2.341 0 1.77-.034 2.946-.067 3.4-.045.56-.067.762-.582.874-.123.022-.246.078-.246.157s.09.123.314.123.728-.034.986-.034c.2 0 .683.034.952.034.134 0 .291-.045.291-.123s-.09-.123-.258-.168c-.482-.134-.526-.269-.571-.493-.056-.3-.034-2.442-.034-4.077 0-1.5.067-2.766.1-3.046 0-.045-.067-.134-.1-.112-.368.186-.755.332-1.154.437-.125.036-.159.115-.158.16zm5.521 2.867c-.607-.002-1.195.217-1.653.616-.521.427-.813 1.073-.789 1.747.037.659.335 1.276.829 1.714.417.356.942.561 1.49.582.5.01.989-.147 1.389-.448.61-.453.971-1.166.974-1.926.021-1.241-.968-2.264-2.209-2.285-.01 0-.021 0-.031 0zm-.213.336c.358.021.694.177.941.437.386.485.585 1.093.56 1.713-.01.533-.185 1.049-.5 1.478-.17.208-.416.341-.683.37-.702-.059-1.289-.559-1.458-1.243-.095-.325-.14-.662-.134-1-.005-.53.192-1.042.549-1.434.197-.188.454-.301.725-.321zm5.331-.336c-.316-.008-.628.073-.9.235-.372.2-.606.585-.612 1.007.024.471.286.898.695 1.132.347.224.414.28.683.47.295.136.488.426.5.75.003.232-.09.455-.258.616-.13.098-.286.156-.448.168-.4 0-.706-.224-1.019-.8-.067-.123-.146-.258-.235-.258-.067 0-.09.112-.09.235.012.291.068.578.168.851.336.171.709.256 1.086.246.331-.003.655-.092.941-.258.277-.328.497-.699.65-1.1-.145-.499-.451-.937-.87-1.245-.75-.414-1.108-.707-1.108-1.086.011-.37.302-.671.672-.694.37 0 .65.224.9.75.056.123.123.19.168.19.09 0 .134-.1.134-.2 0-.078-.034-.459-.034-.661-.008-.062-.04-.119-.09-.157-.115-.052-.235-.093-.358-.123-.188-.045-.381-.068-.575-.068zm4.536.011c-.294.013-.582.081-.851.2-.839.408-1.364 1.267-1.344 2.2-.112 1.113.7 2.107 1.813 2.219.068.007.135.01.203.01.649.014 1.26-.303 1.624-.84.046-.083.072-.175.078-.269 0-.056-.022-.134-.09-.134-.045 0-.1.067-.146.134-.248.299-.633.45-1.019.4-.491-.001-.953-.228-1.254-.616-.264-.373-.411-.816-.421-1.273-.002-.135.016-.27.052-.4.011-.034.056-.09.09-.09.515.011 2.43.011 2.554.011.107-.006.195-.085.213-.19.008-.355-.134-.697-.392-.941-.303-.277-.7-.427-1.11-.421zm-.107.291c.381.005.698.293.739.672 0 .224-.112.28-.381.28-.56.011-1.154.011-1.445 0-.022 0-.067-.067-.045-.123.163-.489.617-.822 1.132-.829z" fill="#0d401d"/></svg>