<svg enable-background="new 0 0 134 141" viewBox="0 0 134 141" xmlns="http://www.w3.org/2000/svg"><path d="m82.4 139.7c-.2-.8-.6-2.6-.9-3.7-.7-2.6-.8-2.9-.9-3.2-.1-.4-.3-.5-.4-.5-.2.1-.5.2-.7.3-.1 0-.2 0-.2-.2s.1-.3.2-.4c.9-.4 1.4-.8 1.6-.8.1 0 .2 0 .3.1s.1.4.2.5h.1c.4-.5.9-.8 1.4-1.1 1.3-.4 2.7.4 3.1 1.7v.2c.3 1.1 0 2.2-.8 2.9-.5.5-1.1.8-1.7 1-.3.1-.5.1-.8.1-.1 0-.1.1-.1.2s.5 1.7.5 2c.2.4.2.4.8.4.1 0 .3.1.3.2 0 0 0 .1-.2.2-.5.3-1 .5-1.5.7 0 .2-.1 0-.3-.6zm.4-8c-.4.1-.7.3-.9.6 0 .1-.1.2 0 .4.2.9.4 1.6.6 2.5.2.7.8 1.1 1.5.9.1 0 .2-.1.3-.1.3-.1.6-.3.8-.6.3-.6.4-1.3.2-1.9-.2-1-1-1.7-2-1.8-.2-.1-.4-.1-.5 0zm-18.8 6.8c0-.1.1-.2.3-.3.3-.1.5-.3.6-.5.3-.5.9-2.1 1.3-3.2.2-.6.4-1.3.5-1.5 0-.1.1-.1.2-.2.1 0 .3.1.4.2.1.3.3.6.4 1s.7 1.7.9 2.1l.1.1c.3-.7.8-1.7 1.1-2.6.2-.6.4-.7.5-.7s.2.1.3.2c.1.3.2.7.3.9.4 1.1 1.2 2.9 1.4 3.4.1.3.4.6.7.7.2.1.4.2.4.3s-.2.2-.4.2-.4 0-.7 0-.5 0-.7 0-.5 0-.7 0-.3-.1-.3-.2.1-.2.3-.3.4-.2.2-.5c-.2-.5-.7-1.8-1.2-2.9 0-.1-.1-.1-.1 0-.4.9-.6 1.4-.8 2.1 0 .1-.1.3-.1.4 0 .2.1.4.2.6.1.3.3.3.5.4s.4.2.4.3-.2.2-.4.2-.4 0-.6 0-.4 0-.5 0c-.3 0-.6.1-.8.1s-.3-.1-.3-.2.1-.2.4-.3c.2-.1.3-.2.3-.3 0-.2-.1-.3-.1-.4-.1-.2-.8-1.9-1-2.6 0-.1-.1-.1-.2 0-.4 1-.7 2-1 3 0 .1.1.3.5.4.2.1.3.1.3.3s-.2.2-.3.2-.2 0-.3 0-.2 0-.4 0c-.3 0-.8.1-1 .1-.5-.3-.6-.4-.6-.5zm-2.6.1s-.2-.1-.2-.2.1-.5.1-.6 0-.1-.1-.1c-.6.4-1.3.5-2 .5-.5 0-1-.3-1.2-.8-.2-.6-.3-1.2-.2-1.8.1-.7.1-1.4.2-2 0-.4-.1-.5-.3-.7-.3-.2-.4-.3-.4-.4s.2-.2.4-.2.6.1 1 .1.7 0 .9 0 .4.1.3.3c0 .1-.1.2-.3.3-.4.1-.5.2-.5.5-.1.7-.1 1.2-.2 1.8-.1.5-.1 1.1.1 1.6.2.3.6.5.9.5.4.1.8 0 1.2-.2.1-.1.2-.2.2-.3s.3-2.8.3-3.1c0-.2.1-.4-.5-.6-.2-.1-.3-.3-.3-.4s.2-.2.4-.2c.4 0 .8.1 1.2.2.4 0 .9 0 1.1.1.2 0 .4.1.4.2s-.2.2-.3.3c-.6.1-.7.3-.8.6-.1.6-.3 1.7-.4 3 0 .2.1.4.4.6.2.1.2.2.2.2 0 .1-.1.3-.3.3-.3.1-.6.2-.9.3-.2.1-.3.2-.4.2zm12.2-3c-.1-.8.1-1.6.6-2.3.5-.6 1.2-1 1.9-1.1.8-.1 1.6.1 2.3.6.6.5 1 1.1 1.1 1.9.1.9-.2 1.7-.8 2.4-.6.6-1.4 1-2.2 1-1.5-.1-2.6-1.1-2.9-2.5zm2.4-2.8c-.4.1-.7.3-.9.7-.2.6-.3 1.2-.1 1.9.2 1.1.9 2.3 2.1 2.1.3-.1.6-.2.9-.5.3-.6.4-1.2.3-1.9-.1-.8-.5-1.5-1.1-2-.3-.1-.6-.2-.9-.2-.2-.2-.3-.2-.3-.1zm-25.1 4.9c-.1 0-.1-.2-.1-.2 0-.1.2-.6.2-.6 0-.1 0-.2-.1-.2s-1.3-.3-1.6-.3c-.1 0-.1-.2-.1-.3s.1-.3.1-.4c.1-.1.2-.1.3-.1.5.1 1.2.3 1.5.3 0 0 .1 0 .1-.2l.6-2.4c.2-.6.2-.8 0-1s-.4-.4-.6-.5c-.2 0-.4 0-.6 0h-.1c-.1 0-.1 0-.2 0s-.1-.1-.1-.2.2-.3.4-.4c.5-.2 1-.2 1.4-.1.5.1.8.5 1 .9.1.3.1.7 0 1-.2.9-.5 1.7-.8 3 0 .1 0 .2.4.3.2.1.3.3.3.5 0 .1-.2.1-.3.2-.4.1-.8.3-1.1.6-.2 0-.4 0-.6.1zm41.8-.9c-.4-1-1-2.6-1.5-3.8-.3-.8-1.1-2.8-1.3-3.1-.2-.5-.3-.5-1-.5-.2 0-.3-.1-.4-.2 0-.1 0-.2.3-.3.4-.1.9-.3 1.2-.4.5-.2.7-.4 1-.5.2-.1.4-.1.4 0s0 .3-.2.4c-.5.4-.4.6-.4.9.1.2.3 1 1.2 3.2.7 1.7 1.1 2.9 1.3 3.1.1.1.3.2.5.2.3 0 .4.1.4.2s-.1.2-.1.3c-.3.3-.7.7-1 .9-.1.1-.2.1-.2.2.1-.1 0-.2-.2-.6zm3.8-1.5c-.5-1-1.1-2.6-1.7-3.7-.3-.7-1.3-2.7-1.4-3-.3-.5-.3-.5-1-.4-.2 0-.3-.1-.4-.1 0-.1 0-.2.3-.3.3-.2.9-.4 1.2-.5.5-.2.7-.4 1-.5.2-.1.4-.1.4 0s0 .3-.2.4c-.5.5-.4.6-.3.9.1.2.4 1 1.4 3.1.8 1.7 1.3 2.8 1.4 3 .1.1.3.2.6.1.3 0 .4 0 .4.1s-.1.3-.1.3c-.3.3-.7.7-.9.9-.1.1-.2.1-.2.2-.3-.1-.4-.2-.5-.5zm-51.1-.1c-1.5-.5-2.3-2.2-1.8-3.7.3-.7.8-1.3 1.5-1.7.7-.3 1.5-.4 2.2-.1.8.3 1.4.8 1.8 1.5.3.7.4 1.5.1 2.2-.3.8-.9 1.5-1.7 1.8-.4.1-.7.2-1.1.2-.4-.1-.7-.1-1-.2zm.3-4.9c-.5.4-.8 1-.9 1.6-.4 1.1-.2 2.4.9 2.8.3.1.7.1 1-.1.5-.4.9-.9 1.1-1.5.3-.8.3-1.6-.1-2.3-.2-.3-.5-.6-.9-.7-.1 0-.2-.1-.4-.1s-.4.1-.7.3zm-9 1.3c-.3-.1-.5-.3-.7-.5-.1-.1-.2-.2-.3-.3s-.1-.2-.1-.3c.1-.2.2-.5.3-.7 0-.1.3-.3.4-.2 0 0 .1.2.1.5 0 .5.2.9.6 1.2.4.2.9 0 1.1-.4.3-.6-.2-1-.6-1.7s-.8-1.3-.5-2c.3-.6.9-.9 1.6-.9.4 0 .8.1 1.2.3.7.4 1 .7 1.1.9 0 .3 0 .7-.2 1s-.3.4-.4.3c-.1 0-.1-.2-.2-.5 0-.5-.3-1-.7-1.3s-.9-.1-1.2.3v.1c-.1.3-.1.6.1.9.2.4.4.6.7 1 .4.5.5 1.2.2 1.8-.2.5-.7.8-1.2.8-.1 0-.1 0-.2 0-.4-.1-.7-.2-1.1-.3zm59.8-2.7c-.4-.7-.5-1.6-.3-2.3s.7-1.3 1.4-1.7 1.5-.5 2.3-.3c.7.2 1.3.7 1.7 1.4.4.8.5 1.7.2 2.5-.3.6-.7 1.2-1.3 1.5-.4.2-.9.4-1.4.4-1.2-.1-2.1-.6-2.6-1.5zm1.1-3.5c-.3.2-.6.6-.6 1 0 .6.2 1.2.6 1.8.6 1 1.7 1.8 2.7 1.2.3-.2.5-.5.6-.8.1-.6-.1-1.3-.4-1.8-.4-.7-1-1.3-1.8-1.5-.1 0-.2 0-.3 0-.2-.1-.5 0-.8.1zm-65.4 4.8v-.2c.1-.1.3-.5.3-.6 0 0 .1-.1 0-.2s-1.2-.6-1.5-.8c-.1 0-.1-.2 0-.3s.1-.3.2-.4.2-.1.4 0c.4.3 1.1.6 1.3.8 0 0 .1 0 .2-.1l1.3-2.1c.3-.5.4-.7.3-1s-.3-.5-.5-.6-.4-.2-.6-.2c-.1 0-.2 0-.3-.1 0 0-.1-.1 0-.2.1-.2.3-.2.5-.2.5 0 1 .1 1.4.3s.7.7.7 1.1c0 .3-.1.7-.3.9-.5.8-1 1.5-1.6 2.6-.1.1 0 .2.3.4.1.1.2.4.2.5 0 0-.2.1-.4.1-.4 0-.8.1-1.3.2-.1 0-.3.1-.4.1 0 0-.1 0-.2 0zm71.2-2.5c-.1-.3-.1-.7 0-1 0-.1.1-.2.1-.2.1-.1.2-.1.3-.1.2 0 .4 0 .5-.1.2-.1.3-.4.3-.6 0-.1 0-.2-.1-.3s-1.2-1.7-1.5-2.1c-.4-.5-.6-.6-1.2-.3-.3.1-.5.1-.6 0s0-.3.2-.4c.3-.2 1-.6 1.3-.8.4-.3.6-.4.9-.7.2-.1.4-.1.4 0 .1.1 0 .3-.1.4-.3.5-.2.6-.1.9.3.5 1.3 1.9 1.7 2.5 0 .1.1.1.5.1.2 0 .4 0 .4.1.1.1.1.2 0 .3-.1.2-.4.6-.5.9-.1.1-.1.2-.2.3 0 0-.2 0-.2-.1-.1-.2-.3-.4-.4-.5h-.1c0 .6-.3 1.1-.8 1.5-.2.1-.4.2-.6.2 0 .1-.1.1-.2 0zm-73.9-1c-.6 0-1.2-.1-1.7-.4-.4-.3-.7-.7-.7-1.1s.1-.9.3-1.2c.3-.4.7-.9 1.5-2.1.3-.4.2-.7 0-.8-.1-.1-.3-.1-.4-.2-.1 0 0-.2 0-.2.1-.1.2-.2.3-.2.4-.1.8-.1 1.1.2.4.3.5.8.3 1.2 0 0 0 .1.1.1.4 0 .8 0 1.2.1.3 0 .5.1.7.2.6.5.6 1.4.1 2.1-.1.2-.3.3-.5.4s-.4.1-.7 0c-.7-.3-1.5-.6-2.3-.8-.1 0-.2 0-.2.1-.2.2-.2.3-.3.4s-.1.2-.2.3c-.1.5.1 1 .5 1.3.2.1.4.2.6.2.1 0 .2-.2.5-.5.1-.1.2-.2.3-.2s.3.1.4.1c.2.1.3.2.4.4v.3c-.3.3-.8.4-1.3.3zm.5-4.3c-.1.1-.2.2-.3.3l-.5.7v.1c.5.2.9.4 1.4.5.4.1.6.1.8-.2.2-.4.1-.9-.3-1.2-.3-.2-.6-.2-.9-.2 0 0-.1 0-.2 0zm77.8 2.2c-.1 0-.2-.1-.3-.2-.2-.3-.3-.7-.1-.8s.4-.1.6 0c.5.1 1-.1 1.3-.4.3-.2.4-.6.4-.9 0-.6-.3-1.1-.6-1.5-.7-.9-1.9-1.1-2.9-.5 0 0 0 0-.1.1-.4.3-.7.8-.7 1.3 0 .1-.1.1-.2.1 0 0 0 0-.1 0-.1-.1-.2-.3-.2-.5 0-.8.4-1.5 1-2 .5-.4 1.2-.6 1.9-.6.7.1 1.4.5 1.9 1.1.7.8.9 1.9.5 2.9-.2.6-.6 1.2-1.1 1.6-.2.1-.7.3-1.3.3.1 0 .1 0 0 0zm-83-1.2c-.2 0-.7-.2-1-.2-.1 0-.3-.1-.4-.2v-.2c.1-.2.3-.4.4-.5 0 0 0-.1-.1-.1-.6.1-1.2 0-1.6-.3-.3-.3-.4-.7-.3-.8.3-.2.6-.3 1-.3.1 0 .2 0 .2.1.1.1.1.2.2.3 0 .2.1.3.3.4.2.2.4.2.7.2.1 0 .2-.1.3-.2s1.4-1.6 1.6-2c.4-.5.4-.7 0-1.2-.2-.3-.3-.5-.2-.6s.3-.1.4 0c.3.3.8.8 1.1 1 .4.3.6.4.9.7.2.2.2.4.1.4-.1.1-.3.1-.4 0-.5-.2-.7-.1-.9.2-.4.5-1.5 1.7-2 2.3-.1.1-.1.1 0 .5 0 .2.1.4 0 .4-.1.1-.2.1-.2.1-.1 0-.1 0-.1 0zm89.7-1c-.1-.1-.6-.5-.7-.7-.2-.2-.2-.4-.1-.5s.3 0 .4.1c.7.5 1.6.4 2.1-.2.5-.5.5-1.4 0-1.9-.6-.6-1.1-.6-2.4-.3-1.5.4-2.6.5-3.5-.4-.5-.5-.7-1.3-.5-2 .2-.6.5-1.2 1-1.7s1.1-.8 1.8-1c.1 0 .2 0 .3.1.4.2.7.4 1 .7.2.2.2.4.1.5s-.3.1-.5 0c-.9-.4-1.9-.2-2.6.4-.5.5-.5 1.4 0 1.9.5.5 1 .5 2.7.1 1.1-.4 2.2-.2 3.1.6.5.6.7 1.3.5 2.1-.2.6-.5 1.1-.9 1.5s-.9.7-1.4.9c0 0 0 0-.1 0s-.2-.1-.3-.2zm-93.8-2.2c-.4-.1-.8-.1-1.3-.1-.2 0-.4 0-.6-.1 0 0 0-.2.1-.2.1-.1.4-.4.5-.5 0 0 .1-.1 0-.2s-1-.9-1.2-1.1c-.1-.1 0-.2 0-.3.1-.1.2-.2.3-.3s.2 0 .3.1c.4.4.9.8 1.1 1.1 0 0 .1 0 .2-.1l1.8-1.7c.4-.4.5-.6.6-.9 0-.3-.1-.5-.3-.7-.2-.1-.3-.3-.5-.3-.1 0-.2-.1-.3-.2 0 0 0-.2.1-.2.2-.1.4-.2.6-.1.5.1.9.3 1.3.7.3.3.5.8.4 1.3-.1.3-.3.6-.5.8-.7.7-1.3 1.2-2.2 2.2-.1.1-.1.1.1.4.1.2.1.4 0 .6h-.1c-.1-.2-.3-.2-.4-.2zm.5-93c-.4-.2-.7-.4-1-.7-.2-.3-.2-.4-.1-.5s.3-.1.5 0c.9.4 1.9.2 2.6-.4.5-.5.5-1.4 0-1.9-.5-.5-1-.5-2.7-.1-1.1.4-2.2.2-3.1-.6-.5-.6-.7-1.3-.5-2.1.2-.6.5-1.1.9-1.5s.9-.7 1.4-.9c.1 0 .3 0 .4.1s.6.5.7.7c.2.2.2.4.1.5s-.3 0-.4-.1c-.7-.5-1.6-.4-2.1.2-.5.5-.5 1.4 0 1.9.6.6 1.1.6 2.4.3 1.5-.4 2.6-.5 3.5.4.5.5.7 1.3.5 2-.2.6-.5 1.2-1 1.7s-1.1.8-1.8 1h-.1s-.1 0-.2 0zm90.8-.5c-.5-.1-.9-.3-1.3-.7-.3-.3-.5-.8-.4-1.3.1-.3.3-.6.5-.8.7-.7 1.3-1.2 2.2-2.2.1-.1.1-.1-.2-.5-.1-.2-.1-.4 0-.6h.4c.4.1.8.1 1.3.1.2 0 .4 0 .6.1 0 0 0 .2-.1.2-.1.1-.4.4-.5.5 0 0-.1.1 0 .2s1 .9 1.2 1.1c.1.1 0 .2 0 .3-.1.1-.2.2-.3.3s-.2 0-.3-.1c-.4-.4-.9-.8-1.1-1.1 0 0-.1 0-.2.1l-1.8 1.7c-.4.4-.6.6-.6.9s.1.5.3.7c.2.1.3.3.5.4.1 0 .2.1.3.1 0 0 0 .2-.1.2-.1.1-.2.1-.4.1.1.4 0 .4 0 .3zm-4.2-3.5c-.3-.3-.8-.8-1.1-1-.4-.3-.6-.4-.9-.7-.2-.2-.2-.4-.1-.4.1-.1.3-.1.4 0 .5.2.7.1.9-.2.4-.5 1.5-1.7 2-2.3.1-.1.1-.1 0-.5 0-.2-.1-.4 0-.4.1-.1.2-.1.3-.1.2 0 .7.2 1 .2.1 0 .3.1.4.1v.2c-.1.2-.3.4-.4.5 0 0 0 .1.1.1.6-.1 1.2 0 1.6.3.3.3.4.7.3.8-.3.2-.6.3-1 .3-.1 0-.2 0-.2-.1-.1-.1-.1-.2-.2-.3 0-.2-.1-.3-.3-.4-.2-.2-.4-.2-.7-.2-.1 0-.2.1-.3.2s-1.4 1.6-1.6 2c-.4.5-.4.7 0 1.2.2.3.3.5.2.6l-.1.1c-.2.1-.3.1-.3 0zm-81.6-.7c-.7-.1-1.4-.5-1.9-1.1-.7-.8-.9-1.9-.5-2.9.2-.6.6-1.2 1.1-1.6.4-.4.8-.6 1.3-.6.1 0 .2.1.3.2.2.3.3.7.1.8s-.4.1-.6 0c-.5-.1-1 .1-1.3.4-.3.2-.4.6-.4.9 0 .6.3 1.1.6 1.5.7.9 1.9 1.1 2.9.5 0 0 0 0 .1-.1.4-.3.7-.8.7-1.3 0-.1.1-.1.2-.1h.1c.1.1.2.3.2.5 0 .8-.4 1.5-1 2-.5.4-1.1.6-1.7.6-.1.3-.2.3-.2.3zm77.9-2.1c-.4-.3-.5-.8-.3-1.2 0 0 0-.1-.1-.1-.4 0-.8 0-1.2-.1-.3 0-.5-.1-.7-.2-.6-.5-.6-1.4-.1-2.1.1-.2.3-.3.5-.4s.4-.1.7 0c.7.3 1.5.6 2.3.8.1 0 .2 0 .2-.1l.3-.4c.1-.1.1-.2.2-.3.1-.5-.1-1-.5-1.3-.2-.1-.4-.2-.6-.2-.1 0-.2.1-.5.5-.1.1-.2.2-.3.2s-.3-.1-.4-.1c-.2-.1-.3-.2-.4-.4 0-.1 0-.2 0-.3.4-.3.9-.4 1.4-.3.6 0 1.2.1 1.7.4.4.3.7.7.7 1.1s-.1.9-.3 1.2c-.3.4-.7.9-1.5 2.1-.3.4-.2.7 0 .8.1.1.3.1.4.2.1 0 0 .2 0 .2-.1.1-.2.2-.3.2s-.3.1-.4.1c-.4 0-.6-.1-.8-.3zm-1.5-3.2c-.2.4-.1.9.3 1.2.3.2.7.3 1.1.2.1-.1.2-.2.3-.3l.5-.7v-.1c-.5-.2-.9-.4-1.4-.5-.1 0-.2 0-.3-.1-.2 0-.4.1-.5.3zm-72.7 2.7c-.1-.1 0-.3.1-.4.3-.5.2-.6.1-.9-.3-.5-1.3-1.9-1.7-2.5 0-.1-.1-.1-.5-.1-.2 0-.4 0-.4-.1-.1-.1-.1-.2 0-.3.1-.2.4-.6.5-.9.1-.1.1-.2.2-.3 0 0 .2 0 .2.1.1.1.3.4.4.5h.1c0-.6.3-1.1.8-1.5.3-.2.8-.2.9-.1.1.3.1.7 0 1 0 .1-.1.2-.1.2-.1.1-.2.1-.3.1-.2 0-.4 0-.5.1-.2.1-.3.4-.3.6 0 .1 0 .2.1.3s1.2 1.7 1.5 2.1c.4.5.6.6 1.2.3.3-.1.5-.1.6 0s0 .3-.2.4c-.3.2-1 .6-1.3.8-.4.3-.6.4-.9.7-.1 0-.2 0-.3 0s-.1 0-.2-.1zm68.7-3.1c-.4-.3-.7-.7-.7-1.1 0-.3.1-.7.3-.9.5-.8 1-1.5 1.6-2.6.1-.1 0-.2-.3-.4-.1-.1-.2-.3-.2-.5 0 0 .2-.1.4-.1.4 0 .8-.1 1.3-.2.2-.1.4-.1.6 0v.2c-.1.1-.3.5-.3.6 0 0-.1.1 0 .2s1.2.6 1.5.8c.1 0 .1.2 0 .3s-.1.3-.2.4-.2.1-.4 0c-.4-.3-1.1-.6-1.3-.8 0 0-.1 0-.2.1l-1.3 2.1c-.3.5-.4.7-.3 1s.3.5.5.6.4.2.6.2c.1 0 .2 0 .3.1 0 0 .1.1 0 .2-.1.2-.3.2-.5.2-.1 0-.1 0-.2 0-.4-.1-.8-.2-1.2-.4zm-64.5-.4c-.7-.2-1.3-.7-1.7-1.4-.4-.8-.5-1.7-.2-2.5.3-.6.7-1.2 1.3-1.5 1.4-.8 3.2-.3 4 1.2.4.7.5 1.5.2 2.2-.2.7-.7 1.3-1.4 1.7-.5.3-1 .4-1.5.4-.1.1-.4 0-.7-.1zm-.4-4.8c-.3.2-.5.5-.6.8-.1.6.1 1.3.4 1.8.4.7 1 1.3 1.8 1.5.4.1.8 0 1.1-.2s.6-.6.6-1c0-.6-.2-1.2-.6-1.8-.4-.8-1.1-1.3-2-1.4-.2.2-.5.2-.7.3zm61.7 3.1c-.4 0-.8-.1-1.2-.3-.7-.4-1-.7-1.1-.9 0-.3 0-.7.2-1s.3-.4.4-.3c.1 0 .1.2.2.5 0 .5.3 1 .7 1.3s.9.1 1.2-.3c0 0 0 0 0-.1.1-.3.1-.6-.1-.9-.2-.4-.4-.6-.7-1-.4-.5-.5-1.2-.2-1.8.2-.5.7-.8 1.2-.8.4 0 .8 0 1.2.2.3.1.5.3.7.5.1.1.2.2.3.3s.1.2.1.3c-.1.2-.2.5-.3.7 0 .1-.3.3-.4.2 0 0-.1-.2-.1-.5 0-.5-.2-.9-.6-1.2-.4-.2-.9 0-1.1.4-.3.6.2 1 .6 1.7s.8 1.3.5 2c-.2.7-.8 1-1.5 1zm-56.3-.3c-.1-.1 0-.3.2-.4.5-.5.4-.6.3-.9-.1-.2-.4-1-1.4-3.1-.8-1.7-1.3-2.8-1.4-3-.1-.1-.3-.2-.5-.2-.3 0-.4 0-.4-.1s.1-.3.1-.3c.3-.3.7-.7.9-.9.1-.1.2-.1.2-.2.1 0 .2.1.4.5.5 1 1.1 2.6 1.7 3.7.3.7 1.3 2.7 1.4 3 .3.5.3.5 1 .4.2 0 .3.1.4.1 0 .1 0 .2-.3.3-.3.2-.9.4-1.2.5-.5.2-.7.4-1 .5-.1 0-.2.1-.3.1 0 .1 0 .1-.1 0zm3.3-1.5c0-.1 0-.3.2-.4.5-.4.4-.6.4-.9-.1-.2-.3-1-1.2-3.2-.7-1.7-1.1-2.9-1.3-3.1-.1-.1-.3-.2-.5-.2-.3 0-.4-.1-.4-.2s.1-.3.1-.3c.3-.3.7-.7 1-.9.1-.1.2-.1.2-.2.1 0 .2.1.4.5.4 1 1 2.6 1.5 3.8.2.9 1.1 2.9 1.2 3.2.2.5.3.5 1 .5.2 0 .3.1.4.2 0 .1 0 .2-.3.3-.4.1-.9.3-1.2.4-.5.2-.7.4-1 .5-.1 0-.2.1-.3.1s-.2 0-.2-.1zm44.3-1.5c-.8-.3-1.4-.8-1.8-1.5-.3-.7-.4-1.5-.1-2.2.3-.8.9-1.5 1.7-1.8.7-.2 1.4-.3 2-.1 1.7.6 2.5 2.2 2 3.8-.3.7-.8 1.3-1.5 1.7-.4.2-.8.3-1.3.3-.3-.1-.6-.1-1-.2zm.6-5c-.5.4-.9.9-1.1 1.5-.3.8-.3 1.6.1 2.3.2.3.5.5.9.7.4.1.8 0 1.2-.2.5-.4.8-1 .9-1.6.4-1.1.2-2.4-.9-2.8-.1 0-.3-.1-.4-.1-.3.1-.5.1-.7.2zm-39.6 1.9c-.3-1.1 0-2.2.8-2.9.5-.5 1.1-.8 1.7-1 .3-.1.5-.1.8-.1.1 0 .1-.1.1-.2s-.5-1.7-.5-2c-.2-.4-.2-.4-.8-.4-.1 0-.3-.1-.3-.2 0 0 0-.1.2-.2.5-.3 1-.5 1.5-.7.1 0 .2.2.4.8.2.8.6 2.6.9 3.7.7 2.6.8 2.9.9 3.2.1.4.3.5.4.5.2-.1.5-.2.7-.3.1 0 .2 0 .2.2s-.1.3-.2.4c-.9.4-1.4.8-1.6.8-.1 0-.2 0-.3-.1s-.1-.4-.2-.5h-.1c-.4.5-.9.8-1.4 1.1-.2.1-.5.1-.7.1-1.2-.2-2.2-1-2.5-2.2zm2.1-3.2c-.3.1-.6.3-.8.6-.3.6-.4 1.3-.2 1.9.2 1.1 1.3 1.9 2.4 1.8.4-.1.7-.3.9-.6 0-.1.1-.2 0-.4-.2-.9-.4-1.6-.6-2.5-.1-.2-.1-.3-.2-.5-.3-.2-.7-.4-1-.4-.2.1-.3.1-.5.1zm32.1 4.9c-.5-.1-.8-.5-1-.9-.1-.3-.1-.7 0-1 .2-.9.5-1.7.8-3 0-.1 0-.2-.4-.3-.1-.1-.3-.3-.3-.5 0-.1.2-.1.3-.2.4-.1.8-.3 1.1-.6.2-.1.4-.2.6-.2.1 0 .1.2.1.2 0 .1-.2.6-.2.6 0 .1 0 .2.1.2s1.3.3 1.6.3c.1 0 .1.2.1.3s-.1.3-.1.4c-.1.1-.2.1-.3.1-.5-.1-1.2-.3-1.5-.3 0 0-.1 0-.1.2l-.6 2.4c-.2.6-.2.8 0 1s.4.4.6.5h.6.1.2s.1.1.1.2-.2.3-.4.4c-.3.1-.5.2-.8.2-.2 0-.4 0-.6 0zm-26.3-1.7c-.6-.5-1-1.1-1.1-1.9-.1-.9.2-1.7.8-2.4.5-.5 1.1-.8 1.8-1 1.6-.2 3.1.9 3.3 2.5.1.8-.1 1.6-.6 2.2s-1.2 1-1.9 1.1c-.1 0-.3 0-.4 0-.7.1-1.3-.1-1.9-.5zm1.4-4.7c-.3.1-.6.2-.9.5-.3.6-.4 1.2-.3 1.9.1.8.5 1.5 1.1 2 .3.2.7.3 1.1.2s.7-.3.9-.7c.2-.6.3-1.2.1-1.9-.2-1.1-.8-2.1-1.9-2.1 0 .1 0 .1-.1.1zm19.3 5.1c-.2 0-.6-.1-1-.1s-.7 0-.9 0-.4-.1-.3-.3c0-.1.1-.2.3-.3.4-.1.5-.2.5-.5.1-.7.1-1.2.2-1.8s.1-1.2-.1-1.7c-.2-.3-.6-.5-.9-.5-.4-.1-.8 0-1.2.2-.1.1-.2.2-.2.3s-.3 2.8-.3 3.1c0 .2-.1.4.5.6.2.1.3.3.3.4s-.2.2-.4.2c-.4 0-.8-.1-1.2-.2-.4 0-.9 0-1.1-.1-.2 0-.4-.1-.4-.2s.2-.2.3-.3c.6-.1.7-.3.8-.6.1-.6.3-1.7.4-3 0-.2-.1-.4-.4-.6-.1-.1-.2-.1-.2-.2s.1-.3.3-.3c.3-.1.6-.2.9-.3.1 0 .2-.1.4-.1 0 0 .2.1.2.2s-.1.5-.1.6 0 .1.1 0c.6-.4 1.3-.5 2-.5.5 0 1 .3 1.2.8.2.6.3 1.2.2 1.8-.1.7-.1 1.4-.2 2 0 .4.1.5.3.7.3.2.4.3.4.4 0 .2-.2.3-.4.3zm-12.9-.7c-.1-.3-.2-.7-.3-.9-.4-1.1-1.2-2.9-1.4-3.4-.1-.3-.4-.6-.7-.7-.2-.1-.4-.2-.4-.3s.2-.2.4-.2.4 0 .7 0 .5 0 .6 0h.7s.3.1.3.2 0 .2-.3.3c-.2.1-.4.2-.2.5.2.5.7 1.8 1.2 2.9 0 .1.1.1.1 0 .4-.8.6-1.4.9-2 0-.1.1-.3.1-.4 0-.2-.1-.4-.2-.6-.1-.3-.3-.4-.5-.4-.2-.1-.4-.2-.4-.3s.2-.2.4-.2h.6s.4 0 .5 0c.3 0 .6-.1.8-.1s.3.1.3.2-.1.2-.4.3c-.2.1-.2.3-.2.3 0 .2.1.3.1.4.1.2.8 1.9 1 2.6 0 .1.1.1.2 0 .4-1 .7-2 1-3 0-.1-.1-.3-.5-.4-.2-.1-.3-.1-.3-.3s.2-.2.3-.2h.3.4c.3 0 .8-.1 1-.1.4 0 .4.1.4.2s-.1.2-.3.3c-.3.1-.5.3-.6.5-.3.5-.9 2.1-1.3 3.2-.2.6-.4 1.3-.5 1.5 0 .1-.1.1-.2.2-.1 0-.3-.1-.4-.2-.1-.3-.3-.6-.4-1s-.7-1.7-.9-2.1l-.1-.1c-.3.7-.8 1.7-1.1 2.6-.2.6-.4.7-.5.7 0 .2-.1.1-.2 0z" fill="#fff"/><g fill="none" stroke="#fff" stroke-miterlimit="10"><path d="m15.9 112.6c-20-24.3-20.2-59.3-.4-83.7"/><path d="m118.1 28.4c20 24.3 20.2 59.3.4 83.7"/></g></svg>