<svg enable-background="new 0 0 391 235" viewBox="0 0 391 235" xmlns="http://www.w3.org/2000/svg">
                  <path class="text-stroke text-stroke1" data-clip-path="path-pickup1" d="m48.132 32.886c0 14.49-9.324 20.412-16 20.412h-3.152c-1.008 0-1.512.63-1.512 1.134 0 .756.63 1.386 2.142 2.016 2.17.625 4.42.922 6.678.882 5.418 0 11.214-2.772 14.49-5.544 3.654-3.15 8.82-8.316 8.82-19.53-.018-6.465-2.654-12.648-7.308-17.136-4.662-4.41-12.1-7.434-23.562-7.434-6.3 0-16 1.008-21.042 1.008-1.134 0-3.276-.126-4.158 0-1.638.126-2.9.756-2.9 1.764 0 .756 1.386 1.512 3.906 1.89 7.056 1.008 6.932 2.772 7.056 7.308.126 4.032.378 30.744.378 34.9 0 6.3-.252 16.632-.63 22.806-.378 5.166-1.764 7.686-8.82 9.2-1.258.376-2.518 1.134-2.518 2.016 0 1.134 1.39 1.76 3.528 1.76 3.906 0 9.072-.5 12.726-.5 5.544 0 10.08.5 13.23.5 1.89 0 4.158-.378 4.158-1.512s-1.008-1.76-3.402-2.388c-6.426-1.89-7.434-2.9-7.56-11.088 0-3.15-.252-13.608-.252-25.074.126-14.49.126-30.114.252-32.76.126-3.024.756-4.536 1.26-4.914 1.087-.712 2.351-1.105 3.65-1.136 11.848 0 20.542 9.954 20.542 21.42zm32.13 56.952c2.646 0 8.946.378 9.828.378 1.386 0 2.9-.5 2.9-1.26 0-.882-.756-1.512-2.772-2.142-3.15-1.008-5.922-1.26-6.048-5.292-.126-4.41-.252-9.7-.252-16.758 0-7.182.756-23.562.756-24.948 0-.126-.63-1.386-1.134-1.386-1.89.5-7.812 3.276-12.474 4.284-1.386.252-2.52 1.26-2.52 2.142 0 .5.252.882 1.008 1.386 3.654 2.646 5.04 3.654 5.166 4.536.252 1.512.126 15.876.126 19.656 0 3.654-.126 11.214-.5 12.978-.256 1.26-2.148 2.772-5.046 3.526-2.142.63-3.024 1.26-3.024 2.016 0 .884 1.26 1.384 3.276 1.384 2.138 0 6.552-.5 10.71-.5zm-.252-76.482c-1.781-.058-3.524.523-4.914 1.638-.913 1.343-1.437 2.913-1.512 4.536-.007 1.742.672 3.417 1.89 4.662 1.162.897 2.567 1.424 4.032 1.512 2.52 0 6.048-2.772 6.048-6.174 0-2.268-2.142-6.174-5.544-6.174zm47.5 25.956c-3.4 0-11.592 1.764-16.506 5.292-7.308 4.914-12.222 12.6-12.222 21.8.06 5.161 1.403 10.227 3.908 14.74 4.146 6.26 11.14 10.04 18.648 10.08 6.857-.034 13.406-2.854 18.144-7.812 1.014-.949 1.604-2.266 1.638-3.654 0-.63-1.008-1.008-2.394 0-3.222 2.456-7.163 3.784-11.214 3.78-6.552 0-12.726-3.15-15.876-8.442-2.253-3.809-3.389-8.176-3.276-12.6-.082-5.317 1.802-10.477 5.292-14.49 2.016-2.52 5.8-4.284 7.812-4.284 4.284 0 6.426 1.89 10.584 4.914 2.016 1.386 4.158 2.394 4.914 2.394.5 0 4.158-3.024 4.158-5.04-.121-1.456-.798-2.81-1.89-3.78-2.394-1.89-7.94-2.898-11.718-2.898zm49.644 1.386c-.882 0-2.142 1.764-2.142 2.268 0 .378.378.756 1.134.882 5.67.882 5.292 2.142 4.788 2.772-2.268 3.276-9.2 9.7-13.356 13.608-.882.756-1.89 1.638-2.52 1.638s-.756-.378-1.008-1.134c-.378-1.134-.378-7.812-.378-12.726 0-10.836.5-43.344 1.134-46.368-.023-.654-.349-1.259-.882-1.638-.921.164-1.787.553-2.52 1.134-3.4 2.142-9.7 3.528-10.962 3.906-1.008.378-1.638 1.134-1.638 1.638 0 .378.63 1.008 1.638 1.764 3.528 2.142 3.78 2.9 3.78 3.276.378 3.276.756 10.332.756 26.586 0 16.758-.378 40.824-.882 43.218-.63 3.15-1.512 4.284-6.552 5.544-1.638.5-2.9 1.008-2.9 1.89 0 1.008 1.386 1.386 2.9 1.386 2.772 0 6.174-.5 10.584-.5 3.15 0 7.308.252 10.458.252 1.386 0 3.024-.252 3.024-1.386 0-1.008-1.26-1.512-2.772-1.89-3.4-.882-4.284-1.638-4.662-4.158-.756-3.78-.756-15.876-.126-17.514 0-.252.126-1.008.63-1.008.63 0 1.89 1.386 3.15 2.9 6.3 7.308 12.852 14.238 14.238 16s1.008 2.9-1.638 3.528c-1.638.378-2.772 1.008-2.772 1.764 0 1.134 1.386 1.638 3.15 1.638h5.67c6.552 0 12.852.756 15.75.756 1.512 0 3.15-.252 3.15-1.512 0-.5-.882-1.512-3.024-2.016-3.246-.618-6.231-2.2-8.564-4.54-3.906-3.906-16-17.01-20.286-22.3-.14-.419-.094-.877.126-1.26 3.087-3.512 6.505-6.719 10.206-9.576 5.67-3.906 7.812-5.166 14.616-6.678.5-.126 2.52-1.26 2.52-2.772-.032-.473-.409-.85-.882-.882-4.284 0-8.694 1.512-17.01 1.512zm57.078-30.744c0 1.134 1.386 1.764 2.9 2.142 4.788 1.008 6.552 3.024 6.8 5.418.126 1.638.5 11.718.5 29.862 0 21.168 3.024 30.366 10.08 37.044 3.024 2.772 11.466 7.434 22.806 7.434 5.544 0 12.348-.756 18.144-4.032 9.072-5.04 15.12-16.128 15.75-38.052.252-6.552 1.008-20.538 1.134-25.956.252-7.938 2.772-10.08 8.19-11.592 1.764-.63 2.772-1.512 2.772-2.268 0-1.008-1.134-1.386-3.15-1.386-3.528 0-6.174.252-11.34.252-4.032 0-7.56-.378-10.71-.378-2.142 0-2.9.5-2.9 1.26 0 .882 1.386 2.016 2.646 2.268 7.056 1.638 7.938 3.4 8.316 8.19.126 1.512.5 8.064.5 16.254 0 14.364-1.26 24.948-2.772 31.626-3.15 13.86-15.372 17.64-23.562 17.64-6.552 0-14.742-3.024-18.27-6.93-3.906-4.41-7.056-9.828-7.056-24.066 0-17.892-.126-31 .5-35.154.756-5.04 3.15-6.3 7.686-7.182 2.394-.5 3.78-1.386 3.78-2.394s-1.512-1.386-3.906-1.386c-2.772 0-7.56.252-12.222.252s-7.668-.382-12.958-.382c-2.018 0-3.656.508-3.656 1.516zm123.358 29.232c-3.173-.056-6.331.457-9.324 1.512-2.847 1.29-5.586 2.807-8.19 4.536-.5.378-1.008-.126-1.008-.63.126-2.016.126-4.41.378-6.426-.21-.688-.719-1.244-1.386-1.512-.875.295-1.719.675-2.52 1.134-3.065 1.732-6.268 3.207-9.576 4.41-.847.513-1.475 1.321-1.764 2.268 0 .63 1.512 1.764 4.662 4.032.378.252 1.008 1.134 1.008 6.426.126 7.434 0 16.884 0 25.452 0 12.852-.126 23.31-.378 27.468-.5 8.946-1.134 10.08-7.812 11.466-2.016.378-2.9 1.386-2.9 1.89 0 1.26 1.89 1.638 3.78 1.638 3.78 0 5.04-.378 8.064-.378 4.914 0 12.222.63 14.994.63 1.638 0 3.276-.63 3.276-1.638 0-.882-1.008-1.386-3.528-2.142-4.788-1.512-5.67-3.15-6.048-6.426-.378-3.528-.5-8.694-.5-20.916 0-.63.5-1.638.882-1.638 2.337.34 4.695.507 7.056.5 5.67 0 13.1-1.008 20.034-6.426 6.706-5.198 10.654-13.188 10.71-21.672.003-6.024-2.092-11.86-5.926-16.506-3.784-4.154-9.45-7.052-13.984-7.052zm-6.552 6.426c4.275.315 8.297 2.147 11.34 5.166 5.166 5.67 5.166 12.474 5.166 15.372 0 3.78-2.268 13.23-8.568 18.522-1.659 1.307-3.689 2.057-5.8 2.142-5.002-.387-9.594-2.913-12.6-6.93-.882-1.134-1.386-3.276-1.638-5.544-.5-5.166-.378-18.9.252-22.68.378-2.268 1.008-3.276 1.638-3.78 1.388-1.134 4.916-2.268 10.208-2.268z" style="clip-path: url(&quot;#path-pickup1&quot;);"></path>
                  <path class="text-stroke text-stroke2" data-clip-path="path-pickup2" d="m126.556 119.82c-16.128 0-26.208-.378-29.484-.756-1.89-.126-3.906-2.016-4.282-2.394-1.388-1.132-1.388-2.016-2.018-2.016-.967.25-1.703 1.035-1.89 2.016 0 7.434-2.392 14.368-2.392 16.758 0 1.26.5 2.9 1.26 2.9.5 0 1.26.126 2.394-2.52 2.142-4.158 3.654-6.174 4.158-6.552 1.89-2.142 4.536-2.9 9.324-2.9 2.016 0 13.1.252 15.624.63.378 0 1.008.63 1.008 1.638v14.994c0 9.7-.63 35.406-.882 42.84-.378 9.45-.63 11.592-9.45 13.608-1.136.252-2.396 1.26-2.396 2.142 0 .756 1.26 1.512 3.78 1.512 1.638 0 8.064-.882 14.364-.882 5.544 0 13.356.63 14.364.63 1.26 0 3.528-.126 3.528-1.512 0-.882-1.764-1.89-3.4-2.268-7.814-1.764-8.444-3.276-9.076-8.95-.5-4.658-.5-16.628-.5-31.244v-30.87c0-.252.5-1.512 1.134-1.638 1.512-.378 15.5-.378 17.64-.252 7.812.378 9.45 1.008 10.206 7.56.378 3.15.882 4.032 1.764 4.032 1.008 0 2.016-1.26 2.142-2.394.425-4.913 1.354-9.77 2.77-14.494.63-1.764.126-2.9-.5-2.9-.5 0-.882.252-1.764.756-1.764 1.26-4.032 2.016-8.568 2.268-5.17.132-22.306.258-28.858.258zm54.934 30.118c-6.851-.031-13.48 2.432-18.648 6.93-4.788 4.032-8.82 10.08-8.82 19.656 0 6.3 3.906 14.868 9.324 19.278 4.664 3.902 10.964 6.548 16.76 6.548 5.625.115 11.126-1.659 15.624-5.04 4.66-3.024 10.96-11.214 10.96-21.672.231-13.961-10.899-25.466-24.86-25.697-.114-.002-.227-.003-.34-.003zm-2.394 3.78c4.024.235 7.808 1.992 10.584 4.914 4.788 5.544 6.3 12.726 6.3 19.278 0 5.418-2.52 13.23-5.67 16.632-3.528 3.528-6.3 4.158-7.686 4.158-6.048 0-13.23-4.536-16.38-13.986-1.065-3.641-1.574-7.421-1.512-11.214 0-6.552 2.9-13.1 6.174-16.128 2.648-2.272 5.546-3.658 8.192-3.658zm69.678-3.528c-3.173-.056-6.331.457-9.324 1.512-2.847 1.29-5.586 2.807-8.19 4.536-.5.378-1.008-.126-1.008-.63.126-2.016.126-4.41.378-6.426-.21-.688-.719-1.244-1.386-1.512-.875.295-1.719.675-2.52 1.134-3.065 1.732-6.268 3.207-9.576 4.41-.844.513-1.47 1.319-1.758 2.264 0 .63 1.512 1.764 4.662 4.032.378.252 1.008 1.134 1.008 6.426.126 7.434 0 16.884 0 25.452 0 12.852-.126 23.31-.378 27.468-.5 8.946-1.134 10.08-7.812 11.466-2.016.378-2.9 1.386-2.9 1.89 0 1.26 1.89 1.638 3.78 1.638 3.78 0 5.04-.378 8.064-.378 4.914 0 12.222.63 14.994.63 1.638 0 3.276-.63 3.276-1.638 0-.882-1.008-1.386-3.528-2.142-4.788-1.512-5.67-3.15-6.048-6.426-.378-3.528-.5-8.694-.5-20.916 0-.63.5-1.638.882-1.638 2.337.34 4.695.507 7.056.5 5.67 0 13.1-1.008 20.034-6.426 6.706-5.198 10.654-13.188 10.71-21.672.003-6.024-2.094-11.86-5.928-16.506-3.78-4.154-9.45-7.052-13.986-7.052zm-6.552 6.426c4.275.315 8.297 2.147 11.34 5.166 5.166 5.67 5.166 12.474 5.166 15.372 0 3.78-2.268 13.23-8.568 18.522-1.659 1.307-3.689 2.057-5.8 2.142-5.002-.387-9.594-2.913-12.6-6.93-.882-1.134-1.386-3.276-1.638-5.544-.5-5.166-.378-18.9.252-22.68.378-2.268 1.008-3.276 1.638-3.78 1.392-1.138 4.92-2.272 10.212-2.272zm48.386 44.222c2.646 0 8.946.378 9.828.378 1.386 0 2.9-.5 2.9-1.26 0-.882-.756-1.512-2.772-2.142-3.15-1.008-5.922-1.26-6.048-5.292-.126-4.41-.252-9.7-.252-16.758 0-7.182.756-23.562.756-24.948 0-.126-.63-1.386-1.134-1.386-1.89.5-7.812 3.276-12.474 4.284-1.386.252-2.52 1.26-2.52 2.142 0 .5.252.882 1.008 1.386 3.654 2.646 5.04 3.654 5.166 4.536.252 1.512.126 15.876.126 19.656 0 3.654-.126 11.214-.5 12.978-.252 1.26-2.142 2.772-5.04 3.528-2.142.63-3.024 1.26-3.024 2.016-.006.882 1.254 1.382 3.27 1.382 2.142 0 6.552-.5 10.71-.5zm-.252-76.482c-1.781-.058-3.524.523-4.914 1.638-.913 1.343-1.437 2.913-1.512 4.536-.007 1.742.672 3.417 1.89 4.662 1.162.897 2.567 1.424 4.032 1.512 2.52 0 6.048-2.772 6.048-6.174 0-2.268-2.142-6.174-5.544-6.174zm47.5 25.956c-3.4 0-11.592 1.764-16.506 5.292-7.308 4.914-12.222 12.6-12.222 21.8.059 5.162 1.401 10.228 3.906 14.742 4.146 6.26 11.14 10.04 18.648 10.08 6.857-.034 13.406-2.854 18.144-7.812 1.014-.949 1.604-2.266 1.638-3.654 0-.63-1.008-1.008-2.394 0-3.222 2.455-7.162 3.782-11.212 3.778-6.552 0-12.726-3.15-15.876-8.442-2.253-3.809-3.389-8.176-3.276-12.6-.082-5.317 1.802-10.477 5.292-14.49 2.016-2.52 5.8-4.284 7.812-4.284 4.284 0 6.426 1.89 10.584 4.914 2.016 1.386 4.158 2.394 4.914 2.394.5 0 4.158-3.024 4.158-5.04-.121-1.456-.798-2.81-1.89-3.78-2.394-1.89-7.938-2.898-11.718-2.898zm39.944-.374c-3.542-.085-7.036.832-10.08 2.646-4.788 2.9-6.93 7.056-6.93 11.34 0 5.922 4.032 10.332 7.812 12.726 3.906 2.52 4.662 3.15 7.686 5.292 3.906 2.394 5.67 5.04 5.67 8.442 0 2.394-1.008 5.418-2.9 6.93-1.464 1.1-3.214 1.756-5.04 1.89-4.536 0-7.938-2.52-11.466-8.946-.756-1.386-1.638-2.9-2.646-2.9-.756 0-1.008 1.26-1.008 2.646.134 3.27.772 6.499 1.892 9.574 2.142 1.764 8.442 2.772 12.222 2.772 3.72-.033 7.367-1.032 10.584-2.9 3.15-2.268 7.308-6.552 7.308-12.348 0-5.67-2.772-9.954-9.828-14.112-8.442-4.662-12.474-7.938-12.474-12.222 0-2.646 2.394-7.812 7.56-7.812 4.158 0 7.308 2.52 10.08 8.442.63 1.386 1.386 2.142 1.89 2.142 1.008 0 1.512-1.134 1.512-2.268 0-.882-.378-5.166-.378-7.434-.086-.699-.449-1.335-1.008-1.764-1.299-.584-2.649-1.048-4.032-1.386-2.106-.497-4.262-.749-6.426-.75z" style="clip-path: url(&quot;#path-pickup2&quot;);"></path>

                  <defs>
                    <clipPath id="path-pickup1"><path d="m48.132 32.886c0 14.49-9.324 20.412-16 20.412h-3.152c-1.008 0-1.512.63-1.512 1.134 0 .756.63 1.386 2.142 2.016 2.17.625 4.42.922 6.678.882 5.418 0 11.214-2.772 14.49-5.544 3.654-3.15 8.82-8.316 8.82-19.53-.018-6.465-2.654-12.648-7.308-17.136-4.662-4.41-12.1-7.434-23.562-7.434-6.3 0-16 1.008-21.042 1.008-1.134 0-3.276-.126-4.158 0-1.638.126-2.9.756-2.9 1.764 0 .756 1.386 1.512 3.906 1.89 7.056 1.008 6.932 2.772 7.056 7.308.126 4.032.378 30.744.378 34.9 0 6.3-.252 16.632-.63 22.806-.378 5.166-1.764 7.686-8.82 9.2-1.258.376-2.518 1.134-2.518 2.016 0 1.134 1.39 1.76 3.528 1.76 3.906 0 9.072-.5 12.726-.5 5.544 0 10.08.5 13.23.5 1.89 0 4.158-.378 4.158-1.512s-1.008-1.76-3.402-2.388c-6.426-1.89-7.434-2.9-7.56-11.088 0-3.15-.252-13.608-.252-25.074.126-14.49.126-30.114.252-32.76.126-3.024.756-4.536 1.26-4.914 1.087-.712 2.351-1.105 3.65-1.136 11.848 0 20.542 9.954 20.542 21.42zm32.13 56.952c2.646 0 8.946.378 9.828.378 1.386 0 2.9-.5 2.9-1.26 0-.882-.756-1.512-2.772-2.142-3.15-1.008-5.922-1.26-6.048-5.292-.126-4.41-.252-9.7-.252-16.758 0-7.182.756-23.562.756-24.948 0-.126-.63-1.386-1.134-1.386-1.89.5-7.812 3.276-12.474 4.284-1.386.252-2.52 1.26-2.52 2.142 0 .5.252.882 1.008 1.386 3.654 2.646 5.04 3.654 5.166 4.536.252 1.512.126 15.876.126 19.656 0 3.654-.126 11.214-.5 12.978-.256 1.26-2.148 2.772-5.046 3.526-2.142.63-3.024 1.26-3.024 2.016 0 .884 1.26 1.384 3.276 1.384 2.138 0 6.552-.5 10.71-.5zm-.252-76.482c-1.781-.058-3.524.523-4.914 1.638-.913 1.343-1.437 2.913-1.512 4.536-.007 1.742.672 3.417 1.89 4.662 1.162.897 2.567 1.424 4.032 1.512 2.52 0 6.048-2.772 6.048-6.174 0-2.268-2.142-6.174-5.544-6.174zm47.5 25.956c-3.4 0-11.592 1.764-16.506 5.292-7.308 4.914-12.222 12.6-12.222 21.8.06 5.161 1.403 10.227 3.908 14.74 4.146 6.26 11.14 10.04 18.648 10.08 6.857-.034 13.406-2.854 18.144-7.812 1.014-.949 1.604-2.266 1.638-3.654 0-.63-1.008-1.008-2.394 0-3.222 2.456-7.163 3.784-11.214 3.78-6.552 0-12.726-3.15-15.876-8.442-2.253-3.809-3.389-8.176-3.276-12.6-.082-5.317 1.802-10.477 5.292-14.49 2.016-2.52 5.8-4.284 7.812-4.284 4.284 0 6.426 1.89 10.584 4.914 2.016 1.386 4.158 2.394 4.914 2.394.5 0 4.158-3.024 4.158-5.04-.121-1.456-.798-2.81-1.89-3.78-2.394-1.89-7.94-2.898-11.718-2.898zm49.644 1.386c-.882 0-2.142 1.764-2.142 2.268 0 .378.378.756 1.134.882 5.67.882 5.292 2.142 4.788 2.772-2.268 3.276-9.2 9.7-13.356 13.608-.882.756-1.89 1.638-2.52 1.638s-.756-.378-1.008-1.134c-.378-1.134-.378-7.812-.378-12.726 0-10.836.5-43.344 1.134-46.368-.023-.654-.349-1.259-.882-1.638-.921.164-1.787.553-2.52 1.134-3.4 2.142-9.7 3.528-10.962 3.906-1.008.378-1.638 1.134-1.638 1.638 0 .378.63 1.008 1.638 1.764 3.528 2.142 3.78 2.9 3.78 3.276.378 3.276.756 10.332.756 26.586 0 16.758-.378 40.824-.882 43.218-.63 3.15-1.512 4.284-6.552 5.544-1.638.5-2.9 1.008-2.9 1.89 0 1.008 1.386 1.386 2.9 1.386 2.772 0 6.174-.5 10.584-.5 3.15 0 7.308.252 10.458.252 1.386 0 3.024-.252 3.024-1.386 0-1.008-1.26-1.512-2.772-1.89-3.4-.882-4.284-1.638-4.662-4.158-.756-3.78-.756-15.876-.126-17.514 0-.252.126-1.008.63-1.008.63 0 1.89 1.386 3.15 2.9 6.3 7.308 12.852 14.238 14.238 16s1.008 2.9-1.638 3.528c-1.638.378-2.772 1.008-2.772 1.764 0 1.134 1.386 1.638 3.15 1.638h5.67c6.552 0 12.852.756 15.75.756 1.512 0 3.15-.252 3.15-1.512 0-.5-.882-1.512-3.024-2.016-3.246-.618-6.231-2.2-8.564-4.54-3.906-3.906-16-17.01-20.286-22.3-.14-.419-.094-.877.126-1.26 3.087-3.512 6.505-6.719 10.206-9.576 5.67-3.906 7.812-5.166 14.616-6.678.5-.126 2.52-1.26 2.52-2.772-.032-.473-.409-.85-.882-.882-4.284 0-8.694 1.512-17.01 1.512zm57.078-30.744c0 1.134 1.386 1.764 2.9 2.142 4.788 1.008 6.552 3.024 6.8 5.418.126 1.638.5 11.718.5 29.862 0 21.168 3.024 30.366 10.08 37.044 3.024 2.772 11.466 7.434 22.806 7.434 5.544 0 12.348-.756 18.144-4.032 9.072-5.04 15.12-16.128 15.75-38.052.252-6.552 1.008-20.538 1.134-25.956.252-7.938 2.772-10.08 8.19-11.592 1.764-.63 2.772-1.512 2.772-2.268 0-1.008-1.134-1.386-3.15-1.386-3.528 0-6.174.252-11.34.252-4.032 0-7.56-.378-10.71-.378-2.142 0-2.9.5-2.9 1.26 0 .882 1.386 2.016 2.646 2.268 7.056 1.638 7.938 3.4 8.316 8.19.126 1.512.5 8.064.5 16.254 0 14.364-1.26 24.948-2.772 31.626-3.15 13.86-15.372 17.64-23.562 17.64-6.552 0-14.742-3.024-18.27-6.93-3.906-4.41-7.056-9.828-7.056-24.066 0-17.892-.126-31 .5-35.154.756-5.04 3.15-6.3 7.686-7.182 2.394-.5 3.78-1.386 3.78-2.394s-1.512-1.386-3.906-1.386c-2.772 0-7.56.252-12.222.252s-7.668-.382-12.958-.382c-2.018 0-3.656.508-3.656 1.516zm123.358 29.232c-3.173-.056-6.331.457-9.324 1.512-2.847 1.29-5.586 2.807-8.19 4.536-.5.378-1.008-.126-1.008-.63.126-2.016.126-4.41.378-6.426-.21-.688-.719-1.244-1.386-1.512-.875.295-1.719.675-2.52 1.134-3.065 1.732-6.268 3.207-9.576 4.41-.847.513-1.475 1.321-1.764 2.268 0 .63 1.512 1.764 4.662 4.032.378.252 1.008 1.134 1.008 6.426.126 7.434 0 16.884 0 25.452 0 12.852-.126 23.31-.378 27.468-.5 8.946-1.134 10.08-7.812 11.466-2.016.378-2.9 1.386-2.9 1.89 0 1.26 1.89 1.638 3.78 1.638 3.78 0 5.04-.378 8.064-.378 4.914 0 12.222.63 14.994.63 1.638 0 3.276-.63 3.276-1.638 0-.882-1.008-1.386-3.528-2.142-4.788-1.512-5.67-3.15-6.048-6.426-.378-3.528-.5-8.694-.5-20.916 0-.63.5-1.638.882-1.638 2.337.34 4.695.507 7.056.5 5.67 0 13.1-1.008 20.034-6.426 6.706-5.198 10.654-13.188 10.71-21.672.003-6.024-2.092-11.86-5.926-16.506-3.784-4.154-9.45-7.052-13.984-7.052zm-6.552 6.426c4.275.315 8.297 2.147 11.34 5.166 5.166 5.67 5.166 12.474 5.166 15.372 0 3.78-2.268 13.23-8.568 18.522-1.659 1.307-3.689 2.057-5.8 2.142-5.002-.387-9.594-2.913-12.6-6.93-.882-1.134-1.386-3.276-1.638-5.544-.5-5.166-.378-18.9.252-22.68.378-2.268 1.008-3.276 1.638-3.78 1.388-1.134 4.916-2.268 10.208-2.268z"></path></clipPath>
                    <clipPath id="path-pickup2"><path d="m126.556 119.82c-16.128 0-26.208-.378-29.484-.756-1.89-.126-3.906-2.016-4.282-2.394-1.388-1.132-1.388-2.016-2.018-2.016-.967.25-1.703 1.035-1.89 2.016 0 7.434-2.392 14.368-2.392 16.758 0 1.26.5 2.9 1.26 2.9.5 0 1.26.126 2.394-2.52 2.142-4.158 3.654-6.174 4.158-6.552 1.89-2.142 4.536-2.9 9.324-2.9 2.016 0 13.1.252 15.624.63.378 0 1.008.63 1.008 1.638v14.994c0 9.7-.63 35.406-.882 42.84-.378 9.45-.63 11.592-9.45 13.608-1.136.252-2.396 1.26-2.396 2.142 0 .756 1.26 1.512 3.78 1.512 1.638 0 8.064-.882 14.364-.882 5.544 0 13.356.63 14.364.63 1.26 0 3.528-.126 3.528-1.512 0-.882-1.764-1.89-3.4-2.268-7.814-1.764-8.444-3.276-9.076-8.95-.5-4.658-.5-16.628-.5-31.244v-30.87c0-.252.5-1.512 1.134-1.638 1.512-.378 15.5-.378 17.64-.252 7.812.378 9.45 1.008 10.206 7.56.378 3.15.882 4.032 1.764 4.032 1.008 0 2.016-1.26 2.142-2.394.425-4.913 1.354-9.77 2.77-14.494.63-1.764.126-2.9-.5-2.9-.5 0-.882.252-1.764.756-1.764 1.26-4.032 2.016-8.568 2.268-5.17.132-22.306.258-28.858.258zm54.934 30.118c-6.851-.031-13.48 2.432-18.648 6.93-4.788 4.032-8.82 10.08-8.82 19.656 0 6.3 3.906 14.868 9.324 19.278 4.664 3.902 10.964 6.548 16.76 6.548 5.625.115 11.126-1.659 15.624-5.04 4.66-3.024 10.96-11.214 10.96-21.672.231-13.961-10.899-25.466-24.86-25.697-.114-.002-.227-.003-.34-.003zm-2.394 3.78c4.024.235 7.808 1.992 10.584 4.914 4.788 5.544 6.3 12.726 6.3 19.278 0 5.418-2.52 13.23-5.67 16.632-3.528 3.528-6.3 4.158-7.686 4.158-6.048 0-13.23-4.536-16.38-13.986-1.065-3.641-1.574-7.421-1.512-11.214 0-6.552 2.9-13.1 6.174-16.128 2.648-2.272 5.546-3.658 8.192-3.658zm69.678-3.528c-3.173-.056-6.331.457-9.324 1.512-2.847 1.29-5.586 2.807-8.19 4.536-.5.378-1.008-.126-1.008-.63.126-2.016.126-4.41.378-6.426-.21-.688-.719-1.244-1.386-1.512-.875.295-1.719.675-2.52 1.134-3.065 1.732-6.268 3.207-9.576 4.41-.844.513-1.47 1.319-1.758 2.264 0 .63 1.512 1.764 4.662 4.032.378.252 1.008 1.134 1.008 6.426.126 7.434 0 16.884 0 25.452 0 12.852-.126 23.31-.378 27.468-.5 8.946-1.134 10.08-7.812 11.466-2.016.378-2.9 1.386-2.9 1.89 0 1.26 1.89 1.638 3.78 1.638 3.78 0 5.04-.378 8.064-.378 4.914 0 12.222.63 14.994.63 1.638 0 3.276-.63 3.276-1.638 0-.882-1.008-1.386-3.528-2.142-4.788-1.512-5.67-3.15-6.048-6.426-.378-3.528-.5-8.694-.5-20.916 0-.63.5-1.638.882-1.638 2.337.34 4.695.507 7.056.5 5.67 0 13.1-1.008 20.034-6.426 6.706-5.198 10.654-13.188 10.71-21.672.003-6.024-2.094-11.86-5.928-16.506-3.78-4.154-9.45-7.052-13.986-7.052zm-6.552 6.426c4.275.315 8.297 2.147 11.34 5.166 5.166 5.67 5.166 12.474 5.166 15.372 0 3.78-2.268 13.23-8.568 18.522-1.659 1.307-3.689 2.057-5.8 2.142-5.002-.387-9.594-2.913-12.6-6.93-.882-1.134-1.386-3.276-1.638-5.544-.5-5.166-.378-18.9.252-22.68.378-2.268 1.008-3.276 1.638-3.78 1.392-1.138 4.92-2.272 10.212-2.272zm48.386 44.222c2.646 0 8.946.378 9.828.378 1.386 0 2.9-.5 2.9-1.26 0-.882-.756-1.512-2.772-2.142-3.15-1.008-5.922-1.26-6.048-5.292-.126-4.41-.252-9.7-.252-16.758 0-7.182.756-23.562.756-24.948 0-.126-.63-1.386-1.134-1.386-1.89.5-7.812 3.276-12.474 4.284-1.386.252-2.52 1.26-2.52 2.142 0 .5.252.882 1.008 1.386 3.654 2.646 5.04 3.654 5.166 4.536.252 1.512.126 15.876.126 19.656 0 3.654-.126 11.214-.5 12.978-.252 1.26-2.142 2.772-5.04 3.528-2.142.63-3.024 1.26-3.024 2.016-.006.882 1.254 1.382 3.27 1.382 2.142 0 6.552-.5 10.71-.5zm-.252-76.482c-1.781-.058-3.524.523-4.914 1.638-.913 1.343-1.437 2.913-1.512 4.536-.007 1.742.672 3.417 1.89 4.662 1.162.897 2.567 1.424 4.032 1.512 2.52 0 6.048-2.772 6.048-6.174 0-2.268-2.142-6.174-5.544-6.174zm47.5 25.956c-3.4 0-11.592 1.764-16.506 5.292-7.308 4.914-12.222 12.6-12.222 21.8.059 5.162 1.401 10.228 3.906 14.742 4.146 6.26 11.14 10.04 18.648 10.08 6.857-.034 13.406-2.854 18.144-7.812 1.014-.949 1.604-2.266 1.638-3.654 0-.63-1.008-1.008-2.394 0-3.222 2.455-7.162 3.782-11.212 3.778-6.552 0-12.726-3.15-15.876-8.442-2.253-3.809-3.389-8.176-3.276-12.6-.082-5.317 1.802-10.477 5.292-14.49 2.016-2.52 5.8-4.284 7.812-4.284 4.284 0 6.426 1.89 10.584 4.914 2.016 1.386 4.158 2.394 4.914 2.394.5 0 4.158-3.024 4.158-5.04-.121-1.456-.798-2.81-1.89-3.78-2.394-1.89-7.938-2.898-11.718-2.898zm39.944-.374c-3.542-.085-7.036.832-10.08 2.646-4.788 2.9-6.93 7.056-6.93 11.34 0 5.922 4.032 10.332 7.812 12.726 3.906 2.52 4.662 3.15 7.686 5.292 3.906 2.394 5.67 5.04 5.67 8.442 0 2.394-1.008 5.418-2.9 6.93-1.464 1.1-3.214 1.756-5.04 1.89-4.536 0-7.938-2.52-11.466-8.946-.756-1.386-1.638-2.9-2.646-2.9-.756 0-1.008 1.26-1.008 2.646.134 3.27.772 6.499 1.892 9.574 2.142 1.764 8.442 2.772 12.222 2.772 3.72-.033 7.367-1.032 10.584-2.9 3.15-2.268 7.308-6.552 7.308-12.348 0-5.67-2.772-9.954-9.828-14.112-8.442-4.662-12.474-7.938-12.474-12.222 0-2.646 2.394-7.812 7.56-7.812 4.158 0 7.308 2.52 10.08 8.442.63 1.386 1.386 2.142 1.89 2.142 1.008 0 1.512-1.134 1.512-2.268 0-.882-.378-5.166-.378-7.434-.086-.699-.449-1.335-1.008-1.764-1.299-.584-2.649-1.048-4.032-1.386-2.106-.497-4.262-.749-6.426-.75z"></path></clipPath>
                  </defs>
                </svg>