<svg class="u-show-sp" enable-background="new 0 0 252 107" viewBox="0 0 252 107" xmlns="http://www.w3.org/2000/svg">
                  <path class="text-stroke text-stroke-sp1" data-clip-path="path-journal-sp1" d="m14.1 3.18c-4.2 0-7.02 1.26-8.88 2.94-2.089 1.861-3.289 4.522-3.3 7.32 0 5.1 3.6 8.58 8.7 11.88 6.3 4.02 7.5 6.72 7.5 9.24.146 3.863-2.867 7.114-6.73 7.26-.177.007-.354.007-.53 0-2.28 0-6.24-1.5-7.8-4.8-.84-1.86-1.74-3.42-2.22-3.42-.24 0-.84.9-.84 1.14 0 .96.6 3.6.9 5.64.279.753.756 1.416 1.38 1.92 2.515.955 5.171 1.482 7.86 1.56 2.858-.023 5.665-.766 8.16-2.16 2.949-1.822 4.794-4.996 4.92-8.46 0-5.4-3.66-8.52-8.28-11.64-5.28-3.54-8.34-5.4-8.34-9.66-.152-3.723 2.743-6.865 6.467-7.016.144-.006.289-.007.433-.004 1.535-.032 3.035.455 4.26 1.38 1.358 1.142 2.376 2.637 2.94 4.32.167.681.743 1.185 1.44 1.26.42 0 .42-.6.42-1.62 0-.24-.48-3.72-.6-4.86 0-.12-.36-1.02-.72-1.14-2.34-.593-4.73-.956-7.14-1.08zm25.98 37.38c-1.465.155-2.932-.276-4.08-1.2-.973-.843-1.523-2.073-1.5-3.36 0-2.7.24-14.04.18-16.08 0-.36-.24-.9-.48-.9s-4.68.66-6.36.66c-.72 0-1.02.36-1.02.54 0 .54.54.84 1.08 1.08 1.02.42 2.16.66 2.22 2.34.12 3.18.12 9.96.12 14.28.041.995.33 1.965.84 2.82 1.146 1.798 3.148 2.867 5.28 2.82 1.374.026 2.74-.219 4.02-.72 1.708-.906 3.352-1.929 4.92-3.06.12-.06.3.12.3.42-.06 1.02-.24 2.16-.24 2.52 0 .42.36.84.6.84.709-.144 1.41-.324 2.1-.54 1.79-.512 3.615-.894 5.46-1.14.306-.078.553-.303.66-.6-.06-.18-.48-1.14-.72-1.14-.72 0-2.58.3-3 .3-.48 0-.72-.72-.72-.84 0-4.92.48-18.24.6-19.92 0-.24-.12-.9-.42-.9-.49.006-.975.087-1.44.24-2.11.452-4.262.674-6.42.66-.6 0-1.38.3-1.38.54 0 .48.78.84 1.2.96.54.12 1.86.48 2.76.72.498.292.864.765 1.02 1.32l-.12 13.8c-.178.546-.487 1.041-.9 1.44-1.224 1.215-2.839 1.959-4.56 2.1zm25.8-21.96c-1.687-.041-3.351.396-4.8 1.26-2 1.066-3.264 3.134-3.3 5.4.128 2.521 1.53 4.804 3.72 6.06 1.86 1.2 2.22 1.5 3.66 2.52 1.86 1.14 2.7 2.4 2.7 4.02.018 1.244-.482 2.439-1.38 3.3-.697.524-1.53.836-2.4.9-2.16 0-3.78-1.2-5.46-4.26-.36-.66-.78-1.38-1.26-1.38-.36 0-.48.6-.48 1.26.063 1.557.367 3.095.9 4.56 1.02.84 4.02 1.32 5.82 1.32 1.771-.015 3.508-.491 5.04-1.38 1.5-1.08 3.48-3.12 3.48-5.88 0-2.7-1.32-4.74-4.68-6.72-4.02-2.22-5.94-3.78-5.94-5.82 0-1.26 1.14-3.72 3.6-3.72 1.98 0 3.48 1.2 4.8 4.02.3.66.66 1.02.9 1.02.48 0 .72-.54.72-1.08 0-.42-.18-2.46-.18-3.54-.041-.333-.214-.635-.48-.84-.619-.278-1.261-.499-1.92-.66-1.002-.238-2.03-.359-3.06-.36zm17.64.84c-.248-.037-.443-.232-.48-.48v-2.82c-.182-.322-.484-.56-.84-.66-.24 0-.66.48-1.38 1.32-1.489 1.503-3.094 2.888-4.8 4.14-.198.168-.326.403-.36.66 0 .18.36.48.84.66 1.2.36 2.28.78 2.28 1.2 0 2.1-.24 11.1-.24 13.32-.129 1.368.142 2.743.78 3.96 1.175 1.766 3.158 2.826 5.28 2.82 2.407.014 4.719-.937 6.42-2.64.445-.388.742-.918.84-1.5 0-.54-.3-.66-.36-.66-.24 0-.36.06-.9.36-.896.527-1.903.835-2.94.9-1.323.117-2.638-.292-3.66-1.14-.756-.782-1.129-1.858-1.02-2.94 0-2.88.06-11.7.12-12.9.075-.239.29-.406.54-.42h6.54c.42 0 1.56-.12 1.56-.66-.018-.763-.078-1.524-.18-2.28 0-.18-.6-.48-.66-.48-.239 0-6.059.24-7.38.24zm21.36-.84c-2.014.307-3.927 1.089-5.58 2.28-2.82 1.86-4.5 3.54-4.5 5.28.042.39.334.707.72.78 1.363-.527 2.67-1.19 3.9-1.98.177-.184.301-.412.36-.66-.12-1.2.06-2.28.42-2.46.731-.471 1.591-.702 2.46-.66 2.352-.034 4.36 1.69 4.68 4.02 0 .72-.06 4.38-.12 4.92 0 .36-.36.66-1.74 1.08-1.32.42-6.12 1.74-7.02 2.1-.911.295-1.735.811-2.4 1.5-.699.871-1.099 1.944-1.14 3.06 0 3 2.04 5.58 4.14 5.58.811-.027 1.616-.148 2.4-.36 1.912-.682 3.727-1.61 5.4-2.76.12-.06.36.18.36.24.461 1.749 2.031 2.976 3.84 3 2.7 0 5.4-2.58 5.4-3.72.01-.215-.053-.427-.18-.6-.12-.18-.18-.3-.36-.18-.698.438-1.471.743-2.28.9-.48 0-2.4-.24-2.4-3 0-.66.24-8.22.24-10.56 0-2.52-.3-3.72-1.2-4.98-1.162-1.843-3.224-2.919-5.4-2.82zm-1.8 21.72c-2.026.019-3.7-1.576-3.78-3.6-.095-.932.377-1.831 1.2-2.28 1.937-.963 4.029-1.573 6.18-1.8.248.038.443.232.48.48 0 1.2 0 3.24-.12 4.68-.112.552-.359 1.068-.72 1.5-.991.575-2.098.924-3.24 1.02zm22.08 2.52c1.26 0 4.26.18 4.68.18.66 0 1.38-.24 1.38-.6 0-.42-.36-.72-1.32-1.02-1.5-.48-2.82-.6-2.88-2.52-.06-2.1-.12-4.62-.12-7.98 0-3.42.36-11.22.36-11.88 0-.06-.3-.66-.54-.66-.9.24-3.72 1.56-5.94 2.04-.66.12-1.2.6-1.2 1.02 0 .24.12.42.48.66 1.74 1.26 2.4 1.74 2.46 2.16.12.72.06 7.56.06 9.36.029 2.063-.052 4.125-.24 6.18-.12.6-1.02 1.32-2.4 1.68-1.02.3-1.44.6-1.44.96 0 .42.6.66 1.56.66 1.02-.001 3.12-.241 5.1-.24zm-.12-36.42c-.848-.027-1.678.249-2.34.78-.435.64-.684 1.387-.72 2.16-.003.829.32 1.627.9 2.22.553.427 1.222.678 1.92.72 1.546-.151 2.761-1.391 2.88-2.94 0-1.08-1.02-2.94-2.64-2.94zm9.84 15.06c0 .18.36.48 1.14 1.02 1.32 1.08 1.44 1.68 1.44 2.34 0 6.12-.12 11.34-.3 13.14-.18 2.16-.54 2.76-2.52 3.36-.66.18-1.26.48-1.26.9 0 .54.66.78 1.56.78 1.02 0 2.76-.18 4.98-.18 1.26 0 2.94.06 3.66.06.84 0 1.5-.3 1.5-.72 0-.36-.48-.72-1.08-.9-1.92-.54-2.16-1.02-2.22-1.86-.06-.72-.06-13.62-.06-14.4.053-.529.262-1.03.6-1.44 1.457-1.319 3.376-2.009 5.34-1.92 1.355.052 2.676.444 3.84 1.14 1.187 1.168 1.839 2.775 1.8 4.44 0 1.74-.06 9-.18 10.98s-.42 2.46-1.86 3c-.72.24-1.38.6-1.38 1.02 0 .48.84.72 1.38.72.78 0 2.64-.12 4.14-.12 1.68 0 3.06.12 4.44.12.96 0 1.8-.24 1.8-.66s-.36-.72-1.5-1.02c-1.5-.42-2.1-1.2-2.22-2.1-.06-.84-.18-9.78-.18-10.92 0-3-.78-5.76-2.1-7.32-1.39-1.535-3.391-2.37-5.46-2.28-2.52 0-5.64 1.68-8.04 3.3-.06 0-.36.12-.36-.18 0-.54.24-1.98.24-3 0-.24-.3-.9-.6-.9-.519.122-1.009.347-1.44.66-1.279.712-2.625 1.295-4.02 1.74-.42.18-1.08.78-1.08 1.2zm39.84-2.88c-2.014.307-3.927 1.089-5.58 2.28-2.82 1.86-4.5 3.54-4.5 5.28.042.39.334.707.72.78 1.363-.527 2.67-1.19 3.9-1.98.177-.184.301-.412.36-.66-.12-1.2.06-2.28.42-2.46.731-.471 1.591-.702 2.46-.66 2.352-.034 4.359 1.69 4.68 4.02 0 .72-.06 4.38-.12 4.92 0 .36-.36.66-1.74 1.08-1.32.42-6.12 1.74-7.02 2.1-.911.295-1.735.811-2.4 1.5-.699.871-1.099 1.944-1.14 3.06 0 3 2.04 5.58 4.14 5.58.811-.027 1.617-.148 2.4-.36 1.912-.682 3.727-1.61 5.4-2.76.12-.06.36.18.36.24.461 1.749 2.031 2.976 3.84 3 2.7 0 5.4-2.58 5.4-3.72.01-.215-.053-.427-.18-.6-.12-.18-.18-.3-.36-.18-.698.438-1.471.743-2.28.9-.48 0-2.4-.24-2.4-3 0-.66.24-8.22.24-10.56 0-2.52-.3-3.72-1.2-4.98-1.162-1.843-3.224-2.919-5.4-2.82zm-1.8 21.72c-2.026.019-3.7-1.576-3.78-3.6-.095-.932.378-1.831 1.2-2.28 1.936-.963 4.029-1.573 6.18-1.8.248.038.442.232.48.48 0 1.2 0 3.24-.12 4.68-.112.552-.359 1.068-.72 1.5-.991.575-2.098.925-3.24 1.02zm40.38-10.02c.088-3.458-1.363-6.776-3.96-9.06-2.085-1.74-4.724-2.677-7.44-2.64-2.421.061-4.781.765-6.84 2.04-.06.06-.36-.12-.36-.24-.12-.66-.12-3.6-.12-5.16 0-4.8.36-10.5.54-14.46 0-.24-.42-.78-.66-.78-.534.162-1.04.405-1.5.72-1.587.751-3.233 1.373-4.92 1.86-.29.233-.534.518-.72.84 0 .3.3.48 1.2 1.14.706.501 1.232 1.217 1.5 2.04.12.84.3 9.72.3 15.42 0 4.92-.06 15.24-.36 19.92 0 .42.12.78.36.78.249-.016.493-.077.72-.18.38-.222.833-.287 1.26-.18 2.486.689 5.042 1.092 7.62 1.2 2.939-.005 5.798-.951 8.16-2.7 3.301-2.505 5.234-6.416 5.22-10.56zm-4.98 1.26c0 2.7-1.08 6.42-2.76 8.04-1.004 1.011-2.272 1.718-3.66 2.04-2.09-.192-4.054-1.079-5.58-2.52-.778-.804-1.209-1.881-1.2-3-.3-3.24-.48-6.48-.48-9.6 0-1.26.06-2.94.12-3.48.043-.349.214-.67.48-.9 1.077-.667 2.336-.981 3.6-.9 2.432-.022 4.778.903 6.54 2.58 1.837 2.167 2.875 4.899 2.94 7.74zm9.6-28.32c0 .24.18.42 1.2 1.14 1.38.84 1.38 1.2 1.44 1.68.18 1.62.18 8.1.18 12.54 0 9.48-.18 15.78-.36 18.24-.24 3-.36 4.08-3.12 4.68-.66.12-1.32.42-1.32.84 0 .48.48.66 1.68.66 1.26 0 3.9-.18 5.28-.18 1.08 0 3.66.18 5.1.18.72 0 1.56-.24 1.56-.66 0-.36-.48-.66-1.38-.9-2.58-.72-2.82-1.44-3.06-2.64-.3-1.62-.18-13.08-.18-21.84 0-8.04.36-14.82.54-16.32 0-.24-.36-.72-.54-.6-1.62 1.02-3.42 1.38-6.18 2.34-.66.18-.84.6-.84.84zm25.92 15.42c-1.574.073-3.121.439-4.56 1.08-4.485 2.184-7.295 6.772-7.2 11.76 0 7.02 4.32 11.94 10.8 11.94 3.476.074 6.752-1.62 8.7-4.5.246-.443.389-.935.42-1.44 0-.3-.12-.72-.48-.72-.24 0-.54.36-.78.72-1.02 1.5-2.82 2.16-5.46 2.16-2.629-.003-5.11-1.221-6.72-3.3-1.427-2.001-2.221-4.383-2.28-6.84.003-.71.104-1.417.3-2.1.06-.18.3-.48.48-.48 2.76.06 13.02.06 13.68.06.572-.03 1.046-.455 1.14-1.02.044-1.901-.719-3.732-2.1-5.04-1.619-1.488-3.742-2.303-5.94-2.28zm-.6 1.56c2.04.026 3.74 1.571 3.96 3.6 0 1.2-.6 1.5-2.04 1.5-3 .06-6.18.06-7.74 0-.12 0-.36-.36-.24-.66.874-2.616 3.303-4.395 6.06-4.44z" style="clip-path: url(&quot;#path-journal-sp1&quot;);"></path>

                  <path class="text-stroke text-stroke-sp2" data-clip-path="path-journal-sp2" d="m27.28 103.86c0 1.14 1.92 2.34 3.9 2.34 1.56 0 4.08-.78 6.84-2.88 3.06-2.34 6.42-7.62 6.48-14.88 0-5.16.24-22.26.24-27.18 0-3.06 1.02-3.9 3.42-4.38 1.26-.24 1.8-.6 1.8-1.2 0-.48-.9-.6-1.62-.6-1.86 0-4.2.18-6.3.18-2.64 0-4.8-.18-6.66-.18-1.14 0-1.62.24-1.62.72s.48.9 1.86 1.14c3.06.54 3.42 2.04 3.54 3.24.24 2.88.36 9 .36 17.64 0 8.52-.12 15-.36 18.72-.18 2.52-.72 3.96-1.68 4.98-.539.781-1.454 1.216-2.4 1.14-1.129-.152-2.202-.585-3.12-1.26-.577-.34-1.205-.583-1.86-.72-.527.163-1.016.428-1.44.78-.666.662-1.143 1.491-1.38 2.4zm37.62-34.26c-3.262-.015-6.419 1.158-8.88 3.3-2.781 2.295-4.334 5.756-4.2 9.36.198 3.529 1.797 6.833 4.44 9.18 2.233 1.909 5.045 3.008 7.98 3.12 2.679.055 5.298-.79 7.44-2.4 3.27-2.425 5.204-6.249 5.22-10.32.111-6.648-5.188-12.127-11.836-12.239-.054-.001-.108-.001-.164-.001zm-1.14 1.8c1.916.112 3.718.948 5.04 2.34 2.069 2.601 3.134 5.859 3 9.18 0 2.58-1.2 6.3-2.7 7.92-1.68 1.68-3 1.98-3.66 1.98-2.88 0-6.3-2.16-7.8-6.66-.507-1.734-.75-3.534-.72-5.34-.024-2.839 1.026-5.583 2.94-7.68 1.06-1.016 2.438-1.631 3.9-1.74zm29.821 20.16c-1.465.155-2.932-.276-4.08-1.2-.973-.843-1.523-2.073-1.5-3.36 0-2.7.24-14.04.18-16.08 0-.36-.24-.9-.48-.9s-4.68.66-6.36.66c-.72 0-1.02.36-1.02.54 0 .54.54.84 1.08 1.08 1.02.42 2.16.66 2.22 2.34.12 3.18.12 9.96.12 14.28.041.995.33 1.965.84 2.82 1.146 1.798 3.148 2.867 5.28 2.82 1.374.026 2.74-.219 4.02-.72 1.708-.906 3.352-1.929 4.92-3.06.12-.06.3.12.3.42-.06 1.02-.24 2.16-.24 2.52 0 .42.36.84.6.84.709-.144 1.41-.324 2.1-.54 1.79-.512 3.615-.894 5.46-1.14.306-.078.553-.303.66-.6-.06-.18-.48-1.14-.72-1.14-.72 0-2.58.3-3 .3-.48 0-.72-.72-.72-.84 0-4.92.48-18.24.6-19.92 0-.24-.12-.9-.42-.9-.49.006-.975.087-1.44.24-2.11.452-4.262.674-6.42.66-.6 0-1.38.3-1.38.54 0 .48.78.84 1.2.96.54.12 1.86.48 2.76.72.498.292.864.765 1.02 1.32l-.12 13.8c-.178.546-.487 1.041-.9 1.44-1.225 1.215-2.84 1.959-4.56 2.1zm17.159-18.841c0 .24.6.48 2.04 1.62.524.44.776 1.125.66 1.8v11.461c-.06 3.6-.24 4.2-2.58 4.98-.48.18-1.2.42-1.2.78 0 .48.6.72 1.26.72 1.44 0 2.16-.24 3.96-.24 3.48 0 5.58.3 7.08.3.9 0 1.44-.24 1.44-.54 0-.24-.12-.66-1.08-.96-.9-.24-1.98-.54-2.76-.72-1.08-.18-1.44-1.32-1.56-3.06-.06-.9-.36-11.76-.36-12.96.05-.494.261-.958.6-1.32.728-.63 1.682-.933 2.64-.84 1.213.076 2.37.538 3.3 1.32.257.139.549.202.84.18.93-.816 1.756-1.743 2.46-2.76.164-.259.286-.542.36-.84 0-.54-.54-2.04-3-2.04-1.86 0-4.5 1.5-6.84 3.72-.12.06-.42 0-.42-.24 0-1.14.12-2.22.12-3.3 0-.18-.3-.72-.54-.72-.18 0-.48.24-1.2.72-1.42.77-2.906 1.412-4.44 1.92-.443.149-.75.552-.78 1.019zm19.801-.24c0 .18.36.48 1.14 1.02 1.32 1.08 1.44 1.68 1.44 2.34 0 6.12-.12 11.34-.3 13.14-.18 2.16-.54 2.76-2.52 3.36-.66.18-1.26.48-1.26.9 0 .54.66.78 1.56.78 1.02 0 2.76-.18 4.98-.18 1.26 0 2.94.06 3.66.06.84 0 1.5-.3 1.5-.72 0-.36-.48-.72-1.08-.9-1.92-.54-2.16-1.02-2.22-1.86-.06-.72-.06-13.62-.06-14.4.052-.529.261-1.03.6-1.44 1.457-1.319 3.376-2.009 5.34-1.92 1.355.052 2.676.444 3.84 1.14 1.188 1.168 1.839 2.775 1.8 4.44 0 1.74-.06 9-.18 10.98s-.42 2.46-1.86 3c-.72.24-1.38.6-1.38 1.02 0 .48.84.72 1.38.72.78 0 2.64-.12 4.14-.12 1.68 0 3.06.12 4.44.12.96 0 1.8-.24 1.8-.66s-.36-.72-1.5-1.02c-1.5-.42-2.1-1.2-2.22-2.1-.06-.84-.18-9.78-.18-10.92 0-3-.78-5.76-2.1-7.32-1.39-1.535-3.391-2.371-5.46-2.28-2.52 0-5.64 1.68-8.04 3.3-.06 0-.36.12-.36-.18 0-.54.24-1.98.24-3 0-.24-.3-.9-.6-.9-.519.122-1.009.347-1.44.66-1.279.712-2.625 1.295-4.02 1.74-.421.181-1.081.781-1.08 1.2zm39.84-2.879c-2.014.307-3.927 1.089-5.58 2.28-2.82 1.86-4.5 3.54-4.5 5.28.042.39.334.707.72.78 1.363-.527 2.67-1.19 3.9-1.98.177-.184.301-.412.36-.66-.12-1.2.06-2.28.42-2.46.731-.471 1.591-.702 2.46-.66 2.352-.034 4.36 1.69 4.68 4.02 0 .72-.06 4.38-.12 4.92 0 .36-.36.66-1.74 1.08-1.32.42-6.12 1.74-7.02 2.1-.911.295-1.735.811-2.4 1.5-.699.871-1.099 1.944-1.14 3.06 0 3 2.04 5.58 4.14 5.58.811-.027 1.616-.148 2.4-.36 1.912-.682 3.727-1.61 5.4-2.76.12-.06.36.18.36.24.461 1.749 2.031 2.976 3.84 3 2.7 0 5.4-2.58 5.4-3.72.01-.215-.053-.427-.18-.6-.12-.18-.18-.3-.36-.18-.698.438-1.471.743-2.28.9-.48 0-2.4-.24-2.4-3 0-.66.24-8.22.24-10.56 0-2.52-.3-3.72-1.2-4.98-1.163-1.843-3.225-2.919-5.4-2.82zm-1.8 21.72c-2.026.019-3.7-1.576-3.78-3.6-.095-.932.377-1.831 1.2-2.28 1.937-.963 4.029-1.573 6.18-1.8.248.038.443.232.48.48 0 1.2 0 3.24-.12 4.68-.112.552-.359 1.068-.72 1.5-.992.575-2.099.924-3.24 1.02zm16.26-37.08c0 .24.18.42 1.2 1.14 1.38.84 1.38 1.2 1.44 1.68.18 1.62.18 8.1.18 12.54 0 9.48-.18 15.78-.36 18.24-.24 3-.36 4.08-3.12 4.68-.66.12-1.32.42-1.32.84 0 .48.48.66 1.68.66 1.26 0 3.9-.18 5.28-.18 1.08 0 3.66.18 5.1.18.72 0 1.56-.24 1.56-.66 0-.36-.48-.66-1.38-.9-2.58-.72-2.82-1.44-3.06-2.64-.3-1.62-.18-13.08-.18-21.84 0-8.04.36-14.82.54-16.32 0-.24-.36-.72-.54-.6-1.62 1.02-3.42 1.38-6.18 2.34-.66.179-.841.6-.84.84z" style="clip-path: url(&quot;#path-journal-sp2&quot;);"></path>
                  <defs>
                    <clipPath id="path-journal-sp1"><path d="m14.1 3.18c-4.2 0-7.02 1.26-8.88 2.94-2.089 1.861-3.289 4.522-3.3 7.32 0 5.1 3.6 8.58 8.7 11.88 6.3 4.02 7.5 6.72 7.5 9.24.146 3.863-2.867 7.114-6.73 7.26-.177.007-.354.007-.53 0-2.28 0-6.24-1.5-7.8-4.8-.84-1.86-1.74-3.42-2.22-3.42-.24 0-.84.9-.84 1.14 0 .96.6 3.6.9 5.64.279.753.756 1.416 1.38 1.92 2.515.955 5.171 1.482 7.86 1.56 2.858-.023 5.665-.766 8.16-2.16 2.949-1.822 4.794-4.996 4.92-8.46 0-5.4-3.66-8.52-8.28-11.64-5.28-3.54-8.34-5.4-8.34-9.66-.152-3.723 2.743-6.865 6.467-7.016.144-.006.289-.007.433-.004 1.535-.032 3.035.455 4.26 1.38 1.358 1.142 2.376 2.637 2.94 4.32.167.681.743 1.185 1.44 1.26.42 0 .42-.6.42-1.62 0-.24-.48-3.72-.6-4.86 0-.12-.36-1.02-.72-1.14-2.34-.593-4.73-.956-7.14-1.08zm25.98 37.38c-1.465.155-2.932-.276-4.08-1.2-.973-.843-1.523-2.073-1.5-3.36 0-2.7.24-14.04.18-16.08 0-.36-.24-.9-.48-.9s-4.68.66-6.36.66c-.72 0-1.02.36-1.02.54 0 .54.54.84 1.08 1.08 1.02.42 2.16.66 2.22 2.34.12 3.18.12 9.96.12 14.28.041.995.33 1.965.84 2.82 1.146 1.798 3.148 2.867 5.28 2.82 1.374.026 2.74-.219 4.02-.72 1.708-.906 3.352-1.929 4.92-3.06.12-.06.3.12.3.42-.06 1.02-.24 2.16-.24 2.52 0 .42.36.84.6.84.709-.144 1.41-.324 2.1-.54 1.79-.512 3.615-.894 5.46-1.14.306-.078.553-.303.66-.6-.06-.18-.48-1.14-.72-1.14-.72 0-2.58.3-3 .3-.48 0-.72-.72-.72-.84 0-4.92.48-18.24.6-19.92 0-.24-.12-.9-.42-.9-.49.006-.975.087-1.44.24-2.11.452-4.262.674-6.42.66-.6 0-1.38.3-1.38.54 0 .48.78.84 1.2.96.54.12 1.86.48 2.76.72.498.292.864.765 1.02 1.32l-.12 13.8c-.178.546-.487 1.041-.9 1.44-1.224 1.215-2.839 1.959-4.56 2.1zm25.8-21.96c-1.687-.041-3.351.396-4.8 1.26-2 1.066-3.264 3.134-3.3 5.4.128 2.521 1.53 4.804 3.72 6.06 1.86 1.2 2.22 1.5 3.66 2.52 1.86 1.14 2.7 2.4 2.7 4.02.018 1.244-.482 2.439-1.38 3.3-.697.524-1.53.836-2.4.9-2.16 0-3.78-1.2-5.46-4.26-.36-.66-.78-1.38-1.26-1.38-.36 0-.48.6-.48 1.26.063 1.557.367 3.095.9 4.56 1.02.84 4.02 1.32 5.82 1.32 1.771-.015 3.508-.491 5.04-1.38 1.5-1.08 3.48-3.12 3.48-5.88 0-2.7-1.32-4.74-4.68-6.72-4.02-2.22-5.94-3.78-5.94-5.82 0-1.26 1.14-3.72 3.6-3.72 1.98 0 3.48 1.2 4.8 4.02.3.66.66 1.02.9 1.02.48 0 .72-.54.72-1.08 0-.42-.18-2.46-.18-3.54-.041-.333-.214-.635-.48-.84-.619-.278-1.261-.499-1.92-.66-1.002-.238-2.03-.359-3.06-.36zm17.64.84c-.248-.037-.443-.232-.48-.48v-2.82c-.182-.322-.484-.56-.84-.66-.24 0-.66.48-1.38 1.32-1.489 1.503-3.094 2.888-4.8 4.14-.198.168-.326.403-.36.66 0 .18.36.48.84.66 1.2.36 2.28.78 2.28 1.2 0 2.1-.24 11.1-.24 13.32-.129 1.368.142 2.743.78 3.96 1.175 1.766 3.158 2.826 5.28 2.82 2.407.014 4.719-.937 6.42-2.64.445-.388.742-.918.84-1.5 0-.54-.3-.66-.36-.66-.24 0-.36.06-.9.36-.896.527-1.903.835-2.94.9-1.323.117-2.638-.292-3.66-1.14-.756-.782-1.129-1.858-1.02-2.94 0-2.88.06-11.7.12-12.9.075-.239.29-.406.54-.42h6.54c.42 0 1.56-.12 1.56-.66-.018-.763-.078-1.524-.18-2.28 0-.18-.6-.48-.66-.48-.239 0-6.059.24-7.38.24zm21.36-.84c-2.014.307-3.927 1.089-5.58 2.28-2.82 1.86-4.5 3.54-4.5 5.28.042.39.334.707.72.78 1.363-.527 2.67-1.19 3.9-1.98.177-.184.301-.412.36-.66-.12-1.2.06-2.28.42-2.46.731-.471 1.591-.702 2.46-.66 2.352-.034 4.36 1.69 4.68 4.02 0 .72-.06 4.38-.12 4.92 0 .36-.36.66-1.74 1.08-1.32.42-6.12 1.74-7.02 2.1-.911.295-1.735.811-2.4 1.5-.699.871-1.099 1.944-1.14 3.06 0 3 2.04 5.58 4.14 5.58.811-.027 1.616-.148 2.4-.36 1.912-.682 3.727-1.61 5.4-2.76.12-.06.36.18.36.24.461 1.749 2.031 2.976 3.84 3 2.7 0 5.4-2.58 5.4-3.72.01-.215-.053-.427-.18-.6-.12-.18-.18-.3-.36-.18-.698.438-1.471.743-2.28.9-.48 0-2.4-.24-2.4-3 0-.66.24-8.22.24-10.56 0-2.52-.3-3.72-1.2-4.98-1.162-1.843-3.224-2.919-5.4-2.82zm-1.8 21.72c-2.026.019-3.7-1.576-3.78-3.6-.095-.932.377-1.831 1.2-2.28 1.937-.963 4.029-1.573 6.18-1.8.248.038.443.232.48.48 0 1.2 0 3.24-.12 4.68-.112.552-.359 1.068-.72 1.5-.991.575-2.098.924-3.24 1.02zm22.08 2.52c1.26 0 4.26.18 4.68.18.66 0 1.38-.24 1.38-.6 0-.42-.36-.72-1.32-1.02-1.5-.48-2.82-.6-2.88-2.52-.06-2.1-.12-4.62-.12-7.98 0-3.42.36-11.22.36-11.88 0-.06-.3-.66-.54-.66-.9.24-3.72 1.56-5.94 2.04-.66.12-1.2.6-1.2 1.02 0 .24.12.42.48.66 1.74 1.26 2.4 1.74 2.46 2.16.12.72.06 7.56.06 9.36.029 2.063-.052 4.125-.24 6.18-.12.6-1.02 1.32-2.4 1.68-1.02.3-1.44.6-1.44.96 0 .42.6.66 1.56.66 1.02-.001 3.12-.241 5.1-.24zm-.12-36.42c-.848-.027-1.678.249-2.34.78-.435.64-.684 1.387-.72 2.16-.003.829.32 1.627.9 2.22.553.427 1.222.678 1.92.72 1.546-.151 2.761-1.391 2.88-2.94 0-1.08-1.02-2.94-2.64-2.94zm9.84 15.06c0 .18.36.48 1.14 1.02 1.32 1.08 1.44 1.68 1.44 2.34 0 6.12-.12 11.34-.3 13.14-.18 2.16-.54 2.76-2.52 3.36-.66.18-1.26.48-1.26.9 0 .54.66.78 1.56.78 1.02 0 2.76-.18 4.98-.18 1.26 0 2.94.06 3.66.06.84 0 1.5-.3 1.5-.72 0-.36-.48-.72-1.08-.9-1.92-.54-2.16-1.02-2.22-1.86-.06-.72-.06-13.62-.06-14.4.053-.529.262-1.03.6-1.44 1.457-1.319 3.376-2.009 5.34-1.92 1.355.052 2.676.444 3.84 1.14 1.187 1.168 1.839 2.775 1.8 4.44 0 1.74-.06 9-.18 10.98s-.42 2.46-1.86 3c-.72.24-1.38.6-1.38 1.02 0 .48.84.72 1.38.72.78 0 2.64-.12 4.14-.12 1.68 0 3.06.12 4.44.12.96 0 1.8-.24 1.8-.66s-.36-.72-1.5-1.02c-1.5-.42-2.1-1.2-2.22-2.1-.06-.84-.18-9.78-.18-10.92 0-3-.78-5.76-2.1-7.32-1.39-1.535-3.391-2.37-5.46-2.28-2.52 0-5.64 1.68-8.04 3.3-.06 0-.36.12-.36-.18 0-.54.24-1.98.24-3 0-.24-.3-.9-.6-.9-.519.122-1.009.347-1.44.66-1.279.712-2.625 1.295-4.02 1.74-.42.18-1.08.78-1.08 1.2zm39.84-2.88c-2.014.307-3.927 1.089-5.58 2.28-2.82 1.86-4.5 3.54-4.5 5.28.042.39.334.707.72.78 1.363-.527 2.67-1.19 3.9-1.98.177-.184.301-.412.36-.66-.12-1.2.06-2.28.42-2.46.731-.471 1.591-.702 2.46-.66 2.352-.034 4.359 1.69 4.68 4.02 0 .72-.06 4.38-.12 4.92 0 .36-.36.66-1.74 1.08-1.32.42-6.12 1.74-7.02 2.1-.911.295-1.735.811-2.4 1.5-.699.871-1.099 1.944-1.14 3.06 0 3 2.04 5.58 4.14 5.58.811-.027 1.617-.148 2.4-.36 1.912-.682 3.727-1.61 5.4-2.76.12-.06.36.18.36.24.461 1.749 2.031 2.976 3.84 3 2.7 0 5.4-2.58 5.4-3.72.01-.215-.053-.427-.18-.6-.12-.18-.18-.3-.36-.18-.698.438-1.471.743-2.28.9-.48 0-2.4-.24-2.4-3 0-.66.24-8.22.24-10.56 0-2.52-.3-3.72-1.2-4.98-1.162-1.843-3.224-2.919-5.4-2.82zm-1.8 21.72c-2.026.019-3.7-1.576-3.78-3.6-.095-.932.378-1.831 1.2-2.28 1.936-.963 4.029-1.573 6.18-1.8.248.038.442.232.48.48 0 1.2 0 3.24-.12 4.68-.112.552-.359 1.068-.72 1.5-.991.575-2.098.925-3.24 1.02zm40.38-10.02c.088-3.458-1.363-6.776-3.96-9.06-2.085-1.74-4.724-2.677-7.44-2.64-2.421.061-4.781.765-6.84 2.04-.06.06-.36-.12-.36-.24-.12-.66-.12-3.6-.12-5.16 0-4.8.36-10.5.54-14.46 0-.24-.42-.78-.66-.78-.534.162-1.04.405-1.5.72-1.587.751-3.233 1.373-4.92 1.86-.29.233-.534.518-.72.84 0 .3.3.48 1.2 1.14.706.501 1.232 1.217 1.5 2.04.12.84.3 9.72.3 15.42 0 4.92-.06 15.24-.36 19.92 0 .42.12.78.36.78.249-.016.493-.077.72-.18.38-.222.833-.287 1.26-.18 2.486.689 5.042 1.092 7.62 1.2 2.939-.005 5.798-.951 8.16-2.7 3.301-2.505 5.234-6.416 5.22-10.56zm-4.98 1.26c0 2.7-1.08 6.42-2.76 8.04-1.004 1.011-2.272 1.718-3.66 2.04-2.09-.192-4.054-1.079-5.58-2.52-.778-.804-1.209-1.881-1.2-3-.3-3.24-.48-6.48-.48-9.6 0-1.26.06-2.94.12-3.48.043-.349.214-.67.48-.9 1.077-.667 2.336-.981 3.6-.9 2.432-.022 4.778.903 6.54 2.58 1.837 2.167 2.875 4.899 2.94 7.74zm9.6-28.32c0 .24.18.42 1.2 1.14 1.38.84 1.38 1.2 1.44 1.68.18 1.62.18 8.1.18 12.54 0 9.48-.18 15.78-.36 18.24-.24 3-.36 4.08-3.12 4.68-.66.12-1.32.42-1.32.84 0 .48.48.66 1.68.66 1.26 0 3.9-.18 5.28-.18 1.08 0 3.66.18 5.1.18.72 0 1.56-.24 1.56-.66 0-.36-.48-.66-1.38-.9-2.58-.72-2.82-1.44-3.06-2.64-.3-1.62-.18-13.08-.18-21.84 0-8.04.36-14.82.54-16.32 0-.24-.36-.72-.54-.6-1.62 1.02-3.42 1.38-6.18 2.34-.66.18-.84.6-.84.84zm25.92 15.42c-1.574.073-3.121.439-4.56 1.08-4.485 2.184-7.295 6.772-7.2 11.76 0 7.02 4.32 11.94 10.8 11.94 3.476.074 6.752-1.62 8.7-4.5.246-.443.389-.935.42-1.44 0-.3-.12-.72-.48-.72-.24 0-.54.36-.78.72-1.02 1.5-2.82 2.16-5.46 2.16-2.629-.003-5.11-1.221-6.72-3.3-1.427-2.001-2.221-4.383-2.28-6.84.003-.71.104-1.417.3-2.1.06-.18.3-.48.48-.48 2.76.06 13.02.06 13.68.06.572-.03 1.046-.455 1.14-1.02.044-1.901-.719-3.732-2.1-5.04-1.619-1.488-3.742-2.303-5.94-2.28zm-.6 1.56c2.04.026 3.74 1.571 3.96 3.6 0 1.2-.6 1.5-2.04 1.5-3 .06-6.18.06-7.74 0-.12 0-.36-.36-.24-.66.874-2.616 3.303-4.395 6.06-4.44z"></path></clipPath>
                    <clipPath id="path-journal-sp2"><path d="m27.28 103.86c0 1.14 1.92 2.34 3.9 2.34 1.56 0 4.08-.78 6.84-2.88 3.06-2.34 6.42-7.62 6.48-14.88 0-5.16.24-22.26.24-27.18 0-3.06 1.02-3.9 3.42-4.38 1.26-.24 1.8-.6 1.8-1.2 0-.48-.9-.6-1.62-.6-1.86 0-4.2.18-6.3.18-2.64 0-4.8-.18-6.66-.18-1.14 0-1.62.24-1.62.72s.48.9 1.86 1.14c3.06.54 3.42 2.04 3.54 3.24.24 2.88.36 9 .36 17.64 0 8.52-.12 15-.36 18.72-.18 2.52-.72 3.96-1.68 4.98-.539.781-1.454 1.216-2.4 1.14-1.129-.152-2.202-.585-3.12-1.26-.577-.34-1.205-.583-1.86-.72-.527.163-1.016.428-1.44.78-.666.662-1.143 1.491-1.38 2.4zm37.62-34.26c-3.262-.015-6.419 1.158-8.88 3.3-2.781 2.295-4.334 5.756-4.2 9.36.198 3.529 1.797 6.833 4.44 9.18 2.233 1.909 5.045 3.008 7.98 3.12 2.679.055 5.298-.79 7.44-2.4 3.27-2.425 5.204-6.249 5.22-10.32.111-6.648-5.188-12.127-11.836-12.239-.054-.001-.108-.001-.164-.001zm-1.14 1.8c1.916.112 3.718.948 5.04 2.34 2.069 2.601 3.134 5.859 3 9.18 0 2.58-1.2 6.3-2.7 7.92-1.68 1.68-3 1.98-3.66 1.98-2.88 0-6.3-2.16-7.8-6.66-.507-1.734-.75-3.534-.72-5.34-.024-2.839 1.026-5.583 2.94-7.68 1.06-1.016 2.438-1.631 3.9-1.74zm29.821 20.16c-1.465.155-2.932-.276-4.08-1.2-.973-.843-1.523-2.073-1.5-3.36 0-2.7.24-14.04.18-16.08 0-.36-.24-.9-.48-.9s-4.68.66-6.36.66c-.72 0-1.02.36-1.02.54 0 .54.54.84 1.08 1.08 1.02.42 2.16.66 2.22 2.34.12 3.18.12 9.96.12 14.28.041.995.33 1.965.84 2.82 1.146 1.798 3.148 2.867 5.28 2.82 1.374.026 2.74-.219 4.02-.72 1.708-.906 3.352-1.929 4.92-3.06.12-.06.3.12.3.42-.06 1.02-.24 2.16-.24 2.52 0 .42.36.84.6.84.709-.144 1.41-.324 2.1-.54 1.79-.512 3.615-.894 5.46-1.14.306-.078.553-.303.66-.6-.06-.18-.48-1.14-.72-1.14-.72 0-2.58.3-3 .3-.48 0-.72-.72-.72-.84 0-4.92.48-18.24.6-19.92 0-.24-.12-.9-.42-.9-.49.006-.975.087-1.44.24-2.11.452-4.262.674-6.42.66-.6 0-1.38.3-1.38.54 0 .48.78.84 1.2.96.54.12 1.86.48 2.76.72.498.292.864.765 1.02 1.32l-.12 13.8c-.178.546-.487 1.041-.9 1.44-1.225 1.215-2.84 1.959-4.56 2.1zm17.159-18.841c0 .24.6.48 2.04 1.62.524.44.776 1.125.66 1.8v11.461c-.06 3.6-.24 4.2-2.58 4.98-.48.18-1.2.42-1.2.78 0 .48.6.72 1.26.72 1.44 0 2.16-.24 3.96-.24 3.48 0 5.58.3 7.08.3.9 0 1.44-.24 1.44-.54 0-.24-.12-.66-1.08-.96-.9-.24-1.98-.54-2.76-.72-1.08-.18-1.44-1.32-1.56-3.06-.06-.9-.36-11.76-.36-12.96.05-.494.261-.958.6-1.32.728-.63 1.682-.933 2.64-.84 1.213.076 2.37.538 3.3 1.32.257.139.549.202.84.18.93-.816 1.756-1.743 2.46-2.76.164-.259.286-.542.36-.84 0-.54-.54-2.04-3-2.04-1.86 0-4.5 1.5-6.84 3.72-.12.06-.42 0-.42-.24 0-1.14.12-2.22.12-3.3 0-.18-.3-.72-.54-.72-.18 0-.48.24-1.2.72-1.42.77-2.906 1.412-4.44 1.92-.443.149-.75.552-.78 1.019zm19.801-.24c0 .18.36.48 1.14 1.02 1.32 1.08 1.44 1.68 1.44 2.34 0 6.12-.12 11.34-.3 13.14-.18 2.16-.54 2.76-2.52 3.36-.66.18-1.26.48-1.26.9 0 .54.66.78 1.56.78 1.02 0 2.76-.18 4.98-.18 1.26 0 2.94.06 3.66.06.84 0 1.5-.3 1.5-.72 0-.36-.48-.72-1.08-.9-1.92-.54-2.16-1.02-2.22-1.86-.06-.72-.06-13.62-.06-14.4.052-.529.261-1.03.6-1.44 1.457-1.319 3.376-2.009 5.34-1.92 1.355.052 2.676.444 3.84 1.14 1.188 1.168 1.839 2.775 1.8 4.44 0 1.74-.06 9-.18 10.98s-.42 2.46-1.86 3c-.72.24-1.38.6-1.38 1.02 0 .48.84.72 1.38.72.78 0 2.64-.12 4.14-.12 1.68 0 3.06.12 4.44.12.96 0 1.8-.24 1.8-.66s-.36-.72-1.5-1.02c-1.5-.42-2.1-1.2-2.22-2.1-.06-.84-.18-9.78-.18-10.92 0-3-.78-5.76-2.1-7.32-1.39-1.535-3.391-2.371-5.46-2.28-2.52 0-5.64 1.68-8.04 3.3-.06 0-.36.12-.36-.18 0-.54.24-1.98.24-3 0-.24-.3-.9-.6-.9-.519.122-1.009.347-1.44.66-1.279.712-2.625 1.295-4.02 1.74-.421.181-1.081.781-1.08 1.2zm39.84-2.879c-2.014.307-3.927 1.089-5.58 2.28-2.82 1.86-4.5 3.54-4.5 5.28.042.39.334.707.72.78 1.363-.527 2.67-1.19 3.9-1.98.177-.184.301-.412.36-.66-.12-1.2.06-2.28.42-2.46.731-.471 1.591-.702 2.46-.66 2.352-.034 4.36 1.69 4.68 4.02 0 .72-.06 4.38-.12 4.92 0 .36-.36.66-1.74 1.08-1.32.42-6.12 1.74-7.02 2.1-.911.295-1.735.811-2.4 1.5-.699.871-1.099 1.944-1.14 3.06 0 3 2.04 5.58 4.14 5.58.811-.027 1.616-.148 2.4-.36 1.912-.682 3.727-1.61 5.4-2.76.12-.06.36.18.36.24.461 1.749 2.031 2.976 3.84 3 2.7 0 5.4-2.58 5.4-3.72.01-.215-.053-.427-.18-.6-.12-.18-.18-.3-.36-.18-.698.438-1.471.743-2.28.9-.48 0-2.4-.24-2.4-3 0-.66.24-8.22.24-10.56 0-2.52-.3-3.72-1.2-4.98-1.163-1.843-3.225-2.919-5.4-2.82zm-1.8 21.72c-2.026.019-3.7-1.576-3.78-3.6-.095-.932.377-1.831 1.2-2.28 1.937-.963 4.029-1.573 6.18-1.8.248.038.443.232.48.48 0 1.2 0 3.24-.12 4.68-.112.552-.359 1.068-.72 1.5-.992.575-2.099.924-3.24 1.02zm16.26-37.08c0 .24.18.42 1.2 1.14 1.38.84 1.38 1.2 1.44 1.68.18 1.62.18 8.1.18 12.54 0 9.48-.18 15.78-.36 18.24-.24 3-.36 4.08-3.12 4.68-.66.12-1.32.42-1.32.84 0 .48.48.66 1.68.66 1.26 0 3.9-.18 5.28-.18 1.08 0 3.66.18 5.1.18.72 0 1.56-.24 1.56-.66 0-.36-.48-.66-1.38-.9-2.58-.72-2.82-1.44-3.06-2.64-.3-1.62-.18-13.08-.18-21.84 0-8.04.36-14.82.54-16.32 0-.24-.36-.72-.54-.6-1.62 1.02-3.42 1.38-6.18 2.34-.66.179-.841.6-.84.84z"></path></clipPath>
                  </defs>
                </svg>