<svg class="u-show-sp" enable-background="new 0 0 245 74" viewBox="0 0 245 74" xmlns="http://www.w3.org/2000/svg">
                        <path class="text-stroke text-stroke-sp" data-clip-path="path-activity-sp" d="m27.92 0c-.4 0-.72.4-1.28 1.04-.56.88-1.44 2.4-1.92 3.2-.22.439-.408.893-.56 1.36-.193.709-.434 1.404-.72 2.08-3.36 8.16-12.48 32.32-14.32 36.4-2.32 5.2-3.36 5.44-7.36 6.8-1.2.4-1.76 1.12-1.76 1.6s.4.8 1.84.8c1.2 0 5.36-.4 8.32-.4s4.96.24 6.32.24c1.04 0 2.24-.24 2.24-1.04 0-.56-.8-1.04-2.16-1.44-3.6-1.12-3.92-2.48-3.92-3.44 0-2 2.08-8.8 4.16-14 .16-.24.56-.64.88-.64 1.68-.24 8.72-.32 13.12-.32 2.32 0 2.64.48 2.72.8 1.84 5.12 3.84 10.4 4.48 13.68.32 1.68.64 3.28-3.2 4.08-1.44.24-1.92.88-1.92 1.28s.48.96 2.48.96 3.12-.16 5.68-.16c3.52 0 7.44.4 10.08.4 2 0 2.56-.48 2.56-1.04s-.64-.96-1.92-1.36c-3.6-.88-4.88-1.52-7.52-8.08-1.36-3.28-7.36-19.12-11.52-30.8-1.52-4.16-2.88-7.76-3.52-9.92-.64-1.76-.96-2.08-1.28-2.08zm3.6 28.64c-2.64.24-9.28.16-12.48.24-.22.019-.414-.144-.433-.365-.006-.067.005-.134.033-.195.64-2.48 4.8-13.68 6.24-17.52.24-.56.4-.48.64 0 .72 1.12 4.88 13.12 6.24 17.2.039.241-.052.484-.24.64zm42.08-7.84c-3.721.216-7.327 1.372-10.48 3.36-4.765 3-7.686 8.21-7.76 13.84.037 3.277.89 6.494 2.48 9.36 2.632 3.974 7.073 6.375 11.84 6.4 4.354-.022 8.512-1.812 11.52-4.96.644-.602 1.019-1.438 1.04-2.32 0-.4-.64-.64-1.52 0-2.046 1.559-4.548 2.402-7.12 2.4-4.065.094-7.885-1.938-10.08-5.36-1.431-2.419-2.151-5.191-2.08-8-.052-3.376 1.145-6.652 3.36-9.2 1.254-1.496 3.024-2.467 4.96-2.72 2.72 0 4.08 1.2 6.72 3.12.927.711 1.988 1.228 3.12 1.52.32 0 2.64-1.92 2.64-3.2-.077-.924-.507-1.784-1.2-2.4-1.52-1.2-5.04-1.84-7.44-1.84zm23.68.88c-.33-.05-.59-.31-.64-.64v-3.76c-.242-.43-.645-.747-1.12-.88-.32 0-.88.64-1.84 1.76-1.985 2.005-4.125 3.85-6.4 5.52-.264.223-.435.537-.48.88 0 .24.48.64 1.12.88 1.6.48 3.04 1.04 3.04 1.6 0 2.8-.32 14.8-.32 17.76 0 2.24.16 3.92 1.04 5.28 1.567 2.355 4.211 3.767 7.04 3.76 3.209.019 6.292-1.249 8.56-3.52.594-.517.989-1.224 1.12-2 0-.72-.4-.88-.48-.88-.32 0-.48.08-1.2.48-1.194.703-2.537 1.114-3.92 1.2-1.763.157-3.517-.39-4.88-1.52-1.008-1.043-1.506-2.477-1.36-3.92 0-3.84.08-15.6.16-17.2.1-.319.387-.542.72-.56h8.72c.56 0 2.08-.16 2.08-.88-.024-1.017-.104-2.032-.24-3.04 0-.24-.8-.64-.88-.64-.32 0-8.08.32-9.84.32zm22.72 31.2c1.68 0 5.68.24 6.24.24.88 0 1.84-.32 1.84-.8 0-.56-.48-.96-1.76-1.36-2-.64-3.76-.8-3.84-3.36-.08-2.8-.16-6.16-.16-10.64 0-4.56.48-14.96.48-15.84 0-.08-.4-.88-.72-.88-1.2.32-4.96 2.08-7.92 2.72-.88.16-1.6.8-1.6 1.36 0 .32.16.56.64.88 2.32 1.68 3.2 2.32 3.28 2.88.16.96.08 10.08.08 12.48.038 2.75-.069 5.501-.32 8.24-.16.8-1.36 1.76-3.2 2.24-1.36.4-1.92.8-1.92 1.28 0 .56.8.88 2.08.88 1.36 0 4.16-.32 6.8-.32zm-.16-48.56c-1.131-.037-2.237.332-3.12 1.04-.58.853-.912 1.85-.96 2.88-.004 1.106.427 2.169 1.2 2.96.738.57 1.63.904 2.56.96 2.062-.202 3.681-1.855 3.84-3.92 0-1.44-1.36-3.92-3.52-3.92zm8.72 17.84c0 .48.32.8 1.52 1.2 1.462.326 2.697 1.297 3.36 2.64 3.109 6.113 5.886 12.388 8.32 18.8 1.84 4.64 2 5.52 2.88 8.16.24.88.72 1.44 1.04 1.44.64 0 1.52-.8 1.92-2.08 1.019-3.632 2.221-7.209 3.6-10.72 2.4-5.6 5.44-13.36 6.56-15.12.993-1.415 2.386-2.502 4-3.12 1.2-.48 1.68-.72 1.68-1.2s-.8-.88-1.6-.88c-1.52 0-4 .4-5.44.4-2 0-2.72-.24-4.32-.24-1.04 0-1.6.4-1.6.88s.64.8 1.28 1.04c2.4.88 3.12 1.36 2.48 3.44-.72 2.48-5.04 13.6-6.08 16.08-.16.32-.48.56-.64.32-.56-.48-4.8-10-7.12-16.88-.32-.96-.56-2.08 1.76-2.72 1.04-.32 1.76-.64 1.76-1.2s-.64-.88-1.84-.88c-.88 0-2.88.16-4.96.16-.88 0-5.2-.4-6.64-.4-.72 0-1.92.32-1.92.88zm44.96 30.72c1.68 0 5.68.24 6.24.24.88 0 1.84-.32 1.84-.8 0-.56-.48-.96-1.76-1.36-2-.64-3.76-.8-3.84-3.36-.08-2.8-.16-6.16-.16-10.64 0-4.56.48-14.96.48-15.84 0-.08-.4-.88-.72-.88-1.2.32-4.96 2.08-7.92 2.72-.88.16-1.6.8-1.6 1.36 0 .32.16.56.64.88 2.32 1.68 3.2 2.32 3.28 2.88.16.96.08 10.08.08 12.48.038 2.75-.069 5.501-.32 8.24-.16.8-1.36 1.76-3.2 2.24-1.36.4-1.92.8-1.92 1.28 0 .56.8.88 2.08.88 1.36 0 4.16-.32 6.8-.32zm-.16-48.56c-1.131-.037-2.237.332-3.12 1.04-.58.853-.912 1.85-.96 2.88-.004 1.106.427 2.169 1.2 2.96.738.57 1.63.904 2.56.96 2.062-.202 3.681-1.855 3.84-3.92 0-1.44-1.36-3.92-3.52-3.92zm22.48 17.36c-.33-.05-.59-.31-.64-.64v-3.76c-.242-.43-.645-.747-1.12-.88-.32 0-.88.64-1.84 1.76-1.985 2.005-4.125 3.85-6.4 5.52-.264.223-.435.537-.48.88 0 .24.48.64 1.12.88 1.6.48 3.04 1.04 3.04 1.6 0 2.8-.32 14.8-.32 17.76 0 2.24.16 3.92 1.04 5.28 1.567 2.355 4.211 3.767 7.04 3.76 3.209.019 6.292-1.249 8.56-3.52.594-.517.989-1.224 1.12-2 0-.72-.4-.88-.48-.88-.32 0-.48.08-1.2.48-1.194.703-2.537 1.114-3.92 1.2-1.763.157-3.517-.39-4.88-1.52-1.008-1.043-1.506-2.477-1.36-3.92 0-3.84.08-15.6.16-17.2.1-.319.387-.542.72-.56h8.72c.56 0 2.08-.16 2.08-.88-.024-1.017-.104-2.032-.24-3.04 0-.24-.8-.64-.88-.64-.32 0-8.08.32-9.84.32zm13.68.64c0 .48.48.8 1.6 1.2 2.64.88 3.04 1.68 3.76 3.12 2.48 5.04 7.44 16.96 9.12 21.68.32.88.96 2.72 1.2 3.28.32.72 0 1.76-.24 2.88-1.091 3.507-2.373 6.953-3.84 10.32-.32.8-.48 1.36-1.2 1.36-.8 0-2.48-.08-2.88-.08-1.905.091-3.429 1.615-3.52 3.52 0 1.68.88 3.92 3.6 3.92 2.32 0 3.84-1.2 4.16-2.24 2.56-6.8 5.52-15.04 8.32-22.32 1.84-4.64 6.16-15.36 8.8-21.36 1.2-2.64 2.24-3.6 3.92-4.16.96-.32 1.76-.64 1.76-1.36 0-.56-.56-.72-1.6-.72-2.08 0-3.92.32-5.04.32-1.04 0-3.2-.08-4.72-.08-.96 0-2 .16-2 .88 0 .32.72.88 1.68 1.12 3.12.72 3.76 1.68 3.04 3.92-.4 1.28-5.36 14.24-6.32 16.4-.24.48-.56.48-.64.32-.64-.96-5.76-13.52-6.96-17.36-.8-2.08-.56-2.48 1.68-3.12 1.28-.32 1.84-.8 1.84-1.36 0-.64-1.12-.88-1.76-.88-.96 0-3.36.16-5.6.16-2.32 0-4.24-.32-6.24-.32-1.68 0-1.92.64-1.92.96z" style="clip-path: url(&quot;#path-activity-sp&quot;);"></path>
                        <defs>
                          <clipPath id="path-activity-sp"><path d="m27.92 0c-.4 0-.72.4-1.28 1.04-.56.88-1.44 2.4-1.92 3.2-.22.439-.408.893-.56 1.36-.193.709-.434 1.404-.72 2.08-3.36 8.16-12.48 32.32-14.32 36.4-2.32 5.2-3.36 5.44-7.36 6.8-1.2.4-1.76 1.12-1.76 1.6s.4.8 1.84.8c1.2 0 5.36-.4 8.32-.4s4.96.24 6.32.24c1.04 0 2.24-.24 2.24-1.04 0-.56-.8-1.04-2.16-1.44-3.6-1.12-3.92-2.48-3.92-3.44 0-2 2.08-8.8 4.16-14 .16-.24.56-.64.88-.64 1.68-.24 8.72-.32 13.12-.32 2.32 0 2.64.48 2.72.8 1.84 5.12 3.84 10.4 4.48 13.68.32 1.68.64 3.28-3.2 4.08-1.44.24-1.92.88-1.92 1.28s.48.96 2.48.96 3.12-.16 5.68-.16c3.52 0 7.44.4 10.08.4 2 0 2.56-.48 2.56-1.04s-.64-.96-1.92-1.36c-3.6-.88-4.88-1.52-7.52-8.08-1.36-3.28-7.36-19.12-11.52-30.8-1.52-4.16-2.88-7.76-3.52-9.92-.64-1.76-.96-2.08-1.28-2.08zm3.6 28.64c-2.64.24-9.28.16-12.48.24-.22.019-.414-.144-.433-.365-.006-.067.005-.134.033-.195.64-2.48 4.8-13.68 6.24-17.52.24-.56.4-.48.64 0 .72 1.12 4.88 13.12 6.24 17.2.039.241-.052.484-.24.64zm42.08-7.84c-3.721.216-7.327 1.372-10.48 3.36-4.765 3-7.686 8.21-7.76 13.84.037 3.277.89 6.494 2.48 9.36 2.632 3.974 7.073 6.375 11.84 6.4 4.354-.022 8.512-1.812 11.52-4.96.644-.602 1.019-1.438 1.04-2.32 0-.4-.64-.64-1.52 0-2.046 1.559-4.548 2.402-7.12 2.4-4.065.094-7.885-1.938-10.08-5.36-1.431-2.419-2.151-5.191-2.08-8-.052-3.376 1.145-6.652 3.36-9.2 1.254-1.496 3.024-2.467 4.96-2.72 2.72 0 4.08 1.2 6.72 3.12.927.711 1.988 1.228 3.12 1.52.32 0 2.64-1.92 2.64-3.2-.077-.924-.507-1.784-1.2-2.4-1.52-1.2-5.04-1.84-7.44-1.84zm23.68.88c-.33-.05-.59-.31-.64-.64v-3.76c-.242-.43-.645-.747-1.12-.88-.32 0-.88.64-1.84 1.76-1.985 2.005-4.125 3.85-6.4 5.52-.264.223-.435.537-.48.88 0 .24.48.64 1.12.88 1.6.48 3.04 1.04 3.04 1.6 0 2.8-.32 14.8-.32 17.76 0 2.24.16 3.92 1.04 5.28 1.567 2.355 4.211 3.767 7.04 3.76 3.209.019 6.292-1.249 8.56-3.52.594-.517.989-1.224 1.12-2 0-.72-.4-.88-.48-.88-.32 0-.48.08-1.2.48-1.194.703-2.537 1.114-3.92 1.2-1.763.157-3.517-.39-4.88-1.52-1.008-1.043-1.506-2.477-1.36-3.92 0-3.84.08-15.6.16-17.2.1-.319.387-.542.72-.56h8.72c.56 0 2.08-.16 2.08-.88-.024-1.017-.104-2.032-.24-3.04 0-.24-.8-.64-.88-.64-.32 0-8.08.32-9.84.32zm22.72 31.2c1.68 0 5.68.24 6.24.24.88 0 1.84-.32 1.84-.8 0-.56-.48-.96-1.76-1.36-2-.64-3.76-.8-3.84-3.36-.08-2.8-.16-6.16-.16-10.64 0-4.56.48-14.96.48-15.84 0-.08-.4-.88-.72-.88-1.2.32-4.96 2.08-7.92 2.72-.88.16-1.6.8-1.6 1.36 0 .32.16.56.64.88 2.32 1.68 3.2 2.32 3.28 2.88.16.96.08 10.08.08 12.48.038 2.75-.069 5.501-.32 8.24-.16.8-1.36 1.76-3.2 2.24-1.36.4-1.92.8-1.92 1.28 0 .56.8.88 2.08.88 1.36 0 4.16-.32 6.8-.32zm-.16-48.56c-1.131-.037-2.237.332-3.12 1.04-.58.853-.912 1.85-.96 2.88-.004 1.106.427 2.169 1.2 2.96.738.57 1.63.904 2.56.96 2.062-.202 3.681-1.855 3.84-3.92 0-1.44-1.36-3.92-3.52-3.92zm8.72 17.84c0 .48.32.8 1.52 1.2 1.462.326 2.697 1.297 3.36 2.64 3.109 6.113 5.886 12.388 8.32 18.8 1.84 4.64 2 5.52 2.88 8.16.24.88.72 1.44 1.04 1.44.64 0 1.52-.8 1.92-2.08 1.019-3.632 2.221-7.209 3.6-10.72 2.4-5.6 5.44-13.36 6.56-15.12.993-1.415 2.386-2.502 4-3.12 1.2-.48 1.68-.72 1.68-1.2s-.8-.88-1.6-.88c-1.52 0-4 .4-5.44.4-2 0-2.72-.24-4.32-.24-1.04 0-1.6.4-1.6.88s.64.8 1.28 1.04c2.4.88 3.12 1.36 2.48 3.44-.72 2.48-5.04 13.6-6.08 16.08-.16.32-.48.56-.64.32-.56-.48-4.8-10-7.12-16.88-.32-.96-.56-2.08 1.76-2.72 1.04-.32 1.76-.64 1.76-1.2s-.64-.88-1.84-.88c-.88 0-2.88.16-4.96.16-.88 0-5.2-.4-6.64-.4-.72 0-1.92.32-1.92.88zm44.96 30.72c1.68 0 5.68.24 6.24.24.88 0 1.84-.32 1.84-.8 0-.56-.48-.96-1.76-1.36-2-.64-3.76-.8-3.84-3.36-.08-2.8-.16-6.16-.16-10.64 0-4.56.48-14.96.48-15.84 0-.08-.4-.88-.72-.88-1.2.32-4.96 2.08-7.92 2.72-.88.16-1.6.8-1.6 1.36 0 .32.16.56.64.88 2.32 1.68 3.2 2.32 3.28 2.88.16.96.08 10.08.08 12.48.038 2.75-.069 5.501-.32 8.24-.16.8-1.36 1.76-3.2 2.24-1.36.4-1.92.8-1.92 1.28 0 .56.8.88 2.08.88 1.36 0 4.16-.32 6.8-.32zm-.16-48.56c-1.131-.037-2.237.332-3.12 1.04-.58.853-.912 1.85-.96 2.88-.004 1.106.427 2.169 1.2 2.96.738.57 1.63.904 2.56.96 2.062-.202 3.681-1.855 3.84-3.92 0-1.44-1.36-3.92-3.52-3.92zm22.48 17.36c-.33-.05-.59-.31-.64-.64v-3.76c-.242-.43-.645-.747-1.12-.88-.32 0-.88.64-1.84 1.76-1.985 2.005-4.125 3.85-6.4 5.52-.264.223-.435.537-.48.88 0 .24.48.64 1.12.88 1.6.48 3.04 1.04 3.04 1.6 0 2.8-.32 14.8-.32 17.76 0 2.24.16 3.92 1.04 5.28 1.567 2.355 4.211 3.767 7.04 3.76 3.209.019 6.292-1.249 8.56-3.52.594-.517.989-1.224 1.12-2 0-.72-.4-.88-.48-.88-.32 0-.48.08-1.2.48-1.194.703-2.537 1.114-3.92 1.2-1.763.157-3.517-.39-4.88-1.52-1.008-1.043-1.506-2.477-1.36-3.92 0-3.84.08-15.6.16-17.2.1-.319.387-.542.72-.56h8.72c.56 0 2.08-.16 2.08-.88-.024-1.017-.104-2.032-.24-3.04 0-.24-.8-.64-.88-.64-.32 0-8.08.32-9.84.32zm13.68.64c0 .48.48.8 1.6 1.2 2.64.88 3.04 1.68 3.76 3.12 2.48 5.04 7.44 16.96 9.12 21.68.32.88.96 2.72 1.2 3.28.32.72 0 1.76-.24 2.88-1.091 3.507-2.373 6.953-3.84 10.32-.32.8-.48 1.36-1.2 1.36-.8 0-2.48-.08-2.88-.08-1.905.091-3.429 1.615-3.52 3.52 0 1.68.88 3.92 3.6 3.92 2.32 0 3.84-1.2 4.16-2.24 2.56-6.8 5.52-15.04 8.32-22.32 1.84-4.64 6.16-15.36 8.8-21.36 1.2-2.64 2.24-3.6 3.92-4.16.96-.32 1.76-.64 1.76-1.36 0-.56-.56-.72-1.6-.72-2.08 0-3.92.32-5.04.32-1.04 0-3.2-.08-4.72-.08-.96 0-2 .16-2 .88 0 .32.72.88 1.68 1.12 3.12.72 3.76 1.68 3.04 3.92-.4 1.28-5.36 14.24-6.32 16.4-.24.48-.56.48-.64.32-.64-.96-5.76-13.52-6.96-17.36-.8-2.08-.56-2.48 1.68-3.12 1.28-.32 1.84-.8 1.84-1.36 0-.64-1.12-.88-1.76-.88-.96 0-3.36.16-5.6.16-2.32 0-4.24-.32-6.24-.32-1.68 0-1.92.64-1.92.96z"></path></clipPath>
                        </defs>
                      </svg>