<svg enable-background="new 0 0 37 30" viewBox="0 0 37 30" xmlns="http://www.w3.org/2000/svg"><path d="m11.579 29.999c13.931 0 21.549-11.543 21.549-21.549 0-.33 0-.66-.016-.974 1.484-1.075 2.765-2.405 3.785-3.927-1.384.61-2.85 1.012-4.351 1.194 1.584-.945 2.768-2.437 3.33-4.194-1.487.879-3.112 1.5-4.806 1.838-2.866-3.049-7.662-3.198-10.711-.332-1.522 1.431-2.386 3.426-2.388 5.515-.006.582.061 1.163.2 1.728-6.092-.303-11.767-3.181-15.612-7.915-2.006 3.46-.974 7.885 2.356 10.099-1.201-.033-2.375-.356-3.424-.942v.094c.001 3.607 2.543 6.714 6.079 7.429-.65.178-1.321.267-1.995.267-.48.001-.959-.047-1.429-.141.985 3.087 3.828 5.204 7.068 5.262-2.685 2.102-5.998 3.241-9.407 3.236-.605.002-1.208-.035-1.807-.111 3.443 2.244 7.466 3.434 11.575 3.424" fill="#fff"/></svg>