<svg enable-background="new 0 0 106 55" viewBox="0 0 106 55" xmlns="http://www.w3.org/2000/svg"><g transform="translate(-7490.203 -1.837)"><path d="m7491.3 56.808c15.551-.165 31.1-.837 46.674-.733 7.781.062 15.572.289 23.373.341 10.953.072 21.937-.424 32.88 0 1.457.051 1.457-1.767 0-1.819-10.953-.392-21.927.114-32.88 0l-23.414-.186c-15.562-.124-31.082.413-46.633.578-1.457 0-1.467 1.849 0 1.818"/><path d="m7491.093 31.658-.279-24.8v-.331c0-2.067.227-3.358.651-3.916.188-.265.491-.426.816-.434 1.827-.007 3.502 1.016 4.33 2.645 1.109 2.352 1.64 4.934 1.55 7.533-.017 2.1-.33 4.187-.93 6.2-.44 1.517-1.193 2.925-2.211 4.133 1.629 1.666 2.794 3.728 3.379 5.983.689 2.473 1.036 5.028 1.033 7.595-.009 1.468-.25 2.926-.713 4.319-.362 1.221-.84 2.404-1.426 3.534-.455.861-1.089 1.615-1.86 2.211-.715.582-1.61.897-2.532.889h-.165c-1.2 0-1.808-.475-1.808-1.426zm2.386-26.256c-.361 0-.558.682-.558 2.066s0 4.3.083 7.233.072 5.838.072 7.171c.672-.227 1.25-1.033 1.726-2.469.4-1.2.723-3.1.971-4.226s.413-1.8.5-2.066v-2.067c-.007-1.392-.292-2.77-.837-4.051-.579-1.034-1.22-1.6-1.953-1.6m2.822 36.165c.765-1.569 1.142-3.298 1.1-5.043.018-1.683-.089-3.365-.32-5.032-.134-1.111-.368-2.207-.7-3.275-.23-.661-.532-1.295-.9-1.891-.241-.467-.596-.865-1.033-1.157-.444-.187-.909-.319-1.385-.393.134 5.28.186 12.028.186 19.426 1.389-.346 2.536-1.321 3.1-2.635"/><path d="m7514.477 28.65-.341 7.233v.248c-.165 1.14-.248 2.29-.248 3.441.001 1.208-.145 2.412-.434 3.585-.265 1.085-.716 2.116-1.333 3.048-.38.745-1.111 1.246-1.943 1.333-.771-.03-1.487-.41-1.943-1.033-.639-.816-1.125-1.74-1.436-2.728-.432-1.302-.777-2.631-1.033-3.978-.289-1.55-.517-3.048-.682-4.516s-.279-3.017-.382-4.629c-.155-2.49-.217-4.423-.217-5.786v-3.534c0-1.033 0-1.1-.052-1.891v-2.821c0-1.102.021-2.094.062-2.976 0-.878.093-1.829.176-2.842s.2-1.912.31-2.7c.132-.77.305-1.532.517-2.284.183-.649.436-1.276.755-1.87.377-.899 1.211-1.524 2.18-1.632.742-.009 1.468.223 2.067.661.672.562 1.182 1.293 1.477 2.118.393.971.734 1.912 1.033 2.821.354 1.253.585 2.537.692 3.834.176 1.633.31 2.955.4 3.958s.176 2.5.207 4.412c0 2.542.083 3.792.083 5.229zm-3.441-20.232c-.183-.81-.512-1.581-.971-2.273-.372-.527-.765-.93-1.147-.93s-.693.331-.94.724c-.288.521-.497 1.082-.62 1.664-.165.723-.31 1.5-.444 2.315s-.238 1.767-.31 2.842-.134 2.067-.176 2.924-.083 1.819-.1 2.873c0 1.736 0 2.325-.052 3.3v.248c0 2.563.145 5.321.393 8.266s.537 5.384.837 7.233c.217 1.632.598 3.239 1.137 4.795.475 1.323 1.033 2.377 1.612 2.377s.951-1.116 1.3-2.552c.402-1.767.662-3.564.775-5.373.227-3.813.372-6.489.372-8.029v-3.379c0-.7 0-1.736-.062-3.1s-.083-1.86-.155-3.048-.176-2.5-.289-3.926-.279-2.728-.475-3.833-.413-2.18-.682-3.162"/><path d="m7523.932 12.108-.062 7.378.331 13.206.331 11.583c0 1.881-.382 2.811-1.126 2.811-.434 0-.754-.31-.94-.9-.216-.639-.321-1.31-.31-1.984l.31-10.436c0-1.984-.1-4.96-.269-8.938s-.269-6.965-.269-8.938v-5.012c.062-1.964-.062-3.929-.372-5.869l-1.963.362c-.369.04-.738-.064-1.033-.289-.248-.289-.362-.341-.362-.806s.31-.847.93-1.168c.721-.353 1.49-.597 2.283-.723 1.293-.234 2.602-.365 3.916-.393.347.017.669.187.878.465.249.334.38.741.372 1.157.04.285-.111.562-.372.682-.709.2-1.436.328-2.17.382-.133-.01-.267-.01-.4 0 .155 2.067.258 4.743.258 7.419"/><path d="m7539.131 47.219c-.785 0-1.188-.486-1.188-1.488v-9.056c-.598-.34-1.299-.454-1.974-.32-1.033.062-1.9.227-2.645.32-.236.826-.425 1.664-.568 2.511-.176 1.261-.351 2.542-.527 3.834-.136 1.211-.382 2.408-.734 3.575-.413.827-2.067.248-1.674-1.849.776-3.727 1.341-7.494 1.694-11.284.792-6.889 1.446-12.279 1.963-16.171.5-3.906 1.033-8.039 1.622-10.695s1.2-4 1.736-4.133c.464-.188.992.036 1.18.5.016.039.029.079.039.12.083 1.188.279 5.921.785 11.924s.765 9.92.765 11.676.134 4.7.413 8.8.4 7.688.4 9.744c0 1.292-.424 1.932-1.292 1.932m-1.622-19.24c-.227-3.4-.434-6.633-.62-9.7-.186-3.1-.31-5.8-.31-6.437v-1.581c-.773 3.842-1.346 7.722-1.715 11.624-.765 6.2-1.178 10.705-1.23 12.4.881-.001 1.762-.06 2.635-.176.551-.076 1.095-.204 1.622-.382 0-.775-.176-2.335-.4-5.714"/><path d="m7545.961 15.91.258-10.54v-.351c0-1.912.289-2.862.858-2.862s1.219 1.777 2.067 5.322c1.591 6.437 6.024 32.58 6.024 32.58l-.1-20.387s-.506-15.272-.527-16.244.455-1.447 1.147-1.447.93.165.93 1.767v1.767l.258 21.2v17.566c0 .539-.105 1.073-.31 1.571-.093.433-.518.71-.951.62-.527-.093-1.416-3.565-2.986-11.439s-3.152-16.337-4.691-25.388v18.765c0 1.829.1 4.557.279 8.184s.279 6.345.279 8.184c-.001.346-.166.672-.444.878-.313.248-.707.373-1.105.351-.455 0-.682-.3-.682-.889l.2-4.133c0-1.977-.079-5.187-.238-9.63s-.241-7.164-.248-8.163z"/><path d="m7567.558 4.647-.775.134c-.208.051-.392.176-.517.351-.135.505-.195 1.027-.176 1.55 0 3.741.155 9.338.465 16.791.32 7.45.475 13.795.475 17.566v3.172c.62 0 2.418.1 2.418 1.105-.049.558-.434 1.029-.971 1.188-.878.083-1.757.135-2.635.135-2.253 0-3.358-.29-3.358-1.436-.059-.51.308-.971.818-1.03.017-.002.033-.003.049-.004h.072l1.033-.072c.372 0 .568-.806.568-1.695 0-2.955-.114-8.266-.362-14.167s-.362-10.333-.362-13.268l.093-5.848c0-1.24 0-2.769-.1-3.668-.328.129-.683.175-1.033.134-.61 0-.827-.062-.827-.981.029-.463.259-.89.63-1.168.508-.359 1.085-.609 1.695-.734.696-.195 1.417-.289 2.139-.279.769-.04 1.425.552 1.465 1.321.001.025.002.049.002.074 0 .424-.165.672-.858.816"/><path d="m7573.756 45.07c0-.868.289-1.312.868-1.312.415.038.811.188 1.147.434.369.247.797.393 1.24.424.341 0 .723-.32 1.126-.971.445-.756.763-1.58.94-2.439.443-1.754.683-3.554.713-5.363-.018-1.737-.208-3.468-.568-5.167-.361-1.747-.824-3.472-1.385-5.166-.544-1.612-1.095-3.221-1.653-4.826-1.23-3.359-1.89-6.901-1.953-10.478-.155-2.489.517-4.959 1.912-7.026.533-.816 1.434-1.318 2.408-1.343.512.012 1.002.215 1.374.568.464.384.788.912.92 1.5.083.548-.062 1.333-.816 1.219-.951-.134-.971-.661-1.364-.537-.555.131-1.017.513-1.25 1.033-.679 1.247-1.014 2.652-.971 4.071.016 3.008.511 5.993 1.467 8.845.413 1.209.868 2.532 1.343 3.947s.951 2.79 1.364 4.133c1.002 3.171 1.498 6.48 1.467 9.806.014 2.427-.417 4.837-1.271 7.109-.353 1.006-.92 1.923-1.663 2.687-.621.649-1.478 1.022-2.377 1.033-.814-.034-1.596-.335-2.222-.857-.463-.277-.762-.762-.8-1.3"/><path d="m7592.161 12.666-.062 7.388.331 13.2.32 10.333c0 1.87-.362 3.555-1.116 3.555-.423 0-.744-.3-.94-.889-.207-.902-.311-1.824-.31-2.749l.31-9.165c0-1.97-.09-4.949-.269-8.938s-.269-6.965-.268-8.928l.062-5.022c.072-2.015-.053-4.033-.372-6.024-.956.083-1.917.083-2.873 0-.344-.08-.565-.417-.5-.765 0-.455.31-.754.919-1.033.726-.316 1.497-.519 2.284-.6 1.296-.236 2.609-.37 3.926-.4.348.014.668.19.868.475.268.324.404.737.382 1.157-.331.806-1.033.62-1.405.692h-1.158c-.13-.01-.261-.01-.392 0 .176 2.211.269 5.259.269 7.77"/></g></svg>