<svg class="u-show-pc" enable-background="new 0 0 574 74" viewBox="0 0 574 74" xmlns="http://www.w3.org/2000/svg">
                  <path class="text-stroke text-stroke-pc" data-clip-path="path-journal-pc" d="m18.8 4.24c-5.6 0-9.36 1.68-11.84 3.92-2.785 2.481-4.385 6.03-4.4 9.76 0 6.8 4.8 11.44 11.6 15.84 8.4 5.36 10 8.96 10 12.32.199 5.147-3.813 9.481-8.96 9.68-.24.009-.48.009-.72 0-3.04 0-8.32-2-10.4-6.4-1.12-2.48-2.32-4.56-2.96-4.56-.32 0-1.12 1.2-1.12 1.52 0 1.28.8 4.8 1.2 7.52.372 1.003 1.007 1.888 1.84 2.56 2.48 1.2 7.92 2.08 10.48 2.08 3.6 0 8.32-1.2 10.88-2.88 3.932-2.43 6.393-6.661 6.56-11.28 0-7.2-4.88-11.36-11.04-15.52-7.04-4.72-11.12-7.2-11.12-12.88-.2-4.967 3.664-9.155 8.63-9.355.19-.008.38-.009.57-.005 2.046-.042 4.047.606 5.68 1.84 1.811 1.523 3.168 3.516 3.92 5.76.222.908.99 1.58 1.92 1.68.56 0 .56-.8.56-2.16 0-.32-.64-4.96-.8-6.48 0-.16-.48-1.36-.96-1.52-1.44-.24-5.6-1.44-9.52-1.44zm34.64 49.84c-1.954.207-3.909-.369-5.44-1.6-1.298-1.123-2.03-2.764-2-4.48 0-3.6.32-18.72.24-21.44 0-.48-.32-1.2-.64-1.2s-6.24.88-8.48.88c-.96 0-1.36.48-1.36.72 0 .72.72 1.12 1.44 1.44 1.36.56 2.88.88 2.96 3.12.16 4.24.16 13.28.16 19.04.055 1.327.44 2.619 1.12 3.76 1.528 2.398 4.197 3.824 7.04 3.76 1.832.035 3.654-.292 5.36-.96 2.277-1.209 4.469-2.572 6.56-4.08.16-.08.4.16.4.56-.08 1.36-.32 2.88-.32 3.36 0 .56.48 1.12.8 1.12.945-.192 1.88-.432 2.8-.72 2.386-.683 4.82-1.191 7.28-1.52.408-.105.737-.404.88-.8-.08-.24-.64-1.52-.96-1.52-.96 0-3.44.4-4 .4-.64 0-.96-.96-.96-1.12 0-6.56.64-24.32.8-26.56 0-.32-.16-1.2-.56-1.2-.653.008-1.3.116-1.92.32-2.813.603-5.683.898-8.56.88-.8 0-1.84.4-1.84.72 0 .64 1.04 1.12 1.6 1.28.72.16 2.48.64 3.68.96.664.389 1.151 1.019 1.36 1.76l-.16 18.4c-.238.728-.65 1.387-1.2 1.92-1.633 1.621-3.787 2.612-6.08 2.8zm34.4-29.28c-2.249-.054-4.467.528-6.4 1.68-2.667 1.421-4.352 4.179-4.4 7.2 0 3.76 2.56 6.56 4.96 8.08 2.48 1.6 2.96 2 4.88 3.36 2.48 1.52 3.6 3.2 3.6 5.36.024 1.658-.643 3.252-1.84 4.4-.929.699-2.04 1.115-3.2 1.2-2.88 0-5.04-1.6-7.28-5.68-.48-.88-1.04-1.84-1.68-1.84-.48 0-.64.8-.64 1.68.084 2.076.489 4.127 1.2 6.08 1.36 1.12 5.36 1.76 7.76 1.76 2.362-.02 4.677-.654 6.72-1.84 2-1.44 4.64-4.16 4.64-7.84 0-3.6-1.76-6.32-6.24-8.96-5.36-2.96-7.92-5.04-7.92-7.76 0-1.68 1.52-4.96 4.8-4.96 2.64 0 4.64 1.6 6.4 5.36.4.88.88 1.36 1.2 1.36.64 0 .96-.72.96-1.44 0-.56-.24-3.28-.24-4.72-.055-.444-.285-.847-.64-1.12-.825-.371-1.682-.665-2.56-.88-1.337-.317-2.706-.478-4.08-.48zm23.52 1.12c-.33-.05-.59-.31-.64-.64v-3.76c-.242-.43-.645-.747-1.12-.88-.32 0-.88.64-1.84 1.76-1.985 2.005-4.125 3.85-6.4 5.52-.264.223-.435.537-.48.88 0 .24.48.64 1.12.88 1.6.48 3.04 1.04 3.04 1.6 0 2.8-.32 14.8-.32 17.76 0 2.24.16 3.92 1.04 5.28 1.567 2.355 4.211 3.767 7.04 3.76 3.209.019 6.292-1.249 8.56-3.52.594-.517.989-1.224 1.12-2 0-.72-.4-.88-.48-.88-.32 0-.48.08-1.2.48-1.194.703-2.537 1.114-3.92 1.2-1.763.157-3.517-.39-4.88-1.52-1.008-1.043-1.506-2.477-1.36-3.92 0-3.84.08-15.6.16-17.2.1-.319.387-.542.72-.56h8.72c.56 0 2.08-.16 2.08-.88-.024-1.017-.104-2.032-.24-3.04 0-.24-.8-.64-.88-.64-.32 0-8.08.32-9.84.32zm28.48-1.12c-1.52 0-5.12 1.36-7.44 3.04-3.76 2.48-6 4.72-6 7.04.056.52.446.943.96 1.04 1.818-.703 3.56-1.587 5.2-2.64.236-.245.401-.549.48-.88-.16-1.6.08-3.04.56-3.28.975-.628 2.122-.936 3.28-.88 3.92 0 6.24 3.36 6.24 5.36 0 .96-.08 5.84-.16 6.56 0 .48-.48.88-2.32 1.44-1.76.56-8.16 2.32-9.36 2.8-1.215.394-2.314 1.081-3.2 2-.932 1.161-1.465 2.592-1.52 4.08 0 4 2.72 7.44 5.52 7.44 1.082-.036 2.155-.197 3.2-.48 2.549-.909 4.97-2.146 7.2-3.68.16-.08.48.24.48.32.614 2.332 2.709 3.968 5.12 4 3.6 0 7.2-3.44 7.2-4.96.014-.286-.071-.569-.24-.8-.16-.24-.24-.4-.48-.24-.931.583-1.962.99-3.04 1.2-.64 0-3.2-.32-3.2-4 0-.88.32-10.96.32-14.08 0-3.36-.4-4.96-1.6-6.64-1.549-2.457-4.299-3.892-7.2-3.76zm-2.4 28.96c-1.68 0-5.04-1.28-5.04-4.8-.128-1.243.503-2.442 1.6-3.04 2.16-1.04 6-2.4 8.24-2.4.33.05.59.31.64.64 0 1.6 0 4.32-.16 6.24-.149.736-.479 1.423-.96 2-1.321.768-2.797 1.233-4.32 1.36zm29.44 3.36c1.68 0 5.68.24 6.24.24.88 0 1.84-.32 1.84-.8 0-.56-.48-.96-1.76-1.36-2-.64-3.76-.8-3.84-3.36-.08-2.8-.16-6.16-.16-10.64 0-4.56.48-14.96.48-15.84 0-.08-.4-.88-.72-.88-1.2.32-4.96 2.08-7.92 2.72-.88.16-1.6.8-1.6 1.36 0 .32.16.56.64.88 2.32 1.68 3.2 2.32 3.28 2.88.16.96.08 10.08.08 12.48.038 2.75-.069 5.501-.32 8.24-.16.8-1.36 1.76-3.2 2.24-1.36.4-1.92.8-1.92 1.28 0 .56.8.88 2.08.88 1.36 0 4.16-.32 6.8-.32zm-.16-48.56c-1.131-.037-2.237.332-3.12 1.04-.58.853-.912 1.85-.96 2.88-.004 1.106.427 2.169 1.2 2.96.738.57 1.63.904 2.56.96 2.062-.202 3.681-1.855 3.84-3.92 0-1.44-1.36-3.92-3.52-3.92zm13.12 20.08c0 .24.48.64 1.52 1.36 1.76 1.44 1.92 2.24 1.92 3.12 0 8.16-.16 15.12-.4 17.52-.24 2.88-.72 3.68-3.36 4.48-.88.24-1.68.64-1.68 1.2 0 .72.88 1.04 2.08 1.04 1.36 0 3.68-.24 6.64-.24 1.68 0 3.92.08 4.88.08 1.12 0 2-.4 2-.96 0-.48-.64-.96-1.44-1.2-2.56-.72-2.88-1.36-2.96-2.48-.08-.96-.08-18.16-.08-19.2.07-.705.349-1.374.8-1.92 1.943-1.758 4.502-2.679 7.12-2.56 1.807.069 3.568.592 5.12 1.52 1.583 1.557 2.452 3.7 2.4 5.92 0 2.32-.08 12-.24 14.64s-.56 3.28-2.48 4c-.96.32-1.84.8-1.84 1.36 0 .64 1.12.96 1.84.96 1.04 0 3.52-.16 5.52-.16 2.24 0 4.08.16 5.92.16 1.28 0 2.4-.32 2.4-.88s-.48-.96-2-1.36c-2-.56-2.8-1.6-2.96-2.8-.08-1.12-.24-13.04-.24-14.56 0-4-1.04-7.68-2.8-9.76-1.853-2.046-4.522-3.161-7.28-3.04-3.36 0-7.52 2.24-10.72 4.4-.08 0-.48.16-.48-.24 0-.72.32-2.64.32-4 0-.32-.4-1.2-.8-1.2-.692.163-1.345.462-1.92.88-1.705.95-3.501 1.727-5.36 2.32-.56.24-1.44 1.04-1.44 1.6zm53.12-3.84c-1.52 0-5.12 1.36-7.44 3.04-3.76 2.48-6 4.72-6 7.04.056.52.446.943.96 1.04 1.818-.703 3.56-1.587 5.2-2.64.236-.245.401-.549.48-.88-.16-1.6.08-3.04.56-3.28.975-.628 2.122-.936 3.28-.88 3.92 0 6.24 3.36 6.24 5.36 0 .96-.08 5.84-.16 6.56 0 .48-.48.88-2.32 1.44-1.76.56-8.16 2.32-9.36 2.8-1.215.394-2.314 1.081-3.2 2-.932 1.161-1.465 2.592-1.52 4.08 0 4 2.72 7.44 5.52 7.44 1.082-.036 2.155-.197 3.2-.48 2.549-.909 4.97-2.146 7.2-3.68.16-.08.48.24.48.32.614 2.332 2.709 3.968 5.12 4 3.6 0 7.2-3.44 7.2-4.96.014-.286-.071-.569-.24-.8-.16-.24-.24-.4-.48-.24-.931.583-1.962.99-3.04 1.2-.64 0-3.2-.32-3.2-4 0-.88.32-10.96.32-14.08 0-3.36-.4-4.96-1.6-6.64-1.549-2.457-4.299-3.892-7.2-3.76zm-2.4 28.96c-1.68 0-5.04-1.28-5.04-4.8-.128-1.243.503-2.442 1.6-3.04 2.16-1.04 6-2.4 8.24-2.4.33.05.59.31.64.64 0 1.6 0 4.32-.16 6.24-.149.736-.479 1.423-.96 2-1.321.768-2.797 1.233-4.32 1.36zm53.84-13.36c.117-4.61-1.817-9.035-5.28-12.08-2.78-2.32-6.299-3.569-9.92-3.52-3.228.081-6.375 1.02-9.12 2.72-.08.08-.48-.16-.48-.32-.16-.88-.16-4.8-.16-6.88 0-6.4.48-14 .72-19.28 0-.32-.56-1.04-.88-1.04-.712.216-1.386.54-2 .96-1.6.96-4.32 1.68-6.56 2.48-.387.31-.712.69-.96 1.12 0 .4.4.64 1.6 1.52.941.669 1.642 1.622 2 2.72.16 1.12.4 12.96.4 20.56 0 6.56-.08 20.32-.48 26.56 0 .56.16 1.04.48 1.04.332-.022.657-.103.96-.24.507-.296 1.11-.382 1.68-.24 3.315.919 6.723 1.456 10.16 1.6 2.8 0 7.6-.88 10.88-3.6 4.403-3.34 6.98-8.554 6.96-14.08zm-6.64 1.68c0 3.6-1.44 8.56-3.68 10.72-1.84 1.68-4 2.72-4.88 2.72-2.786-.256-5.406-1.439-7.44-3.36-1.038-1.072-1.612-2.508-1.6-4-.4-4.32-.64-8.64-.64-12.8 0-1.68.08-3.92.16-4.64.057-.465.285-.893.64-1.2 1.437-.889 3.114-1.308 4.8-1.2 3.243-.029 6.37 1.204 8.72 3.44 2.449 2.89 3.833 6.533 3.92 10.32zm12.8-37.76c0 .32.24.56 1.6 1.52 1.84 1.12 1.84 1.6 1.92 2.24.24 2.16.24 10.8.24 16.72 0 12.64-.24 21.04-.48 24.32-.32 4-.48 5.44-4.16 6.24-.88.16-1.76.56-1.76 1.12 0 .64.64.88 2.24.88 1.68 0 5.2-.24 7.04-.24 1.44 0 4.88.24 6.8.24.96 0 2.08-.32 2.08-.88 0-.48-.64-.88-1.84-1.2-3.44-.96-3.76-1.92-4.08-3.52-.4-2.16-.24-17.44-.24-29.12 0-10.72.48-19.76.72-21.76 0-.32-.48-.96-.72-.8-2.16 1.36-4.56 1.84-8.24 3.12-.88.24-1.12.8-1.12 1.12zm34.56 20.56c-2.099.097-4.161.586-6.08 1.44-5.98 2.911-9.726 9.03-9.6 15.68 0 9.36 5.76 15.92 14.4 15.92 4.634.099 9.003-2.161 11.6-6 .328-.59.519-1.246.56-1.92 0-.4-.16-.96-.64-.96-.32 0-.72.48-1.04.96-1.36 2-3.76 2.88-7.28 2.88-3.506-.005-6.813-1.629-8.96-4.4-1.903-2.667-2.962-5.844-3.04-9.12.004-.947.138-1.89.4-2.8.08-.24.4-.64.64-.64 3.68.08 17.36.08 18.24.08.763-.04 1.395-.606 1.52-1.36.058-2.535-.959-4.976-2.8-6.72-2.158-1.982-4.99-3.069-7.92-3.04zm-.8 2.08c2.88 0 5.28 2.56 5.28 4.8 0 1.6-.8 2-2.72 2-4 .08-8.24.08-10.32 0-.16 0-.48-.48-.32-.88 1.44-3.68 4.48-5.92 8.08-5.92zm23.92 43.52c0 1.52 2.56 3.12 5.2 3.12 2.08 0 5.44-1.04 9.12-3.84 4.08-3.12 8.56-10.16 8.64-19.84 0-6.88.32-29.68.32-36.24 0-4.08 1.36-5.2 4.56-5.84 1.68-.32 2.4-.8 2.4-1.6 0-.64-1.2-.8-2.16-.8-2.48 0-5.6.24-8.4.24-3.52 0-6.4-.24-8.88-.24-1.52 0-2.16.32-2.16.96s.64 1.2 2.48 1.52c4.08.72 4.56 2.72 4.72 4.32.32 3.84.48 12 .48 23.52 0 11.36-.16 20-.48 24.96-.24 3.36-.96 5.28-2.24 6.64-.719 1.042-1.938 1.621-3.2 1.52-1.505-.203-2.936-.78-4.16-1.68-.769-.453-1.607-.777-2.48-.96-.702.217-1.355.57-1.92 1.04-.888.883-1.524 1.988-1.84 3.2zm50.16-45.68c-4.35-.02-8.559 1.544-11.84 4.4-3.709 3.061-5.779 7.675-5.6 12.48.265 4.705 2.396 9.111 5.92 12.24 2.977 2.545 6.726 4.011 10.64 4.16 3.572.073 7.064-1.054 9.92-3.2 4.359-3.233 6.939-8.333 6.96-13.76.148-8.864-6.918-16.17-15.782-16.318-.072-.001-.145-.002-.218-.002zm-1.52 2.4c2.555.149 4.957 1.265 6.72 3.12 3.04 3.52 4 8.08 4 12.24 0 3.44-1.6 8.4-3.6 10.56-2.24 2.24-4 2.64-4.88 2.64-3.84 0-8.4-2.88-10.4-8.88-.676-2.312-1-4.712-.96-7.12 0-4.16 1.84-8.32 3.92-10.24 1.411-1.354 3.25-2.174 5.2-2.32zm39.76 26.88c-1.954.207-3.909-.369-5.44-1.6-1.298-1.123-2.03-2.764-2-4.48 0-3.6.32-18.72.24-21.44 0-.48-.32-1.2-.64-1.2s-6.24.88-8.48.88c-.96 0-1.36.48-1.36.72 0 .72.72 1.12 1.44 1.44 1.36.56 2.88.88 2.96 3.12.16 4.24.16 13.28.16 19.04.055 1.327.44 2.619 1.12 3.76 1.528 2.398 4.197 3.824 7.04 3.76 1.832.035 3.654-.292 5.36-.96 2.277-1.209 4.469-2.572 6.56-4.08.16-.08.4.16.4.56-.08 1.36-.32 2.88-.32 3.36 0 .56.48 1.12.8 1.12.945-.192 1.88-.432 2.8-.72 2.386-.683 4.82-1.191 7.28-1.52.408-.105.737-.404.88-.8-.08-.24-.64-1.52-.96-1.52-.96 0-3.44.4-4 .4-.64 0-.96-.96-.96-1.12 0-6.56.64-24.32.8-26.56 0-.32-.16-1.2-.56-1.2-.653.008-1.3.116-1.92.32-2.813.603-5.683.898-8.56.88-.8 0-1.84.4-1.84.72 0 .64 1.04 1.12 1.6 1.28.72.16 2.48.64 3.68.96.664.389 1.151 1.019 1.36 1.76l-.16 18.4c-.238.728-.65 1.387-1.2 1.92-1.633 1.621-3.787 2.612-6.08 2.8zm22.88-25.12c0 .32.8.64 2.72 2.16.699.587 1.034 1.5.88 2.4v15.28c-.08 4.8-.32 5.6-3.44 6.64-.64.24-1.6.56-1.6 1.04 0 .64.8.96 1.68.96 1.92 0 2.88-.32 5.28-.32 4.64 0 7.44.4 9.44.4 1.2 0 1.92-.32 1.92-.72 0-.32-.16-.88-1.44-1.28-1.2-.32-2.64-.72-3.68-.96-1.44-.24-1.92-1.76-2.08-4.08-.08-1.2-.48-15.68-.48-17.28.067-.658.348-1.277.8-1.76.971-.839 2.243-1.244 3.52-1.12 1.617.101 3.159.718 4.4 1.76.343.186.731.269 1.12.24 1.24-1.088 2.341-2.324 3.28-3.68.219-.345.381-.723.48-1.12 0-.72-.72-2.72-4-2.72-2.48 0-6 2-9.12 4.96-.16.08-.56 0-.56-.32 0-1.52.16-2.96.16-4.4 0-.24-.4-.96-.72-.96-.24 0-.64.32-1.6.96-1.894 1.026-3.875 1.883-5.92 2.56-.59.2-1.001.738-1.04 1.36zm26.4-.32c0 .24.48.64 1.52 1.36 1.76 1.44 1.92 2.24 1.92 3.12 0 8.16-.16 15.12-.4 17.52-.24 2.88-.72 3.68-3.36 4.48-.88.24-1.68.64-1.68 1.2 0 .72.88 1.04 2.08 1.04 1.36 0 3.68-.24 6.64-.24 1.68 0 3.92.08 4.88.08 1.12 0 2-.4 2-.96 0-.48-.64-.96-1.44-1.2-2.56-.72-2.88-1.36-2.96-2.48-.08-.96-.08-18.16-.08-19.2.07-.705.349-1.373.8-1.92 1.943-1.758 4.502-2.679 7.12-2.56 1.807.069 3.568.592 5.12 1.52 1.583 1.557 2.452 3.7 2.4 5.92 0 2.32-.08 12-.24 14.64s-.56 3.28-2.48 4c-.96.32-1.84.8-1.84 1.36 0 .64 1.12.96 1.84.96 1.04 0 3.52-.16 5.52-.16 2.24 0 4.08.16 5.92.16 1.28 0 2.4-.32 2.4-.88s-.48-.96-2-1.36c-2-.56-2.8-1.6-2.96-2.8-.08-1.12-.24-13.04-.24-14.56 0-4-1.04-7.68-2.8-9.76-1.853-2.046-4.522-3.161-7.28-3.04-3.36 0-7.52 2.24-10.72 4.4-.08 0-.48.16-.48-.24 0-.72.32-2.64.32-4 0-.32-.4-1.2-.8-1.2-.692.163-1.345.462-1.92.88-1.705.95-3.501 1.727-5.36 2.32-.56.24-1.44 1.04-1.44 1.6zm53.12-3.84c-1.52 0-5.12 1.36-7.44 3.04-3.76 2.48-6 4.72-6 7.04.056.52.446.943.96 1.04 1.818-.703 3.56-1.587 5.2-2.64.236-.245.401-.549.48-.88-.16-1.6.08-3.04.56-3.28.975-.628 2.122-.936 3.28-.88 3.92 0 6.24 3.36 6.24 5.36 0 .96-.08 5.84-.16 6.56 0 .48-.48.88-2.32 1.44-1.76.56-8.16 2.32-9.36 2.8-1.215.394-2.314 1.081-3.2 2-.932 1.161-1.465 2.592-1.52 4.08 0 4 2.72 7.44 5.52 7.44 1.082-.036 2.155-.197 3.2-.48 2.549-.909 4.97-2.146 7.2-3.68.16-.08.48.24.48.32.614 2.332 2.709 3.968 5.12 4 3.6 0 7.2-3.44 7.2-4.96.014-.286-.071-.569-.24-.8-.16-.24-.24-.4-.48-.24-.931.583-1.962.99-3.04 1.2-.64 0-3.2-.32-3.2-4 0-.88.32-10.96.32-14.08 0-3.36-.4-4.96-1.6-6.64-1.549-2.457-4.298-3.892-7.2-3.76zm-2.4 28.96c-1.68 0-5.04-1.28-5.04-4.8-.128-1.243.503-2.442 1.6-3.04 2.16-1.04 6-2.4 8.24-2.4.331.05.59.31.64.64 0 1.6 0 4.32-.16 6.24-.149.736-.479 1.423-.96 2-1.321.768-2.797 1.233-4.32 1.36zm21.68-49.44c0 .32.24.56 1.6 1.52 1.84 1.12 1.84 1.6 1.92 2.24.24 2.16.24 10.8.24 16.72 0 12.64-.24 21.04-.48 24.32-.32 4-.48 5.44-4.16 6.24-.88.16-1.76.56-1.76 1.12 0 .64.64.88 2.24.88 1.68 0 5.2-.24 7.04-.24 1.44 0 4.88.24 6.8.24.96 0 2.08-.32 2.08-.88 0-.48-.64-.88-1.84-1.2-3.44-.96-3.76-1.92-4.08-3.52-.4-2.16-.24-17.44-.24-29.12 0-10.72.48-19.76.72-21.76 0-.32-.48-.96-.72-.8-2.16 1.36-4.56 1.84-8.24 3.12-.88.24-1.12.8-1.12 1.12z" style="clip-path: url(&quot;#path-journal-pc&quot;);"></path>
                  <defs>
                    <clipPath id="path-journal-pc"><path d="m18.8 4.24c-5.6 0-9.36 1.68-11.84 3.92-2.785 2.481-4.385 6.03-4.4 9.76 0 6.8 4.8 11.44 11.6 15.84 8.4 5.36 10 8.96 10 12.32.199 5.147-3.813 9.481-8.96 9.68-.24.009-.48.009-.72 0-3.04 0-8.32-2-10.4-6.4-1.12-2.48-2.32-4.56-2.96-4.56-.32 0-1.12 1.2-1.12 1.52 0 1.28.8 4.8 1.2 7.52.372 1.003 1.007 1.888 1.84 2.56 2.48 1.2 7.92 2.08 10.48 2.08 3.6 0 8.32-1.2 10.88-2.88 3.932-2.43 6.393-6.661 6.56-11.28 0-7.2-4.88-11.36-11.04-15.52-7.04-4.72-11.12-7.2-11.12-12.88-.2-4.967 3.664-9.155 8.63-9.355.19-.008.38-.009.57-.005 2.046-.042 4.047.606 5.68 1.84 1.811 1.523 3.168 3.516 3.92 5.76.222.908.99 1.58 1.92 1.68.56 0 .56-.8.56-2.16 0-.32-.64-4.96-.8-6.48 0-.16-.48-1.36-.96-1.52-1.44-.24-5.6-1.44-9.52-1.44zm34.64 49.84c-1.954.207-3.909-.369-5.44-1.6-1.298-1.123-2.03-2.764-2-4.48 0-3.6.32-18.72.24-21.44 0-.48-.32-1.2-.64-1.2s-6.24.88-8.48.88c-.96 0-1.36.48-1.36.72 0 .72.72 1.12 1.44 1.44 1.36.56 2.88.88 2.96 3.12.16 4.24.16 13.28.16 19.04.055 1.327.44 2.619 1.12 3.76 1.528 2.398 4.197 3.824 7.04 3.76 1.832.035 3.654-.292 5.36-.96 2.277-1.209 4.469-2.572 6.56-4.08.16-.08.4.16.4.56-.08 1.36-.32 2.88-.32 3.36 0 .56.48 1.12.8 1.12.945-.192 1.88-.432 2.8-.72 2.386-.683 4.82-1.191 7.28-1.52.408-.105.737-.404.88-.8-.08-.24-.64-1.52-.96-1.52-.96 0-3.44.4-4 .4-.64 0-.96-.96-.96-1.12 0-6.56.64-24.32.8-26.56 0-.32-.16-1.2-.56-1.2-.653.008-1.3.116-1.92.32-2.813.603-5.683.898-8.56.88-.8 0-1.84.4-1.84.72 0 .64 1.04 1.12 1.6 1.28.72.16 2.48.64 3.68.96.664.389 1.151 1.019 1.36 1.76l-.16 18.4c-.238.728-.65 1.387-1.2 1.92-1.633 1.621-3.787 2.612-6.08 2.8zm34.4-29.28c-2.249-.054-4.467.528-6.4 1.68-2.667 1.421-4.352 4.179-4.4 7.2 0 3.76 2.56 6.56 4.96 8.08 2.48 1.6 2.96 2 4.88 3.36 2.48 1.52 3.6 3.2 3.6 5.36.024 1.658-.643 3.252-1.84 4.4-.929.699-2.04 1.115-3.2 1.2-2.88 0-5.04-1.6-7.28-5.68-.48-.88-1.04-1.84-1.68-1.84-.48 0-.64.8-.64 1.68.084 2.076.489 4.127 1.2 6.08 1.36 1.12 5.36 1.76 7.76 1.76 2.362-.02 4.677-.654 6.72-1.84 2-1.44 4.64-4.16 4.64-7.84 0-3.6-1.76-6.32-6.24-8.96-5.36-2.96-7.92-5.04-7.92-7.76 0-1.68 1.52-4.96 4.8-4.96 2.64 0 4.64 1.6 6.4 5.36.4.88.88 1.36 1.2 1.36.64 0 .96-.72.96-1.44 0-.56-.24-3.28-.24-4.72-.055-.444-.285-.847-.64-1.12-.825-.371-1.682-.665-2.56-.88-1.337-.317-2.706-.478-4.08-.48zm23.52 1.12c-.33-.05-.59-.31-.64-.64v-3.76c-.242-.43-.645-.747-1.12-.88-.32 0-.88.64-1.84 1.76-1.985 2.005-4.125 3.85-6.4 5.52-.264.223-.435.537-.48.88 0 .24.48.64 1.12.88 1.6.48 3.04 1.04 3.04 1.6 0 2.8-.32 14.8-.32 17.76 0 2.24.16 3.92 1.04 5.28 1.567 2.355 4.211 3.767 7.04 3.76 3.209.019 6.292-1.249 8.56-3.52.594-.517.989-1.224 1.12-2 0-.72-.4-.88-.48-.88-.32 0-.48.08-1.2.48-1.194.703-2.537 1.114-3.92 1.2-1.763.157-3.517-.39-4.88-1.52-1.008-1.043-1.506-2.477-1.36-3.92 0-3.84.08-15.6.16-17.2.1-.319.387-.542.72-.56h8.72c.56 0 2.08-.16 2.08-.88-.024-1.017-.104-2.032-.24-3.04 0-.24-.8-.64-.88-.64-.32 0-8.08.32-9.84.32zm28.48-1.12c-1.52 0-5.12 1.36-7.44 3.04-3.76 2.48-6 4.72-6 7.04.056.52.446.943.96 1.04 1.818-.703 3.56-1.587 5.2-2.64.236-.245.401-.549.48-.88-.16-1.6.08-3.04.56-3.28.975-.628 2.122-.936 3.28-.88 3.92 0 6.24 3.36 6.24 5.36 0 .96-.08 5.84-.16 6.56 0 .48-.48.88-2.32 1.44-1.76.56-8.16 2.32-9.36 2.8-1.215.394-2.314 1.081-3.2 2-.932 1.161-1.465 2.592-1.52 4.08 0 4 2.72 7.44 5.52 7.44 1.082-.036 2.155-.197 3.2-.48 2.549-.909 4.97-2.146 7.2-3.68.16-.08.48.24.48.32.614 2.332 2.709 3.968 5.12 4 3.6 0 7.2-3.44 7.2-4.96.014-.286-.071-.569-.24-.8-.16-.24-.24-.4-.48-.24-.931.583-1.962.99-3.04 1.2-.64 0-3.2-.32-3.2-4 0-.88.32-10.96.32-14.08 0-3.36-.4-4.96-1.6-6.64-1.549-2.457-4.299-3.892-7.2-3.76zm-2.4 28.96c-1.68 0-5.04-1.28-5.04-4.8-.128-1.243.503-2.442 1.6-3.04 2.16-1.04 6-2.4 8.24-2.4.33.05.59.31.64.64 0 1.6 0 4.32-.16 6.24-.149.736-.479 1.423-.96 2-1.321.768-2.797 1.233-4.32 1.36zm29.44 3.36c1.68 0 5.68.24 6.24.24.88 0 1.84-.32 1.84-.8 0-.56-.48-.96-1.76-1.36-2-.64-3.76-.8-3.84-3.36-.08-2.8-.16-6.16-.16-10.64 0-4.56.48-14.96.48-15.84 0-.08-.4-.88-.72-.88-1.2.32-4.96 2.08-7.92 2.72-.88.16-1.6.8-1.6 1.36 0 .32.16.56.64.88 2.32 1.68 3.2 2.32 3.28 2.88.16.96.08 10.08.08 12.48.038 2.75-.069 5.501-.32 8.24-.16.8-1.36 1.76-3.2 2.24-1.36.4-1.92.8-1.92 1.28 0 .56.8.88 2.08.88 1.36 0 4.16-.32 6.8-.32zm-.16-48.56c-1.131-.037-2.237.332-3.12 1.04-.58.853-.912 1.85-.96 2.88-.004 1.106.427 2.169 1.2 2.96.738.57 1.63.904 2.56.96 2.062-.202 3.681-1.855 3.84-3.92 0-1.44-1.36-3.92-3.52-3.92zm13.12 20.08c0 .24.48.64 1.52 1.36 1.76 1.44 1.92 2.24 1.92 3.12 0 8.16-.16 15.12-.4 17.52-.24 2.88-.72 3.68-3.36 4.48-.88.24-1.68.64-1.68 1.2 0 .72.88 1.04 2.08 1.04 1.36 0 3.68-.24 6.64-.24 1.68 0 3.92.08 4.88.08 1.12 0 2-.4 2-.96 0-.48-.64-.96-1.44-1.2-2.56-.72-2.88-1.36-2.96-2.48-.08-.96-.08-18.16-.08-19.2.07-.705.349-1.374.8-1.92 1.943-1.758 4.502-2.679 7.12-2.56 1.807.069 3.568.592 5.12 1.52 1.583 1.557 2.452 3.7 2.4 5.92 0 2.32-.08 12-.24 14.64s-.56 3.28-2.48 4c-.96.32-1.84.8-1.84 1.36 0 .64 1.12.96 1.84.96 1.04 0 3.52-.16 5.52-.16 2.24 0 4.08.16 5.92.16 1.28 0 2.4-.32 2.4-.88s-.48-.96-2-1.36c-2-.56-2.8-1.6-2.96-2.8-.08-1.12-.24-13.04-.24-14.56 0-4-1.04-7.68-2.8-9.76-1.853-2.046-4.522-3.161-7.28-3.04-3.36 0-7.52 2.24-10.72 4.4-.08 0-.48.16-.48-.24 0-.72.32-2.64.32-4 0-.32-.4-1.2-.8-1.2-.692.163-1.345.462-1.92.88-1.705.95-3.501 1.727-5.36 2.32-.56.24-1.44 1.04-1.44 1.6zm53.12-3.84c-1.52 0-5.12 1.36-7.44 3.04-3.76 2.48-6 4.72-6 7.04.056.52.446.943.96 1.04 1.818-.703 3.56-1.587 5.2-2.64.236-.245.401-.549.48-.88-.16-1.6.08-3.04.56-3.28.975-.628 2.122-.936 3.28-.88 3.92 0 6.24 3.36 6.24 5.36 0 .96-.08 5.84-.16 6.56 0 .48-.48.88-2.32 1.44-1.76.56-8.16 2.32-9.36 2.8-1.215.394-2.314 1.081-3.2 2-.932 1.161-1.465 2.592-1.52 4.08 0 4 2.72 7.44 5.52 7.44 1.082-.036 2.155-.197 3.2-.48 2.549-.909 4.97-2.146 7.2-3.68.16-.08.48.24.48.32.614 2.332 2.709 3.968 5.12 4 3.6 0 7.2-3.44 7.2-4.96.014-.286-.071-.569-.24-.8-.16-.24-.24-.4-.48-.24-.931.583-1.962.99-3.04 1.2-.64 0-3.2-.32-3.2-4 0-.88.32-10.96.32-14.08 0-3.36-.4-4.96-1.6-6.64-1.549-2.457-4.299-3.892-7.2-3.76zm-2.4 28.96c-1.68 0-5.04-1.28-5.04-4.8-.128-1.243.503-2.442 1.6-3.04 2.16-1.04 6-2.4 8.24-2.4.33.05.59.31.64.64 0 1.6 0 4.32-.16 6.24-.149.736-.479 1.423-.96 2-1.321.768-2.797 1.233-4.32 1.36zm53.84-13.36c.117-4.61-1.817-9.035-5.28-12.08-2.78-2.32-6.299-3.569-9.92-3.52-3.228.081-6.375 1.02-9.12 2.72-.08.08-.48-.16-.48-.32-.16-.88-.16-4.8-.16-6.88 0-6.4.48-14 .72-19.28 0-.32-.56-1.04-.88-1.04-.712.216-1.386.54-2 .96-1.6.96-4.32 1.68-6.56 2.48-.387.31-.712.69-.96 1.12 0 .4.4.64 1.6 1.52.941.669 1.642 1.622 2 2.72.16 1.12.4 12.96.4 20.56 0 6.56-.08 20.32-.48 26.56 0 .56.16 1.04.48 1.04.332-.022.657-.103.96-.24.507-.296 1.11-.382 1.68-.24 3.315.919 6.723 1.456 10.16 1.6 2.8 0 7.6-.88 10.88-3.6 4.403-3.34 6.98-8.554 6.96-14.08zm-6.64 1.68c0 3.6-1.44 8.56-3.68 10.72-1.84 1.68-4 2.72-4.88 2.72-2.786-.256-5.406-1.439-7.44-3.36-1.038-1.072-1.612-2.508-1.6-4-.4-4.32-.64-8.64-.64-12.8 0-1.68.08-3.92.16-4.64.057-.465.285-.893.64-1.2 1.437-.889 3.114-1.308 4.8-1.2 3.243-.029 6.37 1.204 8.72 3.44 2.449 2.89 3.833 6.533 3.92 10.32zm12.8-37.76c0 .32.24.56 1.6 1.52 1.84 1.12 1.84 1.6 1.92 2.24.24 2.16.24 10.8.24 16.72 0 12.64-.24 21.04-.48 24.32-.32 4-.48 5.44-4.16 6.24-.88.16-1.76.56-1.76 1.12 0 .64.64.88 2.24.88 1.68 0 5.2-.24 7.04-.24 1.44 0 4.88.24 6.8.24.96 0 2.08-.32 2.08-.88 0-.48-.64-.88-1.84-1.2-3.44-.96-3.76-1.92-4.08-3.52-.4-2.16-.24-17.44-.24-29.12 0-10.72.48-19.76.72-21.76 0-.32-.48-.96-.72-.8-2.16 1.36-4.56 1.84-8.24 3.12-.88.24-1.12.8-1.12 1.12zm34.56 20.56c-2.099.097-4.161.586-6.08 1.44-5.98 2.911-9.726 9.03-9.6 15.68 0 9.36 5.76 15.92 14.4 15.92 4.634.099 9.003-2.161 11.6-6 .328-.59.519-1.246.56-1.92 0-.4-.16-.96-.64-.96-.32 0-.72.48-1.04.96-1.36 2-3.76 2.88-7.28 2.88-3.506-.005-6.813-1.629-8.96-4.4-1.903-2.667-2.962-5.844-3.04-9.12.004-.947.138-1.89.4-2.8.08-.24.4-.64.64-.64 3.68.08 17.36.08 18.24.08.763-.04 1.395-.606 1.52-1.36.058-2.535-.959-4.976-2.8-6.72-2.158-1.982-4.99-3.069-7.92-3.04zm-.8 2.08c2.88 0 5.28 2.56 5.28 4.8 0 1.6-.8 2-2.72 2-4 .08-8.24.08-10.32 0-.16 0-.48-.48-.32-.88 1.44-3.68 4.48-5.92 8.08-5.92zm23.92 43.52c0 1.52 2.56 3.12 5.2 3.12 2.08 0 5.44-1.04 9.12-3.84 4.08-3.12 8.56-10.16 8.64-19.84 0-6.88.32-29.68.32-36.24 0-4.08 1.36-5.2 4.56-5.84 1.68-.32 2.4-.8 2.4-1.6 0-.64-1.2-.8-2.16-.8-2.48 0-5.6.24-8.4.24-3.52 0-6.4-.24-8.88-.24-1.52 0-2.16.32-2.16.96s.64 1.2 2.48 1.52c4.08.72 4.56 2.72 4.72 4.32.32 3.84.48 12 .48 23.52 0 11.36-.16 20-.48 24.96-.24 3.36-.96 5.28-2.24 6.64-.719 1.042-1.938 1.621-3.2 1.52-1.505-.203-2.936-.78-4.16-1.68-.769-.453-1.607-.777-2.48-.96-.702.217-1.355.57-1.92 1.04-.888.883-1.524 1.988-1.84 3.2zm50.16-45.68c-4.35-.02-8.559 1.544-11.84 4.4-3.709 3.061-5.779 7.675-5.6 12.48.265 4.705 2.396 9.111 5.92 12.24 2.977 2.545 6.726 4.011 10.64 4.16 3.572.073 7.064-1.054 9.92-3.2 4.359-3.233 6.939-8.333 6.96-13.76.148-8.864-6.918-16.17-15.782-16.318-.072-.001-.145-.002-.218-.002zm-1.52 2.4c2.555.149 4.957 1.265 6.72 3.12 3.04 3.52 4 8.08 4 12.24 0 3.44-1.6 8.4-3.6 10.56-2.24 2.24-4 2.64-4.88 2.64-3.84 0-8.4-2.88-10.4-8.88-.676-2.312-1-4.712-.96-7.12 0-4.16 1.84-8.32 3.92-10.24 1.411-1.354 3.25-2.174 5.2-2.32zm39.76 26.88c-1.954.207-3.909-.369-5.44-1.6-1.298-1.123-2.03-2.764-2-4.48 0-3.6.32-18.72.24-21.44 0-.48-.32-1.2-.64-1.2s-6.24.88-8.48.88c-.96 0-1.36.48-1.36.72 0 .72.72 1.12 1.44 1.44 1.36.56 2.88.88 2.96 3.12.16 4.24.16 13.28.16 19.04.055 1.327.44 2.619 1.12 3.76 1.528 2.398 4.197 3.824 7.04 3.76 1.832.035 3.654-.292 5.36-.96 2.277-1.209 4.469-2.572 6.56-4.08.16-.08.4.16.4.56-.08 1.36-.32 2.88-.32 3.36 0 .56.48 1.12.8 1.12.945-.192 1.88-.432 2.8-.72 2.386-.683 4.82-1.191 7.28-1.52.408-.105.737-.404.88-.8-.08-.24-.64-1.52-.96-1.52-.96 0-3.44.4-4 .4-.64 0-.96-.96-.96-1.12 0-6.56.64-24.32.8-26.56 0-.32-.16-1.2-.56-1.2-.653.008-1.3.116-1.92.32-2.813.603-5.683.898-8.56.88-.8 0-1.84.4-1.84.72 0 .64 1.04 1.12 1.6 1.28.72.16 2.48.64 3.68.96.664.389 1.151 1.019 1.36 1.76l-.16 18.4c-.238.728-.65 1.387-1.2 1.92-1.633 1.621-3.787 2.612-6.08 2.8zm22.88-25.12c0 .32.8.64 2.72 2.16.699.587 1.034 1.5.88 2.4v15.28c-.08 4.8-.32 5.6-3.44 6.64-.64.24-1.6.56-1.6 1.04 0 .64.8.96 1.68.96 1.92 0 2.88-.32 5.28-.32 4.64 0 7.44.4 9.44.4 1.2 0 1.92-.32 1.92-.72 0-.32-.16-.88-1.44-1.28-1.2-.32-2.64-.72-3.68-.96-1.44-.24-1.92-1.76-2.08-4.08-.08-1.2-.48-15.68-.48-17.28.067-.658.348-1.277.8-1.76.971-.839 2.243-1.244 3.52-1.12 1.617.101 3.159.718 4.4 1.76.343.186.731.269 1.12.24 1.24-1.088 2.341-2.324 3.28-3.68.219-.345.381-.723.48-1.12 0-.72-.72-2.72-4-2.72-2.48 0-6 2-9.12 4.96-.16.08-.56 0-.56-.32 0-1.52.16-2.96.16-4.4 0-.24-.4-.96-.72-.96-.24 0-.64.32-1.6.96-1.894 1.026-3.875 1.883-5.92 2.56-.59.2-1.001.738-1.04 1.36zm26.4-.32c0 .24.48.64 1.52 1.36 1.76 1.44 1.92 2.24 1.92 3.12 0 8.16-.16 15.12-.4 17.52-.24 2.88-.72 3.68-3.36 4.48-.88.24-1.68.64-1.68 1.2 0 .72.88 1.04 2.08 1.04 1.36 0 3.68-.24 6.64-.24 1.68 0 3.92.08 4.88.08 1.12 0 2-.4 2-.96 0-.48-.64-.96-1.44-1.2-2.56-.72-2.88-1.36-2.96-2.48-.08-.96-.08-18.16-.08-19.2.07-.705.349-1.373.8-1.92 1.943-1.758 4.502-2.679 7.12-2.56 1.807.069 3.568.592 5.12 1.52 1.583 1.557 2.452 3.7 2.4 5.92 0 2.32-.08 12-.24 14.64s-.56 3.28-2.48 4c-.96.32-1.84.8-1.84 1.36 0 .64 1.12.96 1.84.96 1.04 0 3.52-.16 5.52-.16 2.24 0 4.08.16 5.92.16 1.28 0 2.4-.32 2.4-.88s-.48-.96-2-1.36c-2-.56-2.8-1.6-2.96-2.8-.08-1.12-.24-13.04-.24-14.56 0-4-1.04-7.68-2.8-9.76-1.853-2.046-4.522-3.161-7.28-3.04-3.36 0-7.52 2.24-10.72 4.4-.08 0-.48.16-.48-.24 0-.72.32-2.64.32-4 0-.32-.4-1.2-.8-1.2-.692.163-1.345.462-1.92.88-1.705.95-3.501 1.727-5.36 2.32-.56.24-1.44 1.04-1.44 1.6zm53.12-3.84c-1.52 0-5.12 1.36-7.44 3.04-3.76 2.48-6 4.72-6 7.04.056.52.446.943.96 1.04 1.818-.703 3.56-1.587 5.2-2.64.236-.245.401-.549.48-.88-.16-1.6.08-3.04.56-3.28.975-.628 2.122-.936 3.28-.88 3.92 0 6.24 3.36 6.24 5.36 0 .96-.08 5.84-.16 6.56 0 .48-.48.88-2.32 1.44-1.76.56-8.16 2.32-9.36 2.8-1.215.394-2.314 1.081-3.2 2-.932 1.161-1.465 2.592-1.52 4.08 0 4 2.72 7.44 5.52 7.44 1.082-.036 2.155-.197 3.2-.48 2.549-.909 4.97-2.146 7.2-3.68.16-.08.48.24.48.32.614 2.332 2.709 3.968 5.12 4 3.6 0 7.2-3.44 7.2-4.96.014-.286-.071-.569-.24-.8-.16-.24-.24-.4-.48-.24-.931.583-1.962.99-3.04 1.2-.64 0-3.2-.32-3.2-4 0-.88.32-10.96.32-14.08 0-3.36-.4-4.96-1.6-6.64-1.549-2.457-4.298-3.892-7.2-3.76zm-2.4 28.96c-1.68 0-5.04-1.28-5.04-4.8-.128-1.243.503-2.442 1.6-3.04 2.16-1.04 6-2.4 8.24-2.4.331.05.59.31.64.64 0 1.6 0 4.32-.16 6.24-.149.736-.479 1.423-.96 2-1.321.768-2.797 1.233-4.32 1.36zm21.68-49.44c0 .32.24.56 1.6 1.52 1.84 1.12 1.84 1.6 1.92 2.24.24 2.16.24 10.8.24 16.72 0 12.64-.24 21.04-.48 24.32-.32 4-.48 5.44-4.16 6.24-.88.16-1.76.56-1.76 1.12 0 .64.64.88 2.24.88 1.68 0 5.2-.24 7.04-.24 1.44 0 4.88.24 6.8.24.96 0 2.08-.32 2.08-.88 0-.48-.64-.88-1.84-1.2-3.44-.96-3.76-1.92-4.08-3.52-.4-2.16-.24-17.44-.24-29.12 0-10.72.48-19.76.72-21.76 0-.32-.48-.96-.72-.8-2.16 1.36-4.56 1.84-8.24 3.12-.88.24-1.12.8-1.12 1.12z"></path></clipPath>
                  </defs>
                </svg>