<svg enable-background="new 0 0 420 191" viewBox="0 0 420 191" xmlns="http://www.w3.org/2000/svg">
                      <path class="text-stroke text-stroke1" data-clip-path="path-logo1-top" d="m175.151 53.579c10.571 0 18.6-8.432 18.6-19.633 0-9.3-5.807-19.292-18.6-19.292-10.85 0-19.023 8.535-19.023 19.839-.075 4.927 1.737 9.695 5.063 13.33 3.625 3.812 8.702 5.901 13.96 5.745m-.9-36.424c10.064 0 13.629 9.982 13.629 18.527 0 11.366-6.489 15.406-12.048 15.406-4.423.076-8.537-2.261-10.736-6.1-2.136-3.726-3.224-7.961-3.151-12.255 0-14.828 10.25-15.582 12.307-15.582m-53.999 35.679c1.87-.072 3.5-.114 5.549-.114 1.571 0 2.945 0 4.991.093h.816c1.033 0 1.374-.145 1.622-.424l.062-.1c.031-.119.052-.24.062-.362.001-.238-.075-.47-.217-.661-.214-.216-.497-.351-.8-.382l-1.209-.114c-2.769-.248-2.965-.682-2.965-6.654v-7.474c0-1.23 0-1.23 1.467-1.23h3.587c1.329-.065 2.66.025 3.968.269.775.258 1.209.806 1.509 1.912l.4 1.488c.074.26.217.496.413.682.329.218.748.249 1.106.083.351-.248.517-.744.413-2.428v-.1c-.052-1.033-.114-2.129-.114-3.224s.062-2.3.114-3.348v-.207c.093-1.684-.052-2.149-.393-2.428-.364-.172-.791-.14-1.126.083-.223.216-.375.495-.434.8l-.341 1.436c-.31 1.426-.723 1.581-1.137 1.746-1.443.278-2.914.383-4.381.31h-3.586c-1.467 0-1.467 0-1.467-1.219v-11.044c0-1.943 0-1.943 1.312-1.943h3.214c1.684-.085 3.372.023 5.032.32 2.211.61 2.945 1.86 3.379 4.04.071.287.225.546.444.744.337.211.758.234 1.116.062.248-.207.331-.351.32-1.188s-.072-2.067-.093-3.224v-2.48c0-.579-.413-1.23-.951-1.23h-.2c-.248 0-.816.1-2.067.165h-13.898c-1.7 0-3.255 0-5.166-.124-.346-.018-.691-.057-1.033-.114-.124 0-.661.072-.579.589.093.914.705 1.693 1.571 2 2.573.362 2.645 1.033 2.645 6.675v19.6c0 5.931-.165 6.313-2.924 6.654l-.775.1c-.29.051-.555.196-.754.413-.221.327-.256.746-.093 1.106.2.269.537.424 1.478.444m87.013.002c2.129-.083 3.751-.124 5.549-.124s3.245 0 5.291.124c.858 0 1.168-.165 1.395-.424.195-.361.159-.802-.093-1.126-.208-.207-.469-.354-.754-.424l-.527-.072c-2.769-.4-2.924-.775-2.924-6.665v-6.757c0-.682 0-.878.827-.93h1.457c2.002.041 3.861 1.047 4.991 2.7 2.707 3.389 4.2 7.646 6.985 11.077 3.885 4.774 10.209 5.167 10.912 5.167s1.137-.269 1.137-.7c-.016-.63-.478-1.159-1.1-1.261-2.687-.692-6.448-3.865-8.267-6.675-1.551-2.601-2.931-5.3-4.133-8.08-.403-.863-.948-1.653-1.612-2.335-.5-.475-.9-.909-.9-.909s-.134-.176 0-.31c.467-.433.969-.827 1.5-1.178 3.047-1.898 4.907-5.225 4.929-8.814.176-3.319-1.585-6.441-4.516-8.008-2.614-1.5-5.983-1.695-8.928-1.695-3.968 0-7.233.1-10.013.3-.571.036-1.144.036-1.715 0-.325-.006-.594.253-.6.578v.011.072c.093.914.705 1.693 1.571 2l.609.083c1.881.238 2.067.827 2.067 6.2v19.464c0 5.931-.165 6.3-2.924 6.654l-.775.1c-.286.053-.549.193-.754.4-.215.33-.25.745-.093 1.106.2.269.538.434 1.488.444m7.853-33.179c0-1.364 0-1.5 3.151-1.5 7.564 0 8.153 5.983 8.153 7.822 0 3.844-1.281 5.414-2.531 6.437-1.551 1.033-3.402 1.52-5.26 1.385-1.144.083-2.294.016-3.42-.2-.093-.542-.125-1.094-.093-1.643zm73.105 20.265 2.315 7.316c.343.922.569 1.884.672 2.862 0 .341-.609.62-1.6.723l-1.157.124c-.246.063-.468.196-.641.382-.215.329-.25.745-.093 1.106.207.279.568.434 1.591.444 1.343-.062 3.007-.124 4.97-.124s3.451 0 5.249.114c.93 0 1.271-.155 1.5-.413.048-.068.082-.146.1-.227v-.186c.021-.26-.056-.518-.217-.723-.21-.216-.486-.354-.785-.393l-.889-.1c-2.067-.258-2.687-.806-4.247-5.693l-7.5-23.167-.62-1.922c-.093-.289-.186-.579-.269-.868-.176-.548-.31-1.033-.455-1.6-.506-1.86-.868-3.2-1.8-3.2-.135.002-.268.03-.392.083-1.509.61-2.862 1.261-3.1 2.335 0 .227-.114.537-.176.94-.124.661-.269 1.529-.517 2.49l-.269.734-5.373 14.973c-1.529 4.288-2.718 7.388-3.6 9.651-.4 1.033-.744 1.922-1.033 2.707-.324 1.394-1.509 2.421-2.935 2.542l-1.3.124c-.249.063-.475.196-.651.382-.215.329-.25.745-.093 1.106.2.269.548.424 1.478.434h.1c1.23 0 2.614-.114 3.916-.114h1.736c1.168 0 2.067 0 2.893.083.496.121 1.019-.037 1.364-.413.03-.041.054-.086.072-.134.011-.086.011-.172 0-.258.005-.055.005-.11 0-.165-.01-.208-.086-.407-.217-.568-.194-.209-.452-.347-.734-.393l-.961-.114c-1.271-.114-1.271-.434-1.271-.837.206-1.544.588-3.059 1.137-4.516l1.839-5.6c.32-1.033.176-1.137 1.405-1.137h8.624c1.488 0 1.581.114 1.9 1.188m-9.661-4.371c-.362 0-.641 0-.723-.093.022-.299.092-.592.207-.868l3.317-9.424c.444-1.261.982-2.831 1.209-3.379.289.754.847 2.511 1.188 3.586l2.842 8.814c.114.361.32 1.033.2 1.2s-.806.165-1.1.165z" style="clip-path: url(&quot;#path-logo1-top&quot;);"></path>
                      <path class="text-stroke text-stroke2" data-clip-path="path-logo2-top" d="m306.578 120.954c.054-.065.088-.144.1-.227v-.176c.011-.26-.069-.516-.227-.723-.205-.218-.479-.359-.775-.4l-.9-.1c-2.067-.258-2.687-.806-4.247-5.693l-7.5-23.167-.62-1.922c-.083-.289-.175-.579-.258-.868-.176-.548-.32-1.033-.454-1.6-.506-1.86-.879-3.2-1.8-3.2-.135.002-.268.03-.392.083-1.509.61-2.862 1.271-3.1 2.335-.051.227-.114.537-.186.94-.114.661-.259 1.529-.517 2.49-.072.227-.165.475-.259.734l-5.425 14.973c-1.529 4.288-2.728 7.388-3.6 9.651-.4 1.033-.744 1.922-1.034 2.707-.325 1.393-1.509 2.419-2.934 2.542l-1.313.124c-.249.063-.474.196-.651.382-.212.331-.243.747-.083 1.106.2.269.537.424 1.477.434h.093c1.229 0 2.615-.114 3.916-.114h1.737c1.168 0 2.066 0 2.893.083.496.121 1.019-.037 1.364-.413.03-.041.055-.086.073-.134.033-.082.05-.17.052-.258.005-.055.005-.11 0-.165-.01-.208-.086-.407-.217-.568-.197-.207-.453-.347-.734-.4l-.961-.1c-1.271-.114-1.271-.434-1.271-.847.207-1.54.589-3.051 1.137-4.505l1.85-5.6c.32-1.033.165-1.137 1.405-1.137h8.618c1.488 0 1.571.114 1.9 1.188l2.315 7.316c.34.923.566 1.884.672 2.862 0 .351-.61.63-1.6.723l-1.157.124c-.246.063-.468.196-.641.382-.215.33-.25.745-.092 1.106.206.279.568.444 1.591.444 1.343 0 3.007-.124 4.971-.124s3.451 0 5.249.114c.93 0 1.261-.155 1.5-.413m-14.249-17.07c-.124.165-.806.165-1.095.165h-7.14c-.372 0-.651 0-.723-.093.011-.3.081-.595.207-.868l3.317-9.434c.434-1.261.971-2.831 1.2-3.379.3.754.847 2.521 1.188 3.6l2.852 8.814c.114.361.32 1.033.2 1.2m-116.249 4.542 2.315 7.316c.343.922.569 1.884.672 2.862 0 .341-.609.62-1.6.723l-1.157.124c-.246.063-.468.196-.641.382-.215.329-.25.745-.093 1.106.207.279.568.434 1.591.444 1.343-.062 3.007-.124 4.97-.124s3.451 0 5.249.114c.93 0 1.271-.155 1.5-.413.048-.068.082-.146.1-.227v-.186c.021-.26-.056-.518-.217-.723-.21-.216-.486-.354-.785-.393l-.889-.1c-2.067-.258-2.687-.806-4.247-5.693l-7.5-23.167-.62-1.922c-.093-.289-.186-.579-.269-.868-.176-.548-.31-1.033-.455-1.6-.506-1.86-.868-3.2-1.8-3.2-.135.002-.268.03-.392.083-1.509.61-2.862 1.261-3.1 2.335 0 .227-.114.537-.176.94-.124.661-.269 1.529-.517 2.49l-.269.734-5.373 14.973c-1.529 4.288-2.718 7.388-3.6 9.651-.4 1.033-.744 1.922-1.033 2.707-.324 1.394-1.509 2.421-2.935 2.542l-1.3.124c-.249.063-.475.196-.651.382-.215.329-.25.745-.093 1.106.2.269.548.424 1.478.434h.1c1.23 0 2.614-.114 3.916-.114h1.736c1.168 0 2.067 0 2.893.083.496.121 1.019-.037 1.364-.413.03-.041.054-.086.072-.134.011-.086.011-.172 0-.258.005-.055.005-.11 0-.165-.01-.208-.086-.407-.217-.568-.194-.209-.452-.347-.734-.393l-.961-.114c-1.271-.114-1.271-.434-1.271-.837.206-1.544.588-3.059 1.137-4.516l1.839-5.6c.32-1.033.176-1.137 1.405-1.137h8.624c1.488 0 1.581.114 1.9 1.188m-9.661-4.371c-.362 0-.641 0-.723-.093.022-.299.092-.592.207-.868l3.317-9.424c.444-1.261.982-2.831 1.209-3.379.289.754.847 2.511 1.188 3.586l2.842 8.814c.114.361.32 1.033.2 1.2s-.806.165-1.1.165zm150.802-17.45h.372c2.128.207 2.335 1.106 2.335 5.218v20.41c0 5.89-.124 6.2-2.676 6.654l-.31.062c-.301.064-.579.206-.806.413-.263.409-.263.934 0 1.343.3.331.517.5 1.922.444h.506c1.22 0 2.49-.1 3.968-.1 1.209 0 2.542.062 3.72.1.982 0 1.912.072 2.6.072 9.083 0 14.28-4.02 14.28-11.036.222-4.511-2.829-8.529-7.233-9.527-.13-.021-.257-.052-.382-.093-.135-.062-.217-.1-.207-.258s.269-.258.475-.393c2.449-1.333 4.7-3.348 4.7-7.419.151-2.992-1.467-5.795-4.133-7.161-2.614-1.405-6.2-1.591-8.98-1.591-3.74 0-6.892.1-9.6.3-.569.012-1.139-.012-1.705-.072-.155 0-.816.072-.723.723.151.993.946 1.762 1.943 1.881m7.492 1.292c0-.961.2-1.033.578-1.2.745-.247 1.531-.352 2.315-.31 2.821 0 7.574.9 7.574 6.882 0 4.577-2.17 6.365-8.008 6.6h-1.147c-1.24 0-1.312 0-1.312-1.312zm0 15.8c0-.878 0-1.168 2.779-1.168 3.823 0 10.209 1.168 10.209 8.99 0 6-4.34 7.233-8 7.233-1.942 0-3.1-.444-3.947-1.447s-1.033-3.9-1.033-5.869zm-310.107-3.103-4.216-2.769c-1.633-1.033-4.35-3.338-4.35-6.593 0-4.825 3.751-5.549 5.993-5.549 4.423 0 5.962 2.583 6.716 5.073.071.305.229.583.455.8.329.216.745.251 1.106.093.279-.207.434-.558.444-1.56-.082-1.952-.394-3.887-.93-5.766-.039-.11-.142-.184-.258-.186-.601-.023-1.196-.131-1.767-.32-1.622-.456-3.296-.702-4.981-.734-6.582 0-11.015 3.947-11.015 9.816 0 4.733 3.162 7.915 5.807 9.754l5 3.441c3.7 2.5 4.206 5.1 4.206 7.543 0 2.79-1.653 5.766-6.313 5.766-5.249 0-7.605-3.854-8.659-7.233-.08-.206-.207-.39-.372-.537-.329-.215-.744-.25-1.105-.093-.3.217-.4.579-.362 1.767.145 2.23.601 4.429 1.354 6.533.023.042.058.077.1.1 2.545 1.44 5.436 2.155 8.359 2.067 6.871 0 11.49-4.226 11.49-10.529 0-4.371-2.191-7.925-6.706-10.87m80.83.067-4.216-2.769c-1.633-1.033-4.35-3.338-4.35-6.593 0-4.825 3.751-5.549 5.993-5.549 4.423 0 5.962 2.583 6.716 5.073.071.305.229.583.455.8.329.216.745.251 1.106.093.279-.207.434-.558.444-1.56-.082-1.952-.394-3.887-.93-5.766-.039-.11-.142-.184-.258-.186-.601-.023-1.196-.131-1.767-.32-1.622-.456-3.296-.702-4.981-.734-6.582 0-11.015 3.947-11.015 9.816 0 4.733 3.162 7.915 5.807 9.754l5 3.441c3.7 2.5 4.206 5.1 4.206 7.543 0 2.79-1.653 5.766-6.313 5.766-5.249 0-7.605-3.854-8.659-7.233-.08-.206-.207-.39-.372-.537-.329-.215-.744-.25-1.105-.093-.3.217-.4.579-.362 1.767.145 2.23.601 4.429 1.354 6.533.023.042.058.077.1.1 2.545 1.44 5.436 2.155 8.359 2.067 6.871 0 11.49-4.226 11.49-10.529 0-4.371-2.191-7.925-6.706-10.87m167.676-14.86c.277-.051.53-.188.723-.393.251-.324.288-.765.093-1.126-.238-.269-.558-.413-1.509-.424-1.3.072-2.542.1-4.371.1-1.292 0-2.521 0-4.02-.083h-.207c-1.695-.093-2.067 0-2.439.413-.157.364-.122.783.093 1.116.232.218.53.353.847.382h.269c2.067.269 2.583.579 2.842.982.661 1.085 1.033 5.166 1.033 11.366v12.648c0 .207 0 .413-.2.434s-.31-.062-.475-.238c-1.663-1.85-3.441-3.947-5.59-6.489l-2.067-2.377-5.166-6.107c-4.464-5.27-7.3-9-8.452-11.108-.177-.324-.415-.612-.7-.847-.356-.134-.737-.187-1.116-.155h-1.312c-.8 0-2.986 0-4.991-.1l-1.033-.1c-.134 0-.661.062-.589.579.124.831.806 1.465 1.643 1.529.997.094 1.935.516 2.666 1.2.877 1.065 1.275 2.445 1.1 3.813v16.533c0 2.914 0 8.99-.661 10.808-.207.465-.909.785-2.067.951l-.568.072c-.317.05-.613.193-.847.413-.221.331-.256.753-.093 1.116.227.279.5.413 1.219.434 1.426-.072 2.769-.114 4.712-.114 1.591 0 3.1 0 5.167.114.92 0 1.24-.165 1.467-.424.198-.359.165-.8-.083-1.126-.19-.197-.433-.333-.7-.393l-.93-.1c-1.323-.114-2.222-.444-2.47-.92-.589-1.1-.909-5.166-.909-11.366v-12c0-.734 0-1.509.052-2.17 0-.145.062-.248.176-.269.187-.028.372.063.465.227.827 1.033 1.9 2.335 2.893 3.565.868 1.033 1.674 2.067 2.191 2.7l12.2 14.642c3.668 4.392 5.611 6.789 6.479 8 .257.407.787.543 1.209.31.827-.5.692-1.137.692-1.819v-.093c0-1.323-.093-3.823-.093-8.514v-13.998c0-2.852 0-8.793.775-10.571.072-.145.465-.672 2.521-1.033zm-51.964 0 .785-.072c.27-.043.518-.178.7-.382.247-.322.284-.758.093-1.116-.238-.269-.558-.413-1.509-.434-1.963.083-3.585.124-5.414.124s-3.586 0-5.652-.124l-1.033-.114c-.124 0-.661.062-.579.579.117.824.783 1.461 1.612 1.54h.207c2.862.258 2.966.909 2.966 6.82v19.736c0 5.859-.083 6.406-2.976 6.768l-.693.093c-.319.043-.616.188-.847.413-.218.329-.249.748-.083 1.106.238.31.548.444 1.426.444 2.066-.083 3.678-.124 5.652-.124s3.451 0 5.414.114c.94 0 1.271-.155 1.509-.413.195-.361.158-.802-.093-1.126-.212-.225-.494-.371-.8-.413l-.682-.093c-2.893-.362-2.976-.909-2.976-6.768v-19.717c0-5.91.1-6.561 2.966-6.82m-143.468-1.933h-3.524c-1.695 0-3.338 0-5-.114l-1.033-.1c-.134 0-.661.062-.579.589.105.83.778 1.473 1.612 1.54.84-.002 1.635.378 2.16 1.033.62 1.157.961 5.167.961 11.366v6.375c0 6.6-1.757 14.466-10.147 14.466-6.334 0-9.3-4.619-9.3-14.528v-12.04c0-5.962.217-6.468 2.914-6.716l.672-.062c.291-.045.559-.183.765-.393.252-.324.288-.765.093-1.126-.238-.269-.568-.372-1.54-.351h-.992c-1.5 0-2.821.083-4.34.083-1.87 0-3.513 0-5.528-.124l-1.033-.114c-.134 0-.661.062-.589.579.132.786.777 1.384 1.571 1.457h.186c2.7.248 2.914.744 2.914 6.716v13.092c0 6.644 1.292 10.746 4.2 13.288 2.366 2.129 5.4 3.1 9.568 3.1s8.049-1.581 10.261-4.133c2.532-2.852 3.761-7.233 3.761-13.433v-6.2c0-3.1 0-9.434.713-11.2.4-.761 1.208-1.218 2.067-1.168l.672-.062c.303-.029.587-.164.8-.382.252-.324.288-.765.093-1.126-.3-.331-.744-.413-2.439-.31m352.229 28.94c-.339-.276-.798-.354-1.209-.207-.243.135-.444.336-.579.579-1.333 2.687-2.625 4.133-3.4 4.588-1.147.61-2.759.806-6.613.806-4.66 0-5.631-.62-6.2-1.188-.775-.868-.93-2.707-.93-5.58v-7.378c0-1.219 0-1.219 1.467-1.219h3.048c1.336-.071 2.675.02 3.989.269.909.238 1.229.93 1.436 1.912l.351 1.447c.081.283.234.539.445.744.209.142.461.208.713.186h.124c.094-.012.185-.04.269-.083.278-.207.444-.589.444-1.653.007-.29-.01-.581-.051-.868-.051-1.033-.124-2.16-.124-3.276s.062-2.315.124-3.358v-.227c.093-1.695-.051-2.149-.4-2.428-.365-.166-.789-.134-1.126.083-.176.167-.304.377-.372.61l-.341 1.674c-.259 1.343-.6 1.56-1.1 1.726-1.442.287-2.913.395-4.381.32h-3.048c-1.457-.041-1.457-.041-1.457-1.292v-10.531c0-1.943 0-1.943 1.312-1.943h3.854c1.684-.074 3.371.033 5.032.32 2.449.641 2.966 1.963 3.679 4.309.101.222.245.422.423.589.347.191.769.191 1.116 0 .32-.269.362-.424.29-2.232-.08-1.565-.247-3.124-.5-4.671 0-.568-.414-1.188-.951-1.188h-.2c-.248 0-.816.1-2.066.176h-14.24c-1.653 0-3.1 0-4.888-.1-.412.015-.825-.018-1.229-.1-.155 0-.816.072-.723.723.118.978.883 1.752 1.86 1.881 2.252.4 2.335 1.364 2.335 6.624v19.405c0 5.838-.248 6.406-3.017 6.654l-1.147.114c-.297.037-.576.163-.8.362-.273.41-.273.944 0 1.354.32.361.558.517 2.325.424h.2c1.984-.062 3.368-.093 5-.093h4.742c3.978 0 8.019 0 12.028.124.495.002.989.04 1.478.114h.206c.455 0 .8-.486.93-.951.748-2.03 1.382-4.1 1.9-6.2.217-.961.145-1.137-.072-1.385m-39.065-.13c-.25.109-.449.308-.558.558-.599 1.84-1.706 3.473-3.193 4.712-.8.465-1.892.682-6.283.682-3.885 0-4.96-.579-5.538-1.188-.9-1.033-1.033-2.2-1.033-5.58v-19.316c0-5.817.093-6.458 2.955-6.716l.775-.021c.276-.032.532-.161.723-.362.252-.324.288-.765.093-1.126-.29-.341-.744-.5-2.439-.4h-.238c-1.468 0-2.78.083-4.205.083-1.85 0-3.472 0-5.911-.134l-1.033-.114c-.134 0-.661.062-.589.589.146.776.777 1.369 1.56 1.467h.259c3.1.258 3.172.909 3.172 6.716v19.963c0 5.828-.134 6.138-2.914 6.438l-1.2.124c-.216.074-.413.194-.578.351-.274.406-.274.937 0 1.343.268.31.486.465 1.633.455h.723c1.839-.062 3.183-.093 4.846-.093h4.846c4.133 0 7.791 0 10.447.093 1.219.072 1.8.145 2.066.176h.2c.447-.056.807-.394.889-.837.565-1.554 1.044-3.137 1.436-4.743l.063-.269c.578-2.149.537-2.356.237-2.687-.343-.249-.783-.323-1.188-.2m-255.723 8.571h.754c2.067-.072 3.482-.1 5.053-.1 1.777 0 3.307 0 5.662.124 1.033 0 1.374-.145 1.612-.424.198-.359.165-.8-.083-1.126-.206-.21-.474-.348-.765-.393l-1.085-.114c-2.718-.238-2.9-.672-2.9-6.654v-24.42c-.061-.436-.022-.881.114-1.3.114-.134.506-.145 1.137-.145h5.477c1.426 0 3.007.093 3.833.889.933.937 1.655 2.062 2.118 3.3.132.248.333.453.579.589.38.138.804.082 1.135-.15.238-.31.289-.63.083-1.436-.083-.258-.155-.517-.238-.785.01-.088-.021-.175-.083-.238-.083-.083-.072-.269-.093-.4-.568-2.067-1.033-4.35-1.312-5.941-.011-.075-.052-.142-.114-.186-.223-.103-.467-.156-.713-.155-.231-.019-.461.053-.641.2-.034.039-.058.084-.072.134-.248 1.426-1.529 1.5-3.782 1.5h-19.635c-2.253 0-3.534-.072-3.792-1.5-.01-.049-.031-.095-.062-.134-.18-.146-.41-.218-.641-.2-.249-.001-.496.052-.723.155-.055.048-.09.114-.1.186-.269 1.591-.754 3.865-1.312 5.941-.014.137-.048.272-.1.4-.041.134-.062.165-.083.238-.072.269-.155.527-.227.785-.207.806-.155 1.137.072 1.436.333.231.757.285 1.137.145.248-.133.45-.338.579-.589.463-1.241 1.189-2.367 2.129-3.3.827-.8 2.4-.909 3.823-.909h5.332c.651 0 1.033 0 1.178.145.147.435.193.898.134 1.354v24.344c0 5.838-.258 6.407-3.017 6.655l-1.426.124c-.293.039-.565.173-.775.382-.215.329-.25.745-.093 1.106.279.351.63.475 1.8.444h.134" style="clip-path: url(&quot;#path-logo2-top&quot;);"></path>
                      <path class="text-stroke text-stroke3" data-clip-path="path-logo3-top" d="m331.978 179.918c-.339-.276-.798-.354-1.209-.207-.243.135-.444.336-.579.579-1.333 2.687-2.625 4.133-3.4 4.588-1.147.61-2.759.806-6.613.806-4.66 0-5.631-.62-6.2-1.188-.775-.868-.93-2.707-.93-5.58v-7.378c0-1.219 0-1.219 1.467-1.219h3.048c1.336-.071 2.675.02 3.989.269.909.238 1.229.93 1.436 1.912l.351 1.447c.081.283.234.539.445.744.209.142.461.208.713.186h.124c.094-.012.185-.04.269-.083.278-.207.444-.589.444-1.653.007-.29-.01-.581-.051-.868-.051-1.033-.124-2.16-.124-3.276s.062-2.315.124-3.358v-.227c.093-1.695-.051-2.149-.4-2.428-.365-.166-.789-.134-1.126.083-.176.167-.304.377-.372.61l-.341 1.674c-.259 1.343-.6 1.56-1.1 1.726-1.442.287-2.913.395-4.381.32h-3.048c-1.457-.041-1.457-.041-1.457-1.292v-10.531c0-1.943 0-1.943 1.312-1.943h3.854c1.684-.074 3.371.033 5.032.32 2.449.641 2.966 1.963 3.679 4.309.101.222.245.422.423.589.347.191.769.191 1.116 0 .32-.269.362-.424.29-2.232-.08-1.565-.247-3.124-.5-4.671 0-.568-.414-1.188-.951-1.188h-.2c-.248 0-.816.1-2.066.176h-14.24c-1.653 0-3.1 0-4.888-.1-.412.015-.825-.018-1.229-.1-.155 0-.816.072-.723.723.118.978.883 1.752 1.86 1.881 2.252.4 2.335 1.364 2.335 6.624v19.405c0 5.838-.248 6.406-3.017 6.654l-1.147.114c-.297.037-.576.163-.8.362-.273.41-.273.944 0 1.354.32.361.558.517 2.325.424h.2c1.984-.062 3.368-.093 5-.093h4.742c3.978 0 8.019 0 12.028.124.495.002.989.04 1.478.114h.206c.455 0 .8-.486.93-.951.748-2.03 1.382-4.1 1.9-6.2.217-.961.145-1.137-.072-1.385m-220.34-25.222v-2.428c0-.579-.413-1.23-.961-1.23h-.186c-.248 0-.827.1-2.067.176h-13.949c-1.705 0-3.245 0-5.166-.114l-1.033-.114c-.124 0-.661.062-.579.579.093.914.705 1.693 1.571 2 2.573.362 2.645 1.033 2.645 6.675v19.596c0 5.941-.165 6.313-2.914 6.665l-.785.1c-.287.051-.551.191-.754.4-.215.329-.25.745-.093 1.106.2.269.548.424 1.478.444 1.881-.083 3.5-.124 5.559-.124 1.571 0 2.945 0 4.991.093h.806c1.033 0 1.385-.145 1.622-.424.029-.029.054-.063.072-.1.031-.119.052-.24.062-.362.006-.239-.07-.472-.217-.661-.215-.221-.5-.36-.806-.393l-1.2-.114c-2.769-.248-2.966-.682-2.966-6.654v-7.492c0-1.219 0-1.219 1.467-1.219h3.575c1.331-.064 2.666.022 3.978.258.82.31 1.399 1.051 1.5 1.922l.4 1.488c.082.259.228.494.424.682.329.218.748.249 1.106.083.341-.248.517-.744.413-2.428v-.1c0-1.033-.114-2.129-.114-3.224s.062-2.3.114-3.348v-.206c.093-1.695 0-2.149-.393-2.428-.364-.172-.791-.14-1.126.083-.223.216-.375.495-.434.8l-.341 1.436c-.31 1.426-.723 1.581-1.137 1.746-1.443.277-2.913.384-4.381.32h-3.5c-1.467 0-1.467 0-1.467-1.23v-11.049c0-1.953 0-1.953 1.312-1.953h3.2c1.688-.086 3.38.025 5.042.331 2.211.61 2.945 1.85 3.379 4.03.071.287.225.546.444.744.337.211.758.234 1.116.062.238-.207.32-.351.32-1.188s-.072-2.067-.093-3.214m183.993 34.324c-2.687-.692-6.448-3.864-8.266-6.675-1.547-2.603-2.927-5.302-4.133-8.08-.414-.87-.973-1.664-1.654-2.346-.5-.465-.9-.909-.9-.909s-.134-.176 0-.31c.472-.448.98-.856 1.519-1.219 3.047-1.896 4.905-5.225 4.918-8.814.188-3.317-1.571-6.441-4.505-8-2.614-1.5-5.983-1.7-8.928-1.7-3.968 0-7.233.1-10.012.31-.575.036-1.151.036-1.726 0-.32-.006-.583.249-.589.569v.02.052c.095.913.706 1.691 1.571 2l.6.083c1.891.238 2.066.827 2.066 6.2v19.467c0 5.931-.165 6.3-2.924 6.655l-.775.1c-.286.053-.549.193-.754.4-.215.329-.25.745-.093 1.106.2.268.548.434 1.488.444 2.067-.083 3.751-.124 5.538-.124s3.255 0 5.29.124c.868 0 1.178-.165 1.4-.424.195-.361.159-.802-.093-1.126-.2-.213-.459-.36-.744-.424l-.538-.083c-2.758-.393-2.924-.775-2.924-6.655v-6.768c0-.672 0-.868.827-.92h1.467c1.996.042 3.849 1.042 4.98 2.687 2.717 3.4 4.2 7.657 6.985 11.087 3.9 4.774 10.209 5.167 10.922 5.167s1.137-.269 1.137-.693c-.012-.634-.475-1.168-1.1-1.271m-16.429-21.048c-1.554 1.034-3.409 1.518-5.27 1.374-1.143.083-2.292.021-3.42-.186-.093-.542-.124-1.094-.093-1.643v-12.236c0-1.354 0-1.5 3.152-1.5 7.564 0 8.153 5.993 8.153 7.822 0 3.854-1.281 5.414-2.532 6.438m-75.636-18.382c-.151-.007-.303.017-.444.072-.058.024-.106.068-.134.124-.713 1.292-1.033 1.405-3.865 1.405h-21.762c-2.242 0-3.523-.072-3.782-1.488-.009-.054-.034-.105-.072-.145-.175-.147-.403-.215-.63-.186-.25-.013-.5.041-.723.155-.061.04-.103.104-.114.176-.269 1.591-.754 3.865-1.312 5.952-.021.133-.052.264-.093.393-.032.081-.06.164-.083.248-.072.259-.155.517-.238.775-.207.806-.155 1.137.083 1.436.331.234.755.292 1.137.155.244-.143.445-.351.579-.6.465-1.24 1.191-2.365 2.129-3.3.827-.8 2.4-.9 3.823-.9h5.352c.651 0 1.033 0 1.178.155.144.436.187.899.124 1.354v24.334c0 5.848-.248 6.406-3.017 6.655l-1.426.134c-.29.033-.56.164-.765.372-.225.326-.261.747-.093 1.106.269.351.63.486 1.8.444h.878c2.066-.072 3.492-.093 5.063-.093 1.777 0 3.307 0 5.662.113 1.033 0 1.374-.145 1.612-.424.198-.359.165-.8-.083-1.126-.206-.21-.474-.348-.765-.393l-1.085-.1c-2.718-.248-2.9-.682-2.9-6.655v-24.4c-.061-.436-.022-.881.114-1.3.114-.134.506-.145 1.136-.145h3.741c2.79 0 4.8 0 5.941.888.486.372.889 1.529 1.137 3.214.031.268.142.52.32.723.271.305.696.423 1.085.3.4-.207.506-.434.548-1.55.033-2.467.31-4.925.827-7.337.02-.06.02-.126 0-.186-.201-.266-.527-.407-.858-.372m45.253 1.577h-.207c-.982 0-2 .062-3.306.062-1.684 0-3.338 0-5-.124l-1.034-.1c-.134 0-.661.062-.589.589.131.79.774 1.396 1.571 1.478.84-.002 1.635.378 2.16 1.033.62 1.157.961 5.166.961 11.366v6.386c0 6.6-1.757 14.466-10.147 14.466-6.334 0-9.3-4.619-9.3-14.528v-12.031c0-5.962.217-6.468 2.914-6.716l.672-.062c.293-.042.563-.183.765-.4.252-.324.288-.765.093-1.126-.238-.269-.568-.362-1.54-.351h-.992c-1.5 0-2.821.083-4.34.083-1.87 0-3.513 0-5.528-.134l-1.033-.114c-.135 0-.661.062-.589.589.137.782.781 1.375 1.571 1.447h.186c2.7.238 2.914.744 2.914 6.716v13.082c0 6.654 1.291 10.746 4.2 13.288 2.366 2.128 5.4 3.1 9.568 3.1s8.049-1.591 10.271-4.133c2.521-2.852 3.751-7.233 3.751-13.433v-6.262c0-3.1 0-9.424.723-11.2.398-.763 1.208-1.221 2.067-1.168l.672-.062c.304-.018.59-.151.8-.372.251-.324.288-.765.093-1.126-.3-.341-.744-.413-2.438-.32m-90.292.077h-.207c-1.033 0-2 .062-3.306.062-1.695 0-3.338 0-5-.124l-1.033-.1c-.124 0-.661.062-.579.589.123.79.764 1.398 1.56 1.478.84-.002 1.635.378 2.16 1.033.62 1.157.961 5.166.961 11.366v6.386c0 6.6-1.757 14.466-10.147 14.466-6.334 0-9.3-4.619-9.3-14.528v-12.031c0-5.962.217-6.468 2.914-6.716l.672-.062c.293-.042.563-.183.765-.4.252-.324.288-.765.093-1.126-.238-.269-.568-.362-1.54-.351h-.992c-1.5 0-2.821.083-4.34.083-1.87 0-3.513 0-5.528-.134l-1.033-.114c-.134 0-.661.062-.589.589.137.782.781 1.375 1.571 1.447h.186c2.7.238 2.914.744 2.914 6.716v13.082c0 6.654 1.3 10.746 4.2 13.288 2.366 2.128 5.4 3.1 9.568 3.1s8.049-1.591 10.271-4.133c2.521-2.852 3.751-7.233 3.751-13.433v-6.262c0-3.1 0-9.424.713-11.2.402-.76 1.209-1.216 2.067-1.168l.672-.062c.304-.02.589-.152.8-.372.252-.324.288-.765.093-1.126-.3-.341-.744-.413-2.438-.32" style="clip-path: url(&quot;#path-logo3-top&quot;);"></path>

                      <defs>
                        <clipPath id="path-logo1-top"><path d="m175.151 53.579c10.571 0 18.6-8.432 18.6-19.633 0-9.3-5.807-19.292-18.6-19.292-10.85 0-19.023 8.535-19.023 19.839-.075 4.927 1.737 9.695 5.063 13.33 3.625 3.812 8.702 5.901 13.96 5.745m-.9-36.424c10.064 0 13.629 9.982 13.629 18.527 0 11.366-6.489 15.406-12.048 15.406-4.423.076-8.537-2.261-10.736-6.1-2.136-3.726-3.224-7.961-3.151-12.255 0-14.828 10.25-15.582 12.307-15.582m-53.999 35.679c1.87-.072 3.5-.114 5.549-.114 1.571 0 2.945 0 4.991.093h.816c1.033 0 1.374-.145 1.622-.424l.062-.1c.031-.119.052-.24.062-.362.001-.238-.075-.47-.217-.661-.214-.216-.497-.351-.8-.382l-1.209-.114c-2.769-.248-2.965-.682-2.965-6.654v-7.474c0-1.23 0-1.23 1.467-1.23h3.587c1.329-.065 2.66.025 3.968.269.775.258 1.209.806 1.509 1.912l.4 1.488c.074.26.217.496.413.682.329.218.748.249 1.106.083.351-.248.517-.744.413-2.428v-.1c-.052-1.033-.114-2.129-.114-3.224s.062-2.3.114-3.348v-.207c.093-1.684-.052-2.149-.393-2.428-.364-.172-.791-.14-1.126.083-.223.216-.375.495-.434.8l-.341 1.436c-.31 1.426-.723 1.581-1.137 1.746-1.443.278-2.914.383-4.381.31h-3.586c-1.467 0-1.467 0-1.467-1.219v-11.044c0-1.943 0-1.943 1.312-1.943h3.214c1.684-.085 3.372.023 5.032.32 2.211.61 2.945 1.86 3.379 4.04.071.287.225.546.444.744.337.211.758.234 1.116.062.248-.207.331-.351.32-1.188s-.072-2.067-.093-3.224v-2.48c0-.579-.413-1.23-.951-1.23h-.2c-.248 0-.816.1-2.067.165h-13.898c-1.7 0-3.255 0-5.166-.124-.346-.018-.691-.057-1.033-.114-.124 0-.661.072-.579.589.093.914.705 1.693 1.571 2 2.573.362 2.645 1.033 2.645 6.675v19.6c0 5.931-.165 6.313-2.924 6.654l-.775.1c-.29.051-.555.196-.754.413-.221.327-.256.746-.093 1.106.2.269.537.424 1.478.444m87.013.002c2.129-.083 3.751-.124 5.549-.124s3.245 0 5.291.124c.858 0 1.168-.165 1.395-.424.195-.361.159-.802-.093-1.126-.208-.207-.469-.354-.754-.424l-.527-.072c-2.769-.4-2.924-.775-2.924-6.665v-6.757c0-.682 0-.878.827-.93h1.457c2.002.041 3.861 1.047 4.991 2.7 2.707 3.389 4.2 7.646 6.985 11.077 3.885 4.774 10.209 5.167 10.912 5.167s1.137-.269 1.137-.7c-.016-.63-.478-1.159-1.1-1.261-2.687-.692-6.448-3.865-8.267-6.675-1.551-2.601-2.931-5.3-4.133-8.08-.403-.863-.948-1.653-1.612-2.335-.5-.475-.9-.909-.9-.909s-.134-.176 0-.31c.467-.433.969-.827 1.5-1.178 3.047-1.898 4.907-5.225 4.929-8.814.176-3.319-1.585-6.441-4.516-8.008-2.614-1.5-5.983-1.695-8.928-1.695-3.968 0-7.233.1-10.013.3-.571.036-1.144.036-1.715 0-.325-.006-.594.253-.6.578v.011.072c.093.914.705 1.693 1.571 2l.609.083c1.881.238 2.067.827 2.067 6.2v19.464c0 5.931-.165 6.3-2.924 6.654l-.775.1c-.286.053-.549.193-.754.4-.215.33-.25.745-.093 1.106.2.269.538.434 1.488.444m7.853-33.179c0-1.364 0-1.5 3.151-1.5 7.564 0 8.153 5.983 8.153 7.822 0 3.844-1.281 5.414-2.531 6.437-1.551 1.033-3.402 1.52-5.26 1.385-1.144.083-2.294.016-3.42-.2-.093-.542-.125-1.094-.093-1.643zm73.105 20.265 2.315 7.316c.343.922.569 1.884.672 2.862 0 .341-.609.62-1.6.723l-1.157.124c-.246.063-.468.196-.641.382-.215.329-.25.745-.093 1.106.207.279.568.434 1.591.444 1.343-.062 3.007-.124 4.97-.124s3.451 0 5.249.114c.93 0 1.271-.155 1.5-.413.048-.068.082-.146.1-.227v-.186c.021-.26-.056-.518-.217-.723-.21-.216-.486-.354-.785-.393l-.889-.1c-2.067-.258-2.687-.806-4.247-5.693l-7.5-23.167-.62-1.922c-.093-.289-.186-.579-.269-.868-.176-.548-.31-1.033-.455-1.6-.506-1.86-.868-3.2-1.8-3.2-.135.002-.268.03-.392.083-1.509.61-2.862 1.261-3.1 2.335 0 .227-.114.537-.176.94-.124.661-.269 1.529-.517 2.49l-.269.734-5.373 14.973c-1.529 4.288-2.718 7.388-3.6 9.651-.4 1.033-.744 1.922-1.033 2.707-.324 1.394-1.509 2.421-2.935 2.542l-1.3.124c-.249.063-.475.196-.651.382-.215.329-.25.745-.093 1.106.2.269.548.424 1.478.434h.1c1.23 0 2.614-.114 3.916-.114h1.736c1.168 0 2.067 0 2.893.083.496.121 1.019-.037 1.364-.413.03-.041.054-.086.072-.134.011-.086.011-.172 0-.258.005-.055.005-.11 0-.165-.01-.208-.086-.407-.217-.568-.194-.209-.452-.347-.734-.393l-.961-.114c-1.271-.114-1.271-.434-1.271-.837.206-1.544.588-3.059 1.137-4.516l1.839-5.6c.32-1.033.176-1.137 1.405-1.137h8.624c1.488 0 1.581.114 1.9 1.188m-9.661-4.371c-.362 0-.641 0-.723-.093.022-.299.092-.592.207-.868l3.317-9.424c.444-1.261.982-2.831 1.209-3.379.289.754.847 2.511 1.188 3.586l2.842 8.814c.114.361.32 1.033.2 1.2s-.806.165-1.1.165z"></path></clipPath>
                        <clipPath id="path-logo2-top"><path d="m306.578 120.954c.054-.065.088-.144.1-.227v-.176c.011-.26-.069-.516-.227-.723-.205-.218-.479-.359-.775-.4l-.9-.1c-2.067-.258-2.687-.806-4.247-5.693l-7.5-23.167-.62-1.922c-.083-.289-.175-.579-.258-.868-.176-.548-.32-1.033-.454-1.6-.506-1.86-.879-3.2-1.8-3.2-.135.002-.268.03-.392.083-1.509.61-2.862 1.271-3.1 2.335-.051.227-.114.537-.186.94-.114.661-.259 1.529-.517 2.49-.072.227-.165.475-.259.734l-5.425 14.973c-1.529 4.288-2.728 7.388-3.6 9.651-.4 1.033-.744 1.922-1.034 2.707-.325 1.393-1.509 2.419-2.934 2.542l-1.313.124c-.249.063-.474.196-.651.382-.212.331-.243.747-.083 1.106.2.269.537.424 1.477.434h.093c1.229 0 2.615-.114 3.916-.114h1.737c1.168 0 2.066 0 2.893.083.496.121 1.019-.037 1.364-.413.03-.041.055-.086.073-.134.033-.082.05-.17.052-.258.005-.055.005-.11 0-.165-.01-.208-.086-.407-.217-.568-.197-.207-.453-.347-.734-.4l-.961-.1c-1.271-.114-1.271-.434-1.271-.847.207-1.54.589-3.051 1.137-4.505l1.85-5.6c.32-1.033.165-1.137 1.405-1.137h8.618c1.488 0 1.571.114 1.9 1.188l2.315 7.316c.34.923.566 1.884.672 2.862 0 .351-.61.63-1.6.723l-1.157.124c-.246.063-.468.196-.641.382-.215.33-.25.745-.092 1.106.206.279.568.444 1.591.444 1.343 0 3.007-.124 4.971-.124s3.451 0 5.249.114c.93 0 1.261-.155 1.5-.413m-14.249-17.07c-.124.165-.806.165-1.095.165h-7.14c-.372 0-.651 0-.723-.093.011-.3.081-.595.207-.868l3.317-9.434c.434-1.261.971-2.831 1.2-3.379.3.754.847 2.521 1.188 3.6l2.852 8.814c.114.361.32 1.033.2 1.2m-116.249 4.542 2.315 7.316c.343.922.569 1.884.672 2.862 0 .341-.609.62-1.6.723l-1.157.124c-.246.063-.468.196-.641.382-.215.329-.25.745-.093 1.106.207.279.568.434 1.591.444 1.343-.062 3.007-.124 4.97-.124s3.451 0 5.249.114c.93 0 1.271-.155 1.5-.413.048-.068.082-.146.1-.227v-.186c.021-.26-.056-.518-.217-.723-.21-.216-.486-.354-.785-.393l-.889-.1c-2.067-.258-2.687-.806-4.247-5.693l-7.5-23.167-.62-1.922c-.093-.289-.186-.579-.269-.868-.176-.548-.31-1.033-.455-1.6-.506-1.86-.868-3.2-1.8-3.2-.135.002-.268.03-.392.083-1.509.61-2.862 1.261-3.1 2.335 0 .227-.114.537-.176.94-.124.661-.269 1.529-.517 2.49l-.269.734-5.373 14.973c-1.529 4.288-2.718 7.388-3.6 9.651-.4 1.033-.744 1.922-1.033 2.707-.324 1.394-1.509 2.421-2.935 2.542l-1.3.124c-.249.063-.475.196-.651.382-.215.329-.25.745-.093 1.106.2.269.548.424 1.478.434h.1c1.23 0 2.614-.114 3.916-.114h1.736c1.168 0 2.067 0 2.893.083.496.121 1.019-.037 1.364-.413.03-.041.054-.086.072-.134.011-.086.011-.172 0-.258.005-.055.005-.11 0-.165-.01-.208-.086-.407-.217-.568-.194-.209-.452-.347-.734-.393l-.961-.114c-1.271-.114-1.271-.434-1.271-.837.206-1.544.588-3.059 1.137-4.516l1.839-5.6c.32-1.033.176-1.137 1.405-1.137h8.624c1.488 0 1.581.114 1.9 1.188m-9.661-4.371c-.362 0-.641 0-.723-.093.022-.299.092-.592.207-.868l3.317-9.424c.444-1.261.982-2.831 1.209-3.379.289.754.847 2.511 1.188 3.586l2.842 8.814c.114.361.32 1.033.2 1.2s-.806.165-1.1.165zm150.802-17.45h.372c2.128.207 2.335 1.106 2.335 5.218v20.41c0 5.89-.124 6.2-2.676 6.654l-.31.062c-.301.064-.579.206-.806.413-.263.409-.263.934 0 1.343.3.331.517.5 1.922.444h.506c1.22 0 2.49-.1 3.968-.1 1.209 0 2.542.062 3.72.1.982 0 1.912.072 2.6.072 9.083 0 14.28-4.02 14.28-11.036.222-4.511-2.829-8.529-7.233-9.527-.13-.021-.257-.052-.382-.093-.135-.062-.217-.1-.207-.258s.269-.258.475-.393c2.449-1.333 4.7-3.348 4.7-7.419.151-2.992-1.467-5.795-4.133-7.161-2.614-1.405-6.2-1.591-8.98-1.591-3.74 0-6.892.1-9.6.3-.569.012-1.139-.012-1.705-.072-.155 0-.816.072-.723.723.151.993.946 1.762 1.943 1.881m7.492 1.292c0-.961.2-1.033.578-1.2.745-.247 1.531-.352 2.315-.31 2.821 0 7.574.9 7.574 6.882 0 4.577-2.17 6.365-8.008 6.6h-1.147c-1.24 0-1.312 0-1.312-1.312zm0 15.8c0-.878 0-1.168 2.779-1.168 3.823 0 10.209 1.168 10.209 8.99 0 6-4.34 7.233-8 7.233-1.942 0-3.1-.444-3.947-1.447s-1.033-3.9-1.033-5.869zm-310.107-3.103-4.216-2.769c-1.633-1.033-4.35-3.338-4.35-6.593 0-4.825 3.751-5.549 5.993-5.549 4.423 0 5.962 2.583 6.716 5.073.071.305.229.583.455.8.329.216.745.251 1.106.093.279-.207.434-.558.444-1.56-.082-1.952-.394-3.887-.93-5.766-.039-.11-.142-.184-.258-.186-.601-.023-1.196-.131-1.767-.32-1.622-.456-3.296-.702-4.981-.734-6.582 0-11.015 3.947-11.015 9.816 0 4.733 3.162 7.915 5.807 9.754l5 3.441c3.7 2.5 4.206 5.1 4.206 7.543 0 2.79-1.653 5.766-6.313 5.766-5.249 0-7.605-3.854-8.659-7.233-.08-.206-.207-.39-.372-.537-.329-.215-.744-.25-1.105-.093-.3.217-.4.579-.362 1.767.145 2.23.601 4.429 1.354 6.533.023.042.058.077.1.1 2.545 1.44 5.436 2.155 8.359 2.067 6.871 0 11.49-4.226 11.49-10.529 0-4.371-2.191-7.925-6.706-10.87m80.83.067-4.216-2.769c-1.633-1.033-4.35-3.338-4.35-6.593 0-4.825 3.751-5.549 5.993-5.549 4.423 0 5.962 2.583 6.716 5.073.071.305.229.583.455.8.329.216.745.251 1.106.093.279-.207.434-.558.444-1.56-.082-1.952-.394-3.887-.93-5.766-.039-.11-.142-.184-.258-.186-.601-.023-1.196-.131-1.767-.32-1.622-.456-3.296-.702-4.981-.734-6.582 0-11.015 3.947-11.015 9.816 0 4.733 3.162 7.915 5.807 9.754l5 3.441c3.7 2.5 4.206 5.1 4.206 7.543 0 2.79-1.653 5.766-6.313 5.766-5.249 0-7.605-3.854-8.659-7.233-.08-.206-.207-.39-.372-.537-.329-.215-.744-.25-1.105-.093-.3.217-.4.579-.362 1.767.145 2.23.601 4.429 1.354 6.533.023.042.058.077.1.1 2.545 1.44 5.436 2.155 8.359 2.067 6.871 0 11.49-4.226 11.49-10.529 0-4.371-2.191-7.925-6.706-10.87m167.676-14.86c.277-.051.53-.188.723-.393.251-.324.288-.765.093-1.126-.238-.269-.558-.413-1.509-.424-1.3.072-2.542.1-4.371.1-1.292 0-2.521 0-4.02-.083h-.207c-1.695-.093-2.067 0-2.439.413-.157.364-.122.783.093 1.116.232.218.53.353.847.382h.269c2.067.269 2.583.579 2.842.982.661 1.085 1.033 5.166 1.033 11.366v12.648c0 .207 0 .413-.2.434s-.31-.062-.475-.238c-1.663-1.85-3.441-3.947-5.59-6.489l-2.067-2.377-5.166-6.107c-4.464-5.27-7.3-9-8.452-11.108-.177-.324-.415-.612-.7-.847-.356-.134-.737-.187-1.116-.155h-1.312c-.8 0-2.986 0-4.991-.1l-1.033-.1c-.134 0-.661.062-.589.579.124.831.806 1.465 1.643 1.529.997.094 1.935.516 2.666 1.2.877 1.065 1.275 2.445 1.1 3.813v16.533c0 2.914 0 8.99-.661 10.808-.207.465-.909.785-2.067.951l-.568.072c-.317.05-.613.193-.847.413-.221.331-.256.753-.093 1.116.227.279.5.413 1.219.434 1.426-.072 2.769-.114 4.712-.114 1.591 0 3.1 0 5.167.114.92 0 1.24-.165 1.467-.424.198-.359.165-.8-.083-1.126-.19-.197-.433-.333-.7-.393l-.93-.1c-1.323-.114-2.222-.444-2.47-.92-.589-1.1-.909-5.166-.909-11.366v-12c0-.734 0-1.509.052-2.17 0-.145.062-.248.176-.269.187-.028.372.063.465.227.827 1.033 1.9 2.335 2.893 3.565.868 1.033 1.674 2.067 2.191 2.7l12.2 14.642c3.668 4.392 5.611 6.789 6.479 8 .257.407.787.543 1.209.31.827-.5.692-1.137.692-1.819v-.093c0-1.323-.093-3.823-.093-8.514v-13.998c0-2.852 0-8.793.775-10.571.072-.145.465-.672 2.521-1.033zm-51.964 0 .785-.072c.27-.043.518-.178.7-.382.247-.322.284-.758.093-1.116-.238-.269-.558-.413-1.509-.434-1.963.083-3.585.124-5.414.124s-3.586 0-5.652-.124l-1.033-.114c-.124 0-.661.062-.579.579.117.824.783 1.461 1.612 1.54h.207c2.862.258 2.966.909 2.966 6.82v19.736c0 5.859-.083 6.406-2.976 6.768l-.693.093c-.319.043-.616.188-.847.413-.218.329-.249.748-.083 1.106.238.31.548.444 1.426.444 2.066-.083 3.678-.124 5.652-.124s3.451 0 5.414.114c.94 0 1.271-.155 1.509-.413.195-.361.158-.802-.093-1.126-.212-.225-.494-.371-.8-.413l-.682-.093c-2.893-.362-2.976-.909-2.976-6.768v-19.717c0-5.91.1-6.561 2.966-6.82m-143.468-1.933h-3.524c-1.695 0-3.338 0-5-.114l-1.033-.1c-.134 0-.661.062-.579.589.105.83.778 1.473 1.612 1.54.84-.002 1.635.378 2.16 1.033.62 1.157.961 5.167.961 11.366v6.375c0 6.6-1.757 14.466-10.147 14.466-6.334 0-9.3-4.619-9.3-14.528v-12.04c0-5.962.217-6.468 2.914-6.716l.672-.062c.291-.045.559-.183.765-.393.252-.324.288-.765.093-1.126-.238-.269-.568-.372-1.54-.351h-.992c-1.5 0-2.821.083-4.34.083-1.87 0-3.513 0-5.528-.124l-1.033-.114c-.134 0-.661.062-.589.579.132.786.777 1.384 1.571 1.457h.186c2.7.248 2.914.744 2.914 6.716v13.092c0 6.644 1.292 10.746 4.2 13.288 2.366 2.129 5.4 3.1 9.568 3.1s8.049-1.581 10.261-4.133c2.532-2.852 3.761-7.233 3.761-13.433v-6.2c0-3.1 0-9.434.713-11.2.4-.761 1.208-1.218 2.067-1.168l.672-.062c.303-.029.587-.164.8-.382.252-.324.288-.765.093-1.126-.3-.331-.744-.413-2.439-.31m352.229 28.94c-.339-.276-.798-.354-1.209-.207-.243.135-.444.336-.579.579-1.333 2.687-2.625 4.133-3.4 4.588-1.147.61-2.759.806-6.613.806-4.66 0-5.631-.62-6.2-1.188-.775-.868-.93-2.707-.93-5.58v-7.378c0-1.219 0-1.219 1.467-1.219h3.048c1.336-.071 2.675.02 3.989.269.909.238 1.229.93 1.436 1.912l.351 1.447c.081.283.234.539.445.744.209.142.461.208.713.186h.124c.094-.012.185-.04.269-.083.278-.207.444-.589.444-1.653.007-.29-.01-.581-.051-.868-.051-1.033-.124-2.16-.124-3.276s.062-2.315.124-3.358v-.227c.093-1.695-.051-2.149-.4-2.428-.365-.166-.789-.134-1.126.083-.176.167-.304.377-.372.61l-.341 1.674c-.259 1.343-.6 1.56-1.1 1.726-1.442.287-2.913.395-4.381.32h-3.048c-1.457-.041-1.457-.041-1.457-1.292v-10.531c0-1.943 0-1.943 1.312-1.943h3.854c1.684-.074 3.371.033 5.032.32 2.449.641 2.966 1.963 3.679 4.309.101.222.245.422.423.589.347.191.769.191 1.116 0 .32-.269.362-.424.29-2.232-.08-1.565-.247-3.124-.5-4.671 0-.568-.414-1.188-.951-1.188h-.2c-.248 0-.816.1-2.066.176h-14.24c-1.653 0-3.1 0-4.888-.1-.412.015-.825-.018-1.229-.1-.155 0-.816.072-.723.723.118.978.883 1.752 1.86 1.881 2.252.4 2.335 1.364 2.335 6.624v19.405c0 5.838-.248 6.406-3.017 6.654l-1.147.114c-.297.037-.576.163-.8.362-.273.41-.273.944 0 1.354.32.361.558.517 2.325.424h.2c1.984-.062 3.368-.093 5-.093h4.742c3.978 0 8.019 0 12.028.124.495.002.989.04 1.478.114h.206c.455 0 .8-.486.93-.951.748-2.03 1.382-4.1 1.9-6.2.217-.961.145-1.137-.072-1.385m-39.065-.13c-.25.109-.449.308-.558.558-.599 1.84-1.706 3.473-3.193 4.712-.8.465-1.892.682-6.283.682-3.885 0-4.96-.579-5.538-1.188-.9-1.033-1.033-2.2-1.033-5.58v-19.316c0-5.817.093-6.458 2.955-6.716l.775-.021c.276-.032.532-.161.723-.362.252-.324.288-.765.093-1.126-.29-.341-.744-.5-2.439-.4h-.238c-1.468 0-2.78.083-4.205.083-1.85 0-3.472 0-5.911-.134l-1.033-.114c-.134 0-.661.062-.589.589.146.776.777 1.369 1.56 1.467h.259c3.1.258 3.172.909 3.172 6.716v19.963c0 5.828-.134 6.138-2.914 6.438l-1.2.124c-.216.074-.413.194-.578.351-.274.406-.274.937 0 1.343.268.31.486.465 1.633.455h.723c1.839-.062 3.183-.093 4.846-.093h4.846c4.133 0 7.791 0 10.447.093 1.219.072 1.8.145 2.066.176h.2c.447-.056.807-.394.889-.837.565-1.554 1.044-3.137 1.436-4.743l.063-.269c.578-2.149.537-2.356.237-2.687-.343-.249-.783-.323-1.188-.2m-255.723 8.571h.754c2.067-.072 3.482-.1 5.053-.1 1.777 0 3.307 0 5.662.124 1.033 0 1.374-.145 1.612-.424.198-.359.165-.8-.083-1.126-.206-.21-.474-.348-.765-.393l-1.085-.114c-2.718-.238-2.9-.672-2.9-6.654v-24.42c-.061-.436-.022-.881.114-1.3.114-.134.506-.145 1.137-.145h5.477c1.426 0 3.007.093 3.833.889.933.937 1.655 2.062 2.118 3.3.132.248.333.453.579.589.38.138.804.082 1.135-.15.238-.31.289-.63.083-1.436-.083-.258-.155-.517-.238-.785.01-.088-.021-.175-.083-.238-.083-.083-.072-.269-.093-.4-.568-2.067-1.033-4.35-1.312-5.941-.011-.075-.052-.142-.114-.186-.223-.103-.467-.156-.713-.155-.231-.019-.461.053-.641.2-.034.039-.058.084-.072.134-.248 1.426-1.529 1.5-3.782 1.5h-19.635c-2.253 0-3.534-.072-3.792-1.5-.01-.049-.031-.095-.062-.134-.18-.146-.41-.218-.641-.2-.249-.001-.496.052-.723.155-.055.048-.09.114-.1.186-.269 1.591-.754 3.865-1.312 5.941-.014.137-.048.272-.1.4-.041.134-.062.165-.083.238-.072.269-.155.527-.227.785-.207.806-.155 1.137.072 1.436.333.231.757.285 1.137.145.248-.133.45-.338.579-.589.463-1.241 1.189-2.367 2.129-3.3.827-.8 2.4-.909 3.823-.909h5.332c.651 0 1.033 0 1.178.145.147.435.193.898.134 1.354v24.344c0 5.838-.258 6.407-3.017 6.655l-1.426.124c-.293.039-.565.173-.775.382-.215.329-.25.745-.093 1.106.279.351.63.475 1.8.444h.134"></path></clipPath>
                        <clipPath id="path-logo3-top"><path d="m331.978 179.918c-.339-.276-.798-.354-1.209-.207-.243.135-.444.336-.579.579-1.333 2.687-2.625 4.133-3.4 4.588-1.147.61-2.759.806-6.613.806-4.66 0-5.631-.62-6.2-1.188-.775-.868-.93-2.707-.93-5.58v-7.378c0-1.219 0-1.219 1.467-1.219h3.048c1.336-.071 2.675.02 3.989.269.909.238 1.229.93 1.436 1.912l.351 1.447c.081.283.234.539.445.744.209.142.461.208.713.186h.124c.094-.012.185-.04.269-.083.278-.207.444-.589.444-1.653.007-.29-.01-.581-.051-.868-.051-1.033-.124-2.16-.124-3.276s.062-2.315.124-3.358v-.227c.093-1.695-.051-2.149-.4-2.428-.365-.166-.789-.134-1.126.083-.176.167-.304.377-.372.61l-.341 1.674c-.259 1.343-.6 1.56-1.1 1.726-1.442.287-2.913.395-4.381.32h-3.048c-1.457-.041-1.457-.041-1.457-1.292v-10.531c0-1.943 0-1.943 1.312-1.943h3.854c1.684-.074 3.371.033 5.032.32 2.449.641 2.966 1.963 3.679 4.309.101.222.245.422.423.589.347.191.769.191 1.116 0 .32-.269.362-.424.29-2.232-.08-1.565-.247-3.124-.5-4.671 0-.568-.414-1.188-.951-1.188h-.2c-.248 0-.816.1-2.066.176h-14.24c-1.653 0-3.1 0-4.888-.1-.412.015-.825-.018-1.229-.1-.155 0-.816.072-.723.723.118.978.883 1.752 1.86 1.881 2.252.4 2.335 1.364 2.335 6.624v19.405c0 5.838-.248 6.406-3.017 6.654l-1.147.114c-.297.037-.576.163-.8.362-.273.41-.273.944 0 1.354.32.361.558.517 2.325.424h.2c1.984-.062 3.368-.093 5-.093h4.742c3.978 0 8.019 0 12.028.124.495.002.989.04 1.478.114h.206c.455 0 .8-.486.93-.951.748-2.03 1.382-4.1 1.9-6.2.217-.961.145-1.137-.072-1.385m-220.34-25.222v-2.428c0-.579-.413-1.23-.961-1.23h-.186c-.248 0-.827.1-2.067.176h-13.949c-1.705 0-3.245 0-5.166-.114l-1.033-.114c-.124 0-.661.062-.579.579.093.914.705 1.693 1.571 2 2.573.362 2.645 1.033 2.645 6.675v19.596c0 5.941-.165 6.313-2.914 6.665l-.785.1c-.287.051-.551.191-.754.4-.215.329-.25.745-.093 1.106.2.269.548.424 1.478.444 1.881-.083 3.5-.124 5.559-.124 1.571 0 2.945 0 4.991.093h.806c1.033 0 1.385-.145 1.622-.424.029-.029.054-.063.072-.1.031-.119.052-.24.062-.362.006-.239-.07-.472-.217-.661-.215-.221-.5-.36-.806-.393l-1.2-.114c-2.769-.248-2.966-.682-2.966-6.654v-7.492c0-1.219 0-1.219 1.467-1.219h3.575c1.331-.064 2.666.022 3.978.258.82.31 1.399 1.051 1.5 1.922l.4 1.488c.082.259.228.494.424.682.329.218.748.249 1.106.083.341-.248.517-.744.413-2.428v-.1c0-1.033-.114-2.129-.114-3.224s.062-2.3.114-3.348v-.206c.093-1.695 0-2.149-.393-2.428-.364-.172-.791-.14-1.126.083-.223.216-.375.495-.434.8l-.341 1.436c-.31 1.426-.723 1.581-1.137 1.746-1.443.277-2.913.384-4.381.32h-3.5c-1.467 0-1.467 0-1.467-1.23v-11.049c0-1.953 0-1.953 1.312-1.953h3.2c1.688-.086 3.38.025 5.042.331 2.211.61 2.945 1.85 3.379 4.03.071.287.225.546.444.744.337.211.758.234 1.116.062.238-.207.32-.351.32-1.188s-.072-2.067-.093-3.214m183.993 34.324c-2.687-.692-6.448-3.864-8.266-6.675-1.547-2.603-2.927-5.302-4.133-8.08-.414-.87-.973-1.664-1.654-2.346-.5-.465-.9-.909-.9-.909s-.134-.176 0-.31c.472-.448.98-.856 1.519-1.219 3.047-1.896 4.905-5.225 4.918-8.814.188-3.317-1.571-6.441-4.505-8-2.614-1.5-5.983-1.7-8.928-1.7-3.968 0-7.233.1-10.012.31-.575.036-1.151.036-1.726 0-.32-.006-.583.249-.589.569v.02.052c.095.913.706 1.691 1.571 2l.6.083c1.891.238 2.066.827 2.066 6.2v19.467c0 5.931-.165 6.3-2.924 6.655l-.775.1c-.286.053-.549.193-.754.4-.215.329-.25.745-.093 1.106.2.268.548.434 1.488.444 2.067-.083 3.751-.124 5.538-.124s3.255 0 5.29.124c.868 0 1.178-.165 1.4-.424.195-.361.159-.802-.093-1.126-.2-.213-.459-.36-.744-.424l-.538-.083c-2.758-.393-2.924-.775-2.924-6.655v-6.768c0-.672 0-.868.827-.92h1.467c1.996.042 3.849 1.042 4.98 2.687 2.717 3.4 4.2 7.657 6.985 11.087 3.9 4.774 10.209 5.167 10.922 5.167s1.137-.269 1.137-.693c-.012-.634-.475-1.168-1.1-1.271m-16.429-21.048c-1.554 1.034-3.409 1.518-5.27 1.374-1.143.083-2.292.021-3.42-.186-.093-.542-.124-1.094-.093-1.643v-12.236c0-1.354 0-1.5 3.152-1.5 7.564 0 8.153 5.993 8.153 7.822 0 3.854-1.281 5.414-2.532 6.438m-75.636-18.382c-.151-.007-.303.017-.444.072-.058.024-.106.068-.134.124-.713 1.292-1.033 1.405-3.865 1.405h-21.762c-2.242 0-3.523-.072-3.782-1.488-.009-.054-.034-.105-.072-.145-.175-.147-.403-.215-.63-.186-.25-.013-.5.041-.723.155-.061.04-.103.104-.114.176-.269 1.591-.754 3.865-1.312 5.952-.021.133-.052.264-.093.393-.032.081-.06.164-.083.248-.072.259-.155.517-.238.775-.207.806-.155 1.137.083 1.436.331.234.755.292 1.137.155.244-.143.445-.351.579-.6.465-1.24 1.191-2.365 2.129-3.3.827-.8 2.4-.9 3.823-.9h5.352c.651 0 1.033 0 1.178.155.144.436.187.899.124 1.354v24.334c0 5.848-.248 6.406-3.017 6.655l-1.426.134c-.29.033-.56.164-.765.372-.225.326-.261.747-.093 1.106.269.351.63.486 1.8.444h.878c2.066-.072 3.492-.093 5.063-.093 1.777 0 3.307 0 5.662.113 1.033 0 1.374-.145 1.612-.424.198-.359.165-.8-.083-1.126-.206-.21-.474-.348-.765-.393l-1.085-.1c-2.718-.248-2.9-.682-2.9-6.655v-24.4c-.061-.436-.022-.881.114-1.3.114-.134.506-.145 1.136-.145h3.741c2.79 0 4.8 0 5.941.888.486.372.889 1.529 1.137 3.214.031.268.142.52.32.723.271.305.696.423 1.085.3.4-.207.506-.434.548-1.55.033-2.467.31-4.925.827-7.337.02-.06.02-.126 0-.186-.201-.266-.527-.407-.858-.372m45.253 1.577h-.207c-.982 0-2 .062-3.306.062-1.684 0-3.338 0-5-.124l-1.034-.1c-.134 0-.661.062-.589.589.131.79.774 1.396 1.571 1.478.84-.002 1.635.378 2.16 1.033.62 1.157.961 5.166.961 11.366v6.386c0 6.6-1.757 14.466-10.147 14.466-6.334 0-9.3-4.619-9.3-14.528v-12.031c0-5.962.217-6.468 2.914-6.716l.672-.062c.293-.042.563-.183.765-.4.252-.324.288-.765.093-1.126-.238-.269-.568-.362-1.54-.351h-.992c-1.5 0-2.821.083-4.34.083-1.87 0-3.513 0-5.528-.134l-1.033-.114c-.135 0-.661.062-.589.589.137.782.781 1.375 1.571 1.447h.186c2.7.238 2.914.744 2.914 6.716v13.082c0 6.654 1.291 10.746 4.2 13.288 2.366 2.128 5.4 3.1 9.568 3.1s8.049-1.591 10.271-4.133c2.521-2.852 3.751-7.233 3.751-13.433v-6.262c0-3.1 0-9.424.723-11.2.398-.763 1.208-1.221 2.067-1.168l.672-.062c.304-.018.59-.151.8-.372.251-.324.288-.765.093-1.126-.3-.341-.744-.413-2.438-.32m-90.292.077h-.207c-1.033 0-2 .062-3.306.062-1.695 0-3.338 0-5-.124l-1.033-.1c-.124 0-.661.062-.579.589.123.79.764 1.398 1.56 1.478.84-.002 1.635.378 2.16 1.033.62 1.157.961 5.166.961 11.366v6.386c0 6.6-1.757 14.466-10.147 14.466-6.334 0-9.3-4.619-9.3-14.528v-12.031c0-5.962.217-6.468 2.914-6.716l.672-.062c.293-.042.563-.183.765-.4.252-.324.288-.765.093-1.126-.238-.269-.568-.362-1.54-.351h-.992c-1.5 0-2.821.083-4.34.083-1.87 0-3.513 0-5.528-.134l-1.033-.114c-.134 0-.661.062-.589.589.137.782.781 1.375 1.571 1.447h.186c2.7.238 2.914.744 2.914 6.716v13.082c0 6.654 1.3 10.746 4.2 13.288 2.366 2.128 5.4 3.1 9.568 3.1s8.049-1.591 10.271-4.133c2.521-2.852 3.751-7.233 3.751-13.433v-6.262c0-3.1 0-9.424.713-11.2.402-.76 1.209-1.216 2.067-1.168l.672-.062c.304-.02.589-.152.8-.372.252-.324.288-.765.093-1.126-.3-.341-.744-.413-2.438-.32"></path></clipPath>
                      </defs>
                    </svg>