<svg class="u-show-pc" enable-background="new 0 0 116 385" viewBox="0 0 116 385" xmlns="http://www.w3.org/2000/svg">
                        <path class="text-stroke text-stroke-pc" data-clip-path="path-activity-pc" d="m115.794 43.978c0-.63-.63-1.134-1.638-2.016-1.386-.882-3.78-2.268-5.04-3.024-.691-.347-1.407-.642-2.142-.882-1.116-.304-2.211-.683-3.276-1.134-12.852-5.292-50.9-19.656-57.33-22.554-8.19-3.654-8.568-5.292-10.71-11.592-.63-1.89-1.764-2.776-2.52-2.776s-1.26.634-1.26 2.9c0 1.89.63 8.442.63 13.1s-.378 7.812-.378 9.954c0 1.646.378 3.534 1.638 3.534.882 0 1.638-1.26 2.268-3.4 1.764-5.67 3.906-6.174 5.418-6.174 3.15 0 13.86 3.276 22.05 6.552.378.252 1.008.882 1.008 1.386.378 2.646.5 13.734.5 20.664 0 3.654-.756 4.158-1.26 4.284-8.064 2.9-16.38 6.048-21.546 7.056-2.646.5-5.166 1.008-6.426-5.04-.372-2.27-1.382-3.026-2.012-3.026s-1.512.756-1.512 3.91.252 4.91.252 8.942c0 5.544-.63 11.718-.63 15.876 0 3.15.756 4.032 1.638 4.032s1.512-1.008 2.142-3.024c1.386-5.67 2.394-7.686 12.726-11.844 5.166-2.142 30.114-11.592 48.51-18.144 6.552-2.394 12.222-4.538 15.624-5.544 2.772-1.008 3.276-1.512 3.276-2.016zm-45.108 5.67c-.378-4.158-.252-14.616-.378-19.656-.024-.351.242-.655.593-.678.099-.007.198.01.289.048 3.906 1.008 21.546 7.56 27.594 9.828.882.378.756.63 0 1.008-1.764 1.134-20.664 7.686-27.09 9.828-.379.061-.762-.083-1.008-.378zm12.348 66.276c0-3.4-1.764-11.592-5.292-16.506-4.914-7.308-12.6-12.218-21.798-12.218-5.161.057-10.228 1.397-14.742 3.9-6.26 4.146-10.041 11.141-10.08 18.65.034 6.857 2.854 13.406 7.812 18.144.949 1.014 2.266 1.604 3.654 1.638.63 0 1.008-1.008 0-2.394-2.456-3.222-3.784-7.163-3.78-11.214 0-6.552 3.15-12.726 8.442-15.876 3.809-2.253 8.176-3.389 12.6-3.276 5.317-.082 10.477 1.802 14.49 5.292 2.52 2.016 4.284 5.8 4.284 7.812 0 4.284-1.89 6.426-4.914 10.584-1.386 2.016-2.394 4.158-2.394 4.914 0 .5 3.024 4.158 5.04 4.158 1.456-.121 2.81-.798 3.78-1.89 1.89-2.394 2.898-7.942 2.898-11.718zm-1.386 37.3c.078-.521.487-.93 1.008-1.008h5.922c.678-.381 1.176-1.016 1.386-1.764 0-.5-1.008-1.386-2.772-2.9-2.142-1.764-5.166-5.67-8.694-10.08-.352-.416-.846-.685-1.386-.756-.378 0-1.008.756-1.386 1.764-.756 2.52-1.638 4.788-2.52 4.788-4.41 0-23.31-.5-27.972-.5-3.528 0-6.174.252-8.316 1.638-2.772 1.512-5.922 5.922-5.922 11.088-.028 5.052 1.969 9.906 5.544 13.476.815.934 1.928 1.558 3.15 1.764 1.134 0 1.386-.63 1.386-.756 0-.5-.126-.756-.756-1.89-1.107-1.881-1.754-3.996-1.89-6.174 0-2.646.252-5.292 2.394-7.686 1.386-1.386 3.024-2.142 6.174-2.142 6.048 0 24.57.126 27.09.252.503.155.855.608.882 1.134v13.734c0 .882.252 3.276 1.386 3.276 1.602-.038 3.2-.164 4.788-.378.378 0 1.008-1.26 1.008-1.386 0-.504-.504-12.726-.504-15.498zm-49.14 35.776c0 2.646-.378 8.946-.378 9.828 0 1.386.5 2.9 1.26 2.9.882 0 1.512-.756 2.142-2.772 1.008-3.15 1.26-5.922 5.292-6.048 4.41-.126 9.7-.252 16.758-.252 7.182 0 23.562.756 24.948.756.126 0 1.386-.63 1.386-1.134-.5-1.89-3.276-7.812-4.284-12.474-.252-1.386-1.26-2.52-2.142-2.52-.5 0-.882.252-1.386 1.008-2.646 3.654-3.654 5.04-4.536 5.166-1.512.252-15.876.126-19.656.126-3.654 0-11.214-.126-12.978-.5-1.26-.252-2.772-2.142-3.528-5.04-.63-2.142-1.26-3.024-2.016-3.024-.882-.002-1.382 1.258-1.382 3.274 0 2.142.5 6.552.5 10.706zm76.482-.252c.058-1.781-.523-3.524-1.638-4.914-1.343-.913-2.913-1.437-4.536-1.512-1.742-.007-3.417.672-4.662 1.89-.897 1.162-1.424 2.567-1.512 4.032 0 2.52 2.772 6.048 6.174 6.048 2.268.008 6.174-2.138 6.174-5.54zm-28.1 13.734c-.756 0-1.26.5-1.89 2.394-.513 2.302-2.042 4.248-4.158 5.292-6.048 3.4-21.546 10.08-29.61 13.1-7.308 2.9-8.694 3.15-12.852 4.536-1.386.378-2.268 1.134-2.268 1.638 0 1.008 1.26 2.394 3.276 3.024 6.678 2.142 7.938 2.142 16.884 5.67 8.82 3.78 21.042 8.568 23.814 10.332 2.268 1.89 3.78 3.276 4.914 6.3.756 1.89 1.134 2.646 1.89 2.646s1.386-1.26 1.386-2.52c0-2.394-.63-6.3-.63-8.568 0-3.15.378-4.284.378-6.8 0-1.638-.63-2.52-1.386-2.52s-1.26 1.008-1.638 2.016c-1.386 3.78-2.142 4.914-5.418 3.906-3.906-1.134-21.42-7.938-25.326-9.576-.5-.252-.882-.756-.5-1.008.756-.882 15.75-7.56 26.586-11.214 1.512-.5 3.276-.882 4.284 2.772.5 1.638 1.008 2.772 1.89 2.772s1.386-1.008 1.386-2.9c0-1.386-.252-4.536-.252-7.812 0-1.386.63-8.19.63-10.458-.002-1.128-.506-3.018-1.388-3.018zm-48.382 70.818c0 2.646-.378 8.946-.378 9.828 0 1.386.5 2.9 1.26 2.9.882 0 1.512-.756 2.142-2.772 1.008-3.15 1.26-5.922 5.292-6.048 4.41-.126 9.7-.252 16.758-.252 7.182 0 23.562.756 24.948.756.126 0 1.386-.63 1.386-1.134-.5-1.89-3.276-7.812-4.284-12.474-.252-1.386-1.26-2.52-2.142-2.52-.5 0-.882.252-1.386 1.008-2.646 3.654-3.654 5.04-4.536 5.166-1.512.252-15.876.126-19.656.126-3.654 0-11.214-.126-12.978-.5-1.26-.252-2.772-2.142-3.528-5.04-.63-2.142-1.26-3.024-2.016-3.024-.882-.008-1.382 1.252-1.382 3.268 0 2.142.5 6.552.5 10.712zm76.482-.252c.058-1.781-.523-3.524-1.638-4.914-1.343-.913-2.913-1.437-4.536-1.512-1.742-.007-3.417.672-4.662 1.89-.897 1.162-1.424 2.567-1.512 4.032 0 2.52 2.772 6.048 6.174 6.048 2.268-.002 6.174-2.144 6.174-5.546zm-27.342 35.404c.078-.521.487-.93 1.008-1.008h5.922c.678-.381 1.176-1.016 1.386-1.764 0-.5-1.008-1.386-2.772-2.9-2.142-1.764-5.166-5.67-8.694-10.08-.352-.416-.846-.685-1.386-.756-.378 0-1.008.756-1.386 1.764-.756 2.52-1.638 4.788-2.52 4.788-4.41 0-23.31-.5-27.972-.5-3.528 0-6.174.252-8.316 1.638-2.772 1.512-5.922 5.922-5.922 11.088-.028 5.053 1.969 9.907 5.544 13.478.815.934 1.928 1.558 3.15 1.764 1.134 0 1.386-.63 1.386-.756 0-.5-.126-.756-.756-1.89-1.107-1.881-1.754-3.996-1.89-6.174 0-2.646.252-5.292 2.394-7.686 1.386-1.386 3.024-2.142 6.174-2.142 6.048 0 24.57.126 27.09.252.503.155.855.608.882 1.134v13.734c0 .882.252 3.276 1.386 3.276 1.602-.038 3.2-.164 4.788-.378.378 0 1.008-1.26 1.008-1.386 0-.502-.504-12.724-.504-15.496zm-1.008 21.548c-.756 0-1.26.756-1.89 2.52-1.386 4.158-2.646 4.788-4.914 5.922-7.938 3.906-26.712 11.718-34.146 14.364-1.386.5-4.284 1.512-5.166 1.89-1.134.5-2.772 0-4.536-.378-3.15-.882-14.238-4.914-16.254-6.048-1.26-.5-2.142-.756-2.142-1.89 0-1.26.126-3.906.126-4.536 0-3.528-3.4-5.544-5.544-5.544-2.646 0-6.174 1.386-6.174 5.67 0 3.654 1.89 6.048 3.528 6.552 10.71 4.032 23.688 8.694 35.154 13.1 7.308 2.9 24.192 9.7 33.642 13.86 4.158 1.89 5.67 3.528 6.552 6.174.5 1.512 1.008 2.772 2.142 2.772.882 0 1.134-.882 1.134-2.52 0-3.276-.5-6.174-.5-7.938 0-1.638.126-5.04.126-7.434 0-1.512-.252-3.15-1.386-3.15-.5 0-1.386 1.134-1.764 2.646-1.134 4.914-2.646 5.922-6.174 4.788-2.016-.63-22.428-8.442-25.83-9.954-.756-.378-.756-.882-.5-1.008 1.504-1.006 21.284-9.07 27.334-10.958 3.276-1.26 3.906-.882 4.914 2.646.5 2.016 1.26 2.9 2.142 2.9 1.008 0 1.386-1.764 1.386-2.772 0-1.512-.252-5.292-.252-8.82 0-3.654.5-6.678.5-9.828.004-2.65-1.004-3.026-1.508-3.026z" style="clip-path: url(&quot;#path-activity-pc&quot;);"></path>
                        <defs>
                          <clipPath id="path-activity-pc"><path d="m115.794 43.978c0-.63-.63-1.134-1.638-2.016-1.386-.882-3.78-2.268-5.04-3.024-.691-.347-1.407-.642-2.142-.882-1.116-.304-2.211-.683-3.276-1.134-12.852-5.292-50.9-19.656-57.33-22.554-8.19-3.654-8.568-5.292-10.71-11.592-.63-1.89-1.764-2.776-2.52-2.776s-1.26.634-1.26 2.9c0 1.89.63 8.442.63 13.1s-.378 7.812-.378 9.954c0 1.646.378 3.534 1.638 3.534.882 0 1.638-1.26 2.268-3.4 1.764-5.67 3.906-6.174 5.418-6.174 3.15 0 13.86 3.276 22.05 6.552.378.252 1.008.882 1.008 1.386.378 2.646.5 13.734.5 20.664 0 3.654-.756 4.158-1.26 4.284-8.064 2.9-16.38 6.048-21.546 7.056-2.646.5-5.166 1.008-6.426-5.04-.372-2.27-1.382-3.026-2.012-3.026s-1.512.756-1.512 3.91.252 4.91.252 8.942c0 5.544-.63 11.718-.63 15.876 0 3.15.756 4.032 1.638 4.032s1.512-1.008 2.142-3.024c1.386-5.67 2.394-7.686 12.726-11.844 5.166-2.142 30.114-11.592 48.51-18.144 6.552-2.394 12.222-4.538 15.624-5.544 2.772-1.008 3.276-1.512 3.276-2.016zm-45.108 5.67c-.378-4.158-.252-14.616-.378-19.656-.024-.351.242-.655.593-.678.099-.007.198.01.289.048 3.906 1.008 21.546 7.56 27.594 9.828.882.378.756.63 0 1.008-1.764 1.134-20.664 7.686-27.09 9.828-.379.061-.762-.083-1.008-.378zm12.348 66.276c0-3.4-1.764-11.592-5.292-16.506-4.914-7.308-12.6-12.218-21.798-12.218-5.161.057-10.228 1.397-14.742 3.9-6.26 4.146-10.041 11.141-10.08 18.65.034 6.857 2.854 13.406 7.812 18.144.949 1.014 2.266 1.604 3.654 1.638.63 0 1.008-1.008 0-2.394-2.456-3.222-3.784-7.163-3.78-11.214 0-6.552 3.15-12.726 8.442-15.876 3.809-2.253 8.176-3.389 12.6-3.276 5.317-.082 10.477 1.802 14.49 5.292 2.52 2.016 4.284 5.8 4.284 7.812 0 4.284-1.89 6.426-4.914 10.584-1.386 2.016-2.394 4.158-2.394 4.914 0 .5 3.024 4.158 5.04 4.158 1.456-.121 2.81-.798 3.78-1.89 1.89-2.394 2.898-7.942 2.898-11.718zm-1.386 37.3c.078-.521.487-.93 1.008-1.008h5.922c.678-.381 1.176-1.016 1.386-1.764 0-.5-1.008-1.386-2.772-2.9-2.142-1.764-5.166-5.67-8.694-10.08-.352-.416-.846-.685-1.386-.756-.378 0-1.008.756-1.386 1.764-.756 2.52-1.638 4.788-2.52 4.788-4.41 0-23.31-.5-27.972-.5-3.528 0-6.174.252-8.316 1.638-2.772 1.512-5.922 5.922-5.922 11.088-.028 5.052 1.969 9.906 5.544 13.476.815.934 1.928 1.558 3.15 1.764 1.134 0 1.386-.63 1.386-.756 0-.5-.126-.756-.756-1.89-1.107-1.881-1.754-3.996-1.89-6.174 0-2.646.252-5.292 2.394-7.686 1.386-1.386 3.024-2.142 6.174-2.142 6.048 0 24.57.126 27.09.252.503.155.855.608.882 1.134v13.734c0 .882.252 3.276 1.386 3.276 1.602-.038 3.2-.164 4.788-.378.378 0 1.008-1.26 1.008-1.386 0-.504-.504-12.726-.504-15.498zm-49.14 35.776c0 2.646-.378 8.946-.378 9.828 0 1.386.5 2.9 1.26 2.9.882 0 1.512-.756 2.142-2.772 1.008-3.15 1.26-5.922 5.292-6.048 4.41-.126 9.7-.252 16.758-.252 7.182 0 23.562.756 24.948.756.126 0 1.386-.63 1.386-1.134-.5-1.89-3.276-7.812-4.284-12.474-.252-1.386-1.26-2.52-2.142-2.52-.5 0-.882.252-1.386 1.008-2.646 3.654-3.654 5.04-4.536 5.166-1.512.252-15.876.126-19.656.126-3.654 0-11.214-.126-12.978-.5-1.26-.252-2.772-2.142-3.528-5.04-.63-2.142-1.26-3.024-2.016-3.024-.882-.002-1.382 1.258-1.382 3.274 0 2.142.5 6.552.5 10.706zm76.482-.252c.058-1.781-.523-3.524-1.638-4.914-1.343-.913-2.913-1.437-4.536-1.512-1.742-.007-3.417.672-4.662 1.89-.897 1.162-1.424 2.567-1.512 4.032 0 2.52 2.772 6.048 6.174 6.048 2.268.008 6.174-2.138 6.174-5.54zm-28.1 13.734c-.756 0-1.26.5-1.89 2.394-.513 2.302-2.042 4.248-4.158 5.292-6.048 3.4-21.546 10.08-29.61 13.1-7.308 2.9-8.694 3.15-12.852 4.536-1.386.378-2.268 1.134-2.268 1.638 0 1.008 1.26 2.394 3.276 3.024 6.678 2.142 7.938 2.142 16.884 5.67 8.82 3.78 21.042 8.568 23.814 10.332 2.268 1.89 3.78 3.276 4.914 6.3.756 1.89 1.134 2.646 1.89 2.646s1.386-1.26 1.386-2.52c0-2.394-.63-6.3-.63-8.568 0-3.15.378-4.284.378-6.8 0-1.638-.63-2.52-1.386-2.52s-1.26 1.008-1.638 2.016c-1.386 3.78-2.142 4.914-5.418 3.906-3.906-1.134-21.42-7.938-25.326-9.576-.5-.252-.882-.756-.5-1.008.756-.882 15.75-7.56 26.586-11.214 1.512-.5 3.276-.882 4.284 2.772.5 1.638 1.008 2.772 1.89 2.772s1.386-1.008 1.386-2.9c0-1.386-.252-4.536-.252-7.812 0-1.386.63-8.19.63-10.458-.002-1.128-.506-3.018-1.388-3.018zm-48.382 70.818c0 2.646-.378 8.946-.378 9.828 0 1.386.5 2.9 1.26 2.9.882 0 1.512-.756 2.142-2.772 1.008-3.15 1.26-5.922 5.292-6.048 4.41-.126 9.7-.252 16.758-.252 7.182 0 23.562.756 24.948.756.126 0 1.386-.63 1.386-1.134-.5-1.89-3.276-7.812-4.284-12.474-.252-1.386-1.26-2.52-2.142-2.52-.5 0-.882.252-1.386 1.008-2.646 3.654-3.654 5.04-4.536 5.166-1.512.252-15.876.126-19.656.126-3.654 0-11.214-.126-12.978-.5-1.26-.252-2.772-2.142-3.528-5.04-.63-2.142-1.26-3.024-2.016-3.024-.882-.008-1.382 1.252-1.382 3.268 0 2.142.5 6.552.5 10.712zm76.482-.252c.058-1.781-.523-3.524-1.638-4.914-1.343-.913-2.913-1.437-4.536-1.512-1.742-.007-3.417.672-4.662 1.89-.897 1.162-1.424 2.567-1.512 4.032 0 2.52 2.772 6.048 6.174 6.048 2.268-.002 6.174-2.144 6.174-5.546zm-27.342 35.404c.078-.521.487-.93 1.008-1.008h5.922c.678-.381 1.176-1.016 1.386-1.764 0-.5-1.008-1.386-2.772-2.9-2.142-1.764-5.166-5.67-8.694-10.08-.352-.416-.846-.685-1.386-.756-.378 0-1.008.756-1.386 1.764-.756 2.52-1.638 4.788-2.52 4.788-4.41 0-23.31-.5-27.972-.5-3.528 0-6.174.252-8.316 1.638-2.772 1.512-5.922 5.922-5.922 11.088-.028 5.053 1.969 9.907 5.544 13.478.815.934 1.928 1.558 3.15 1.764 1.134 0 1.386-.63 1.386-.756 0-.5-.126-.756-.756-1.89-1.107-1.881-1.754-3.996-1.89-6.174 0-2.646.252-5.292 2.394-7.686 1.386-1.386 3.024-2.142 6.174-2.142 6.048 0 24.57.126 27.09.252.503.155.855.608.882 1.134v13.734c0 .882.252 3.276 1.386 3.276 1.602-.038 3.2-.164 4.788-.378.378 0 1.008-1.26 1.008-1.386 0-.502-.504-12.724-.504-15.496zm-1.008 21.548c-.756 0-1.26.756-1.89 2.52-1.386 4.158-2.646 4.788-4.914 5.922-7.938 3.906-26.712 11.718-34.146 14.364-1.386.5-4.284 1.512-5.166 1.89-1.134.5-2.772 0-4.536-.378-3.15-.882-14.238-4.914-16.254-6.048-1.26-.5-2.142-.756-2.142-1.89 0-1.26.126-3.906.126-4.536 0-3.528-3.4-5.544-5.544-5.544-2.646 0-6.174 1.386-6.174 5.67 0 3.654 1.89 6.048 3.528 6.552 10.71 4.032 23.688 8.694 35.154 13.1 7.308 2.9 24.192 9.7 33.642 13.86 4.158 1.89 5.67 3.528 6.552 6.174.5 1.512 1.008 2.772 2.142 2.772.882 0 1.134-.882 1.134-2.52 0-3.276-.5-6.174-.5-7.938 0-1.638.126-5.04.126-7.434 0-1.512-.252-3.15-1.386-3.15-.5 0-1.386 1.134-1.764 2.646-1.134 4.914-2.646 5.922-6.174 4.788-2.016-.63-22.428-8.442-25.83-9.954-.756-.378-.756-.882-.5-1.008 1.504-1.006 21.284-9.07 27.334-10.958 3.276-1.26 3.906-.882 4.914 2.646.5 2.016 1.26 2.9 2.142 2.9 1.008 0 1.386-1.764 1.386-2.772 0-1.512-.252-5.292-.252-8.82 0-3.654.5-6.678.5-9.828.004-2.65-1.004-3.026-1.508-3.026z"></path></clipPath>
                        </defs>
                      </svg>