<?xml version="1.0" encoding="utf-8"?>
<!-- Generator: Adobe Illustrator 16.0.0, SVG Export Plug-In . SVG Version: 6.00 Build 0)  -->
<!DOCTYPE svg PUBLIC "-//W3C//DTD SVG 1.1//EN" "http://www.w3.org/Graphics/SVG/1.1/DTD/svg11.dtd">
<svg version="1.1" id="レイヤー_1" xmlns="http://www.w3.org/2000/svg" xmlns:xlink="http://www.w3.org/1999/xlink" x="0px"
	 y="0px" width="100px" height="100px" viewBox="0 0 100 100" enable-background="new 0 0 100 100" xml:space="preserve">
<path fill="#5A4620" d="M17.277,68.747c-0.02,0.043-0.045,0.079-0.076,0.112c-0.535,0.759-1.079,1.513-1.632,2.285l-0.004-0.002
	l-5.576-3.542c0.321-0.434,0.632-0.855,0.945-1.272c0.224-0.297,0.452-0.587,0.673-0.885c0.147-0.229,0.449-0.301,0.682-0.158
	l4.778,2.858C17.292,68.253,17.386,68.522,17.277,68.747z M49.322,89.579c0.054,0.094,0.088,0.277,0.037,0.336
	c-0.623,0.719-1.265,1.42-1.929,2.162c-0.424-0.635-0.813-1.257-1.239-1.854c-0.989-1.383-1.978-2.774-2.999-4.135
	c-0.802-1.069-1.642-2.111-2.488-3.145c-0.588-0.716-1.208-1.41-1.827-2.098c-0.813-0.894-1.635-1.783-2.465-2.664
	c-0.747-0.79-1.495-1.579-2.271-2.338c-0.873-0.854-1.772-1.677-2.681-2.496c-0.743-0.667-1.513-1.308-2.271-1.953
	c-0.173-0.15-0.317-0.115-0.375,0.105c-0.365,1.406-0.731,2.816-1.107,4.222c-0.196,0.721-0.402,1.444-0.653,2.147
	c-0.92,2.564-1.828,5.122-2.803,7.665c-0.465,1.222-1.039,2.402-1.591,3.591c-0.562,1.212-1.161,2.404-1.732,3.609
	c-0.112,0.236-0.206,0.289-0.417,0.101c-0.667-0.595-1.34-1.181-2.02-1.769c-0.129-0.097-0.171-0.273-0.099-0.42
	c0.766-2.629,1.525-5.26,2.277-7.893c0.618-2.16,1.242-4.316,1.84-6.477c0.541-1.954,1.053-3.907,1.583-5.861
	c0.618-2.3,1.245-4.6,1.847-6.903c0.583-2.236,1.138-4.479,1.706-6.719c0.115-0.451,0.208-0.907,0.336-1.351
	c0.049-0.105,0.145-0.179,0.258-0.198c0.932-0.035,1.865-0.06,2.802-0.071c2.472-0.026,4.944-0.043,7.419-0.07
	c1.558-0.016,3.115-0.037,4.672-0.066c0.426-0.01,0.854-0.057,1.276-0.086c0.686,2.728,1.367,5.414,2.036,8.104
	c0.487,1.975,0.962,3.955,1.437,5.935c0.022,0.083,0.007,0.173-0.041,0.246c-0.909,0.976-1.827,1.935-2.767,2.929l-0.006-0.004
	c-0.445-0.551-1.057-0.942-1.743-1.115c-0.801,1.299-1.601,2.589-2.39,3.888c-0.05,0.1-0.053,0.219-0.007,0.322
	c0.798,1.383,1.603,2.76,2.416,4.132c0.747,1.267,1.495,2.526,2.242,3.785c0.632,1.076,1.246,2.16,1.876,3.238
	C48.08,87.468,48.708,88.521,49.322,89.579z M41.704,64.766v-7.489H30.551v6.949c0,0.456,0.082,0.54,0.545,0.54H41.704z
	 M83.081,70.229c-1.232-0.244-2.486-0.381-3.735-0.533c-1.086-0.133-2.168-0.243-3.266-0.322c-0.804-0.057-1.62-0.052-2.437-0.068
	c-0.312-0.012-0.626,0.017-0.935-0.012c-0.136-0.024-0.253-0.105-0.324-0.223c-0.166-0.342-0.29-0.701-0.433-1.053
	c-0.217-0.521-0.433-1.047-0.669-1.614h-0.012l0.01-0.005c0,0.001,0.001,0.002,0.002,0.005l1.113-0.079
	c0.31-0.021,0.619-0.038,0.926-0.071c0.745-0.078,1.494-0.169,2.242-0.253c0.616-0.066,1.225-0.116,1.834-0.202
	c0.949-0.137,1.899-0.292,2.846-0.446c1.166-0.193,2.338-0.365,3.496-0.597c1.371-0.272,2.734-0.593,4.1-0.901
	c0.081-0.02,0.144-0.122,0.215-0.187c-0.06-0.062-0.109-0.152-0.184-0.185c-1.03-0.424-2.077-0.814-3.096-1.271
	c-0.754-0.373-1.594-0.542-2.437-0.489c-0.253,0.021-0.507,0.055-0.762,0.062c-0.795,0.028-1.587,0.031-2.38,0.071
	c-0.926,0.049-1.851,0.109-2.771,0.194c-0.971,0.09-1.939,0.189-2.908,0.327c-1.254,0.174-2.511,0.348-3.753,0.591
	c-1.382,0.276-2.748,0.635-4.118,0.967c-0.094,0.028-0.167,0.097-0.205,0.188c-0.041,0.175-0.064,0.355-0.071,0.535
	c-0.089,1.048-0.159,2.087-0.262,3.123c-0.089,0.901-0.188,1.801-0.333,2.688c-0.146,0.885-0.308,1.771-0.51,2.644
	c-0.381,1.662-0.771,3.326-1.219,4.974c-0.313,1.157-0.73,2.29-1.097,3.434c-0.194,0.362-0.06,0.811,0.298,1.009
	c0.143,0.107,0.293,0.207,0.439,0.31c0.357,0.248,0.722,0.497,1.104,0.758c0.474-0.666,0.916-1.301,1.368-1.926
	c1.39-1.93,2.779-3.863,4.167-5.793c0.136-0.24,0.381-0.398,0.654-0.42c0.407-0.012,0.812-0.043,1.219-0.062
	c0.571-0.025,1.138-0.04,1.703-0.066c0.396-0.017,0.79-0.043,1.186-0.066c0.966-0.062,1.935-0.124,2.9-0.193
	c0.177-0.015,0.243,0.069,0.288,0.223c0.318,1.08,0.645,2.158,0.966,3.238c0.442,1.501,0.886,3.004,1.331,4.51
	c0.709,0,1.398-0.021,2.089,0.01h0.038c0.245,0.025,0.461-0.152,0.487-0.399c0.336-1.188,0.684-2.365,1.028-3.552
	c0.326-1.131,0.649-2.264,0.976-3.399c0.103-0.355,0.24-0.651,0.659-0.749c0.303-0.092,0.598-0.203,0.885-0.334l3.646-1.427
	c0.484-0.19,0.971-0.385,1.539-0.61c-0.176-0.153-0.275-0.306-0.412-0.351c-0.987-0.334-1.97-0.681-2.975-0.945
	C86.061,70.892,84.575,70.521,83.081,70.229z M19.552,57.453l-0.003-0.005c-0.808-0.525-1.549-1.01-2.294-1.491
	c-0.958-0.62-1.912-1.241-2.874-1.851l-0.011-0.008c0,0,0,0-0.001,0c-0.218-0.172-0.534-0.137-0.707,0.084
	c-0.32,0.36-0.659,0.703-0.986,1.059c-0.272,0.297-0.538,0.604-0.821,0.921l5.445,3.639L19.552,57.453z M13.961,80.14l-2.019,3.332
	c-1.155,1.906-2.307,3.812-3.453,5.723C8.438,89.29,8.424,89.4,8.448,89.505c0.118,0.471,0.232,0.943,0.392,1.398
	c0.331,0.943,0.689,1.878,1.054,2.855c0.164-0.117,0.263-0.176,0.352-0.252c0.522-0.434,1.052-0.859,1.561-1.311
	c0.411-0.305,0.743-0.703,0.968-1.162c0.348-0.86,0.741-1.702,1.127-2.547c0.901-1.962,1.802-3.921,2.702-5.879
	c0.174-0.38,0.342-0.764,0.51-1.139c-0.824-0.474-1.62-0.93-2.415-1.391C14.448,79.934,14.069,79.96,13.961,80.14z M52.984,27.383
	c-0.564,1.354-1.119,2.711-1.683,4.064c-0.618,1.49-1.253,2.977-1.862,4.472c-0.091,0.228-0.253,0.447-0.148,0.743
	c0.151,0.435,0.252,0.892,0.395,1.333c0.187,0.577,0.393,1.145,0.619,1.798c1.597-0.925,3.124-1.823,4.669-2.695
	c0.255-0.147,0.464-0.452,0.813-0.366c0.611,3.64,1.216,7.238,1.818,10.795c0.792,0,1.572,0.005,2.354-0.01
	c0.066-0.001,0.171-0.123,0.188-0.202c0.045-0.228,0.05-0.467,0.076-0.697c0.066-0.571,0.133-1.141,0.207-1.71
	c0.1-0.757,0.215-1.521,0.31-2.27c0.093-0.749,0.167-1.499,0.267-2.248c0.116-0.893,0.26-1.783,0.376-2.675
	c0.119-0.892,0.219-1.784,0.333-2.715c0.219,0.04,0.438,0.066,0.659,0.081c1.28,0.011,2.562,0.011,3.846,0
	c0.121-0.004,0.237-0.061,0.316-0.155c0.426-0.668,0.835-1.346,1.237-2.028c0.033-0.088,0.023-0.187-0.029-0.266
	c-0.186-0.233-0.393-0.452-0.594-0.67c-0.693-0.733-1.379-1.465-2.073-2.199c-0.609-0.639-1.232-1.259-1.827-1.91
	c-0.258-0.251-0.462-0.549-0.609-0.877c-0.359-1.081-0.479-2.227-0.35-3.359c0.021-0.165,0.004-0.387,0.264-0.444
	c0.533-0.121,1.063-0.26,1.595-0.389l3.755-0.922l0.014,0.016c0-0.802,0.008-1.556-0.009-2.312c-0.021-0.113-0.096-0.208-0.2-0.255
	c-0.59-0.191-1.188-0.355-1.782-0.533c-1.149-0.346-2.296-0.686-3.443-1.037c-0.098-0.029-0.235-0.115-0.245-0.189
	c-0.103-0.768-0.179-1.541-0.269-2.311c-0.081-0.677-0.157-1.349-0.257-2.021c-0.058-0.389-0.008-0.54,0.345-0.708
	c1.368-0.643,2.675-1.412,3.899-2.298c0.365-0.266,0.731-0.538,1.096-0.814c-0.084-0.087-0.119-0.148-0.172-0.179
	c-0.936-0.502-1.858-1.018-2.803-1.492c-0.295-0.183-0.639-0.275-0.985-0.266c-1.271,0.218-2.522,0.517-3.776,0.786
	c-1.164,0.25-2.327,0.5-3.491,0.744c-1.468,0.305-2.932,0.607-4.393,0.915c-0.167,0.027-0.3,0.152-0.338,0.316
	c-0.157,0.491-0.374,0.962-0.548,1.45c-0.126,0.359-0.221,0.728-0.344,1.118l5.301,0.958c-0.028,0.116-0.05,0.234-0.064,0.353
	c-0.04,1.114-0.088,2.228-0.121,3.343c0.017,0.14-0.076,0.268-0.214,0.292c-0.843,0.232-1.683,0.471-2.521,0.715
	c-1.068,0.307-2.137,0.615-3.215,0.931c0,0.824-0.01,1.635,0,2.443c0.004,0.103,0.048,0.198,0.122,0.271
	c0.182,0.158,0.389,0.29,0.583,0.435c1.189,0.878,2.379,1.759,3.569,2.643l0.023,0.015c0.138,0.093,0.176,0.282,0.083,0.421
	C53.479,26.193,53.227,26.789,52.984,27.383z M11.638,31.207c1.761-0.451,3.522-0.916,5.294-1.332
	c0.622-0.234,1.285-0.34,1.949-0.312c1.14,0.151,2.286,0.241,3.436,0.272c1.075,0.081,2.106-0.44,2.681-1.355
	c0.096-0.108,0.107-0.267,0.03-0.389c-0.292-0.576-0.57-1.16-0.836-1.747c-0.044-0.106-0.039-0.227,0.013-0.33
	c0.984-1.438,1.982-2.869,2.973-4.304c0.228-0.278,0.194-0.685-0.074-0.922c-0.72-0.831-1.765-1.307-2.862-1.303
	c-1.037,0.016-2.074,0.082-3.107,0.121c-1.166,0.045-2.332,0.087-3.497,0.131c-1.101,0.037-2.205,0.084-3.302,0.122
	c-0.801,0.027-1.605,0.041-2.41,0.067c-0.528,0.017-1.044,0.047-1.625,0.073c-0.057,0.418-0.124,0.832-0.161,1.25
	c0.021,0.101,0.093,0.185,0.189,0.22c0.939,0.101,1.881,0.181,2.823,0.269c0.909,0.084,1.817,0.177,2.727,0.257
	c1.059,0.09,2.118,0.172,3.179,0.264c0.19,0.017,0.38,0.064,0.599,0.103c-0.347,0.455-0.674,0.87-0.987,1.298
	c-0.186,0.388-0.645,0.559-1.039,0.387c-0.083-0.019-0.167-0.032-0.251-0.037l-1.653-0.132c-1.049-0.086-2.098-0.167-3.147-0.26
	c-0.207-0.026-0.41,0.069-0.522,0.244c-0.294,0.396-0.597,0.797-0.903,1.199c0.04,0.044,0.072,0.087,0.11,0.123
	c0.679,0.639,1.354,1.278,2.038,1.913c0.166,0.153,0.157,0.247-0.047,0.349c-0.474,0.234-0.942,0.479-1.411,0.723
	c-1.064,0.544-2.128,1.09-3.191,1.638c-0.09,0.054-0.177,0.112-0.26,0.176l1.104,1.794C10.222,31.583,10.927,31.389,11.638,31.207z
	 M42.401,19.356c1.044-0.01,2.091,0.024,3.133-0.016c0.406-0.018,0.801,0.13,1.096,0.409c0.346,0.295,0.713,0.565,1.078,0.838
	c0.247,0.157,0.32,0.484,0.165,0.731c-0.001,0-0.001,0.001-0.001,0.001c-0.011,0.018-0.023,0.034-0.035,0.05l-3.747,5.131
	c-0.05,0.067-0.089,0.144-0.146,0.244c0.211,0.108,0.422,0.225,0.639,0.328c1.38,0.663,2.762,1.323,4.143,1.982
	c0.312,0.147,0.22,0.418,0.139,0.611c-0.204,0.5-0.458,0.978-0.758,1.426c-0.098,0.138-0.465,0.144-0.698,0.115
	c-0.853-0.102-1.693-0.244-2.539-0.366c-0.95-0.144-1.896-0.298-2.85-0.439c-0.67-0.099-1.34-0.18-2.012-0.274
	c-0.271-0.038-0.544-0.073-0.812-0.131c-0.502-0.037-1.005,0.044-1.471,0.237c-1.891,0.46-3.777,0.941-5.741,1.432
	c0.173,0.245,0.318,0.464,0.487,0.668c0.357,0.436,0.731,0.855,1.088,1.296c0.214,0.266,0.518,0.23,0.786,0.25
	c1.041,0.084,2.084,0.133,3.127,0.204c0.838,0.057,1.676,0.129,2.515,0.191l3.507,0.26c0.826,0.063,1.654,0.128,2.481,0.194
	c0.296,0.025,0.591,0.058,0.92,0.093c0.102,0.635,0.204,1.289,0.313,1.978l-9.031,1.781c-0.006,0.029-0.012,0.058-0.018,0.09
	c0.227,0.16,0.447,0.331,0.681,0.48c1.2,0.767,2.405,1.526,3.605,2.292c1.477,0.943,2.946,1.897,4.427,2.831
	c0.163,0.062,0.245,0.247,0.183,0.41c-0.006,0.018-0.015,0.034-0.024,0.051c-0.223,0.559-0.445,1.117-0.632,1.687
	c-0.068,0.205-0.159,0.223-0.327,0.173l-2.716-0.816c-1.782-0.538-3.564-1.076-5.346-1.618c-1.67-0.507-3.339-1.022-5.012-1.519
	c-0.122-0.011-0.24,0.04-0.316,0.136c-0.91,1.575-1.811,3.154-2.703,4.739c-0.078,0.186-0.266,0.298-0.465,0.28
	c-0.731-0.018-1.463-0.01-2.193,0c-0.147,0.015-0.288-0.062-0.357-0.192c-1.011-1.535-2.038-3.062-3.058-4.592
	c-0.244-0.366-0.374-0.422-0.808-0.282l-4.116,1.344l-7.176,2.333c-0.45,0.145-0.902,0.278-1.366,0.419
	c-0.274-0.665-0.549-1.325-0.816-1.986c-0.07-0.115-0.034-0.265,0.082-0.336c0.003-0.002,0.006-0.003,0.009-0.005h0.008
	c1.783-1.175,3.553-2.358,5.331-3.537c0.967-0.641,1.94-1.272,2.911-1.911c0.089-0.072,0.174-0.149,0.254-0.23l-0.002-0.013
	c-0.914-0.214-1.75-0.411-2.587-0.61l-4.822-1.148c-0.338-0.08-0.68-0.147-1.021-0.211c-0.172-0.033-0.278-0.112-0.243-0.297
	c0.085-0.391,0.177-0.78,0.276-1.168c0.058-0.222,0.132-0.439,0.204-0.679c0.797,0.044,1.583,0.097,2.372,0.129
	c0.308,0.012,0.618-0.027,0.927-0.041c0.214-0.008,0.429,0,0.644-0.019c1.006-0.082,2.02-0.115,3.017-0.266
	c1.346-0.193,2.681-0.456,4-0.785c1.133-0.323,2.248-0.708,3.339-1.153c0.748-0.292,1.479-0.623,2.193-0.991
	c0.699-0.349,1.377-0.736,2.033-1.16c0.245-0.217,0.451-0.474,0.609-0.761c0.677-0.919,1.548-1.678,2.549-2.223
	c0.609-0.339,1.239-0.629,1.942-0.977c-0.292-0.527-0.572-1.08-0.893-1.605c-0.787-1.233-1.83-2.282-3.057-3.076
	c-0.099-0.078-0.16-0.193-0.168-0.319c0-0.075,0.144-0.188,0.244-0.212c1.174-0.289,2.349-0.587,3.533-0.84
	c0.948-0.203,1.907-0.366,2.864-0.515c0.596-0.093,1.2-0.143,1.802-0.204c0.897-0.09,1.796-0.184,2.696-0.253
	C41.244,19.381,41.822,19.362,42.401,19.356z M41.079,22.462l-4.242,0.111l-0.032,0.092l1.981,1.727
	c0.701-0.548,1.401-1.096,2.1-1.646C40.962,22.66,41.026,22.564,41.079,22.462z M62.679,59.593c-1.568,0.315-3.139,0.63-4.707,0.962
	c-0.128,0.04-0.233,0.136-0.283,0.263c-0.374,1.396-0.73,2.793-1.097,4.191c-0.541,2.094-1.078,4.189-1.616,6.281l-2.132,8.308
	c-0.583,2.266-1.168,4.532-1.737,6.804c-0.05,0.211-0.04,0.432,0.024,0.64c0.247,0.762,0.494,1.531,0.804,2.264
	c0.563,1.357,1.173,2.689,1.782,4.031c0.06,0.104,0.162,0.171,0.278,0.183c0.388-0.038,0.769-0.127,1.157-0.177
	c1.206-0.157,2.415-0.31,3.624-0.456c0.968-0.111,1.937-0.221,2.907-0.322c1.088-0.114,2.176-0.222,3.266-0.327
	c0.982-0.09,1.967-0.176,2.953-0.257c1.137-0.094,2.274-0.18,3.412-0.261c1.03-0.07,2.062-0.133,3.096-0.194
	c0.799-0.049,1.599-0.092,2.398-0.13c1.004-0.045,2.008-0.088,3.013-0.128c0.64-0.026,1.285-0.053,1.927-0.064
	c1.512-0.029,3.025-0.051,4.541-0.064c1.075-0.008,2.153,0,3.231,0h0.343v-2.337l-0.01-0.004l-29.361-4.479
	c0.012-0.047,0.023-0.092,0.028-0.138c0.045-1.307,0.09-2.616,0.133-3.926c0.021-0.59,0.046-1.179,0.064-1.769l0.131-3.699
	c0.021-0.623,0.043-1.246,0.064-1.867l0.128-3.699c0.021-0.623,0.048-1.244,0.064-1.866c0.023-0.909,0.041-1.827,0.066-2.741
	c0.015-0.625,0.036-1.245,0.072-1.867c0.019-0.105,0.09-0.193,0.186-0.236c0.854-0.186,1.715-0.356,2.569-0.532
	c1.197-0.248,2.392-0.509,3.586-0.752c1.278-0.265,2.559-0.532,3.836-0.802l3.927-0.823l3.836-0.797l3.588-0.751l3.524-0.735
	l2.194-0.46l-0.65-2.319l-2.387,0.487l-3.654,0.734c-1.24,0.251-2.478,0.512-3.717,0.754c-1.343,0.271-2.691,0.533-4.031,0.802
	c-1.24,0.248-2.479,0.499-3.717,0.749c-1.219,0.243-2.438,0.49-3.655,0.732C65.346,59.063,64.011,59.326,62.679,59.593z
	 M70.617,40.171c-0.06-0.159-0.079-0.331-0.058-0.499c0.076-0.848,0.162-1.695,0.255-2.54c0.1-0.929,0.221-1.856,0.316-2.786
	c0.078-0.763,0.121-1.529,0.202-2.292c0.071-0.719,0.174-1.434,0.243-2.152c0.057-0.519,0.085-1.041,0.138-1.561
	c0.079-0.772,0.174-1.542,0.252-2.313c0.05-0.477,0.089-0.954,0.136-1.432c0.081-0.807,0.174-1.605,0.255-2.411
	c0.05-0.509,0.081-1.02,0.133-1.527c0.081-0.762,0.174-1.521,0.253-2.281c0.052-0.519,0.083-1.041,0.138-1.561
	c0.076-0.749,0.164-1.499,0.243-2.248c0-0.042,0-0.085,0.009-0.128c0.028-0.534,0.028-0.528,0.573-0.536
	c1.504-0.018,3.008-0.04,4.51-0.063c1.244-0.02,2.489-0.044,3.736-0.065c1.363-0.022,2.727-0.04,4.09-0.068
	c0.193-0.016,0.389-0.043,0.578-0.082c0.053,0.382,0.107,0.743,0.146,1.106c0.114,1.059,0.224,2.117,0.323,3.176
	c0.074,0.786,0.122,1.573,0.2,2.357c0.096,0.962,0.22,1.922,0.314,2.882c0.076,0.763,0.121,1.529,0.2,2.292
	c0.1,0.983,0.219,1.966,0.316,2.949c0.076,0.752,0.123,1.507,0.199,2.259c0.079,0.752,0.174,1.499,0.252,2.248
	c0.053,0.519,0.084,1.042,0.137,1.561c0.078,0.794,0.173,1.588,0.252,2.378c0.05,0.499,0.09,0.997,0.133,1.499
	c0.01,0.286,0.033,0.571,0.076,0.855c0.033,0.215-0.014,0.436-0.133,0.618c-0.861,1.653-1.721,3.307-2.58,4.962
	c-0.066,0.128-0.154,0.244-0.241,0.39c-3.032-2.733-9.488-2.767-12.774,1.245c-0.162-0.335-0.326-0.646-0.469-0.966
	c-0.367-0.808-0.719-1.622-1.083-2.431C71.464,42.061,71.035,41.12,70.617,40.171z M76.066,34.442h7.255
	c0.46,0,0.479-0.015,0.479-0.473V15.926l-7.733-0.001V34.442z M100,100H0V0h100V100z M95.993,4.007H4.002v91.969h91.991V4.007z
	 M16.354,18.044c0.767-0.098,1.537-0.178,2.306-0.257c0.518-0.054,1.039-0.085,1.557-0.138c0.789-0.078,1.581-0.172,2.373-0.252
	c0.518-0.052,1.04-0.085,1.557-0.137c0.802-0.083,1.603-0.167,2.405-0.254c0.558-0.062,1.115-0.137,1.674-0.185
	c0.456-0.053,0.915-0.072,1.374-0.056c0.686,0.052,1.366,0.165,2.051,0.244c0.685,0.08,1.374,0.13,2.06,0.202
	c0.747,0.081,1.495,0.17,2.242,0.254c0.452,0.051,0.909,0.083,1.358,0.154c0.599,0.144,1.227,0.113,1.808-0.088
	c0.707-0.272,1.312-0.757,1.735-1.386l0.008,0.004l-2.924-2.842l5.361-4.618c-0.586-0.509-1.149-1.016-1.731-1.499
	c-0.136-0.096-0.299-0.146-0.464-0.143c-0.492,0-0.987,0.042-1.474,0.057c-0.802,0.024-1.605,0.045-2.411,0.065l-2.802,0.066
	c-0.836,0.021-1.672,0.044-2.508,0.065l-2.702,0.065l-2.539,0.062l-2.734,0.066c-0.858,0.021-1.719,0.044-2.573,0.063
	c-1.03,0.022-2.06,0.049-3.089,0.064c-0.633,0.009-0.637-0.001-0.867,0.582c-0.111,0.284-0.183,0.581-0.273,0.88
	c0.312,0.039,0.531,0.077,0.753,0.092c0.734,0.048,1.473,0.09,2.204,0.13c1.237,0.065,2.473,0.128,3.709,0.194
	c0.746,0.035,1.49,0.083,2.237,0.123c1.214,0.072,2.427,0.137,3.645,0.194c0.674,0.031,1.349,0.046,2.022,0.072
	c0.024,0.001,0.048,0.032,0.098,0.065c-0.382,0.363-0.771,0.705-1.121,1.071c-0.25,0.378-0.699,0.571-1.143,0.493
	c-0.541-0.067-1.085-0.096-1.629-0.087c-1.141-0.08-2.276-0.175-3.411-0.253c-0.533-0.036-1.069-0.036-1.603-0.07
	c-0.446-0.029-0.888-0.092-1.333-0.122c-0.202-0.041-0.412-0.03-0.609,0.029c-0.559,0.282-1.111,0.606-1.655,0.931
	c-0.278,0.165-0.255,0.446,0.03,0.593c0.961,0.49,1.921,0.985,2.879,1.484c0.075,0.048,0.145,0.103,0.208,0.163
	c-0.083,0.055-0.162,0.112-0.244,0.165c-0.027,0.017-0.056,0.029-0.086,0.037l-5.425,1.453l-1.614,0.435
	c0.316,0.527,0.611,1.017,0.904,1.505C16.04,17.94,16.124,18.073,16.354,18.044z M86.22,45.163
	c-0.002-0.002-0.005-0.003-0.006-0.005c-0.001,0.001-0.001,0.001-0.001,0.002L86.22,45.163z M71.271,66.404h0.012
	c-0.001-0.003-0.002-0.004-0.002-0.005L71.271,66.404z M9.896,93.761c0,0,0-0.002-0.001-0.002c-0.001,0.002-0.002,0.002-0.004,0.002
	H9.896z"/>
</svg>
